<mxfile host="app.diagrams.net" agent="Mozilla/5.0 (Windows NT 10.0; Win64; x64) AppleWebKit/537.36 (KHTML, like Gecko) Chrome/141.0.0.0 Safari/537.36" version="28.2.7">
  <diagram name="Page-1" id="fxQjG-qpbsGmmBzvviO2">
    <mxGraphModel dx="2096" dy="676" grid="1" gridSize="10" guides="1" tooltips="1" connect="1" arrows="1" fold="1" page="1" pageScale="1" pageWidth="850" pageHeight="1100" math="0" shadow="0">
      <root>
        <mxCell id="0" />
        <mxCell id="1" parent="0" />
        <mxCell id="JgNSC6jh_i2f5uPWnO4L-7" value="" style="shape=image;verticalLabelPosition=bottom;labelBackgroundColor=default;verticalAlign=top;aspect=fixed;imageAspect=0;image=data:image/png,iVBORw0KGgoAAAANSUhEUgAABBEAAAPACAYAAABjPuFvAAAQAElEQVR4AeydB3xUxdrG35MeAiHUEKr0DklQLl0E6XgF4QP1CmJDQVFEUSkCAgJSBREUlEu7VlAp0kGki0AivUPogQBJSEjf/fYZPHET0kg2my1Pfpndc6a8M/Ofs2We886sy9djbhoRFoy5eeHLUTffnjosulajJ4yFGMiA1wCvAV4DvAZ4DfAa4DXAa4DXAK8BXgO8BngNOMw18MDz/KnvRJc8PPVmh3OfXvvm/MxwI4KL3Ptbf+x6SuN5IcW//PZwkQv3ovhIAiRAAiRAAiRAAiRAAiRAAiRAAiRQ8AQKpgXfnixy9/nfi2/vudn/5QSjsT9aARHh4vHrKf22XCwVjQgGEiABEiABEiABEiABEiABEiABEiABCxFwEDPPbvb/X7IYR7okG2QGBQQHGVV2gwRIgARIgARIgARIgARIgARIwGIEaCgtgd6b/Ge43ElyX5s2mmckQAIkQAIkQAIkQAIkQAIkQAIkYNcE2Ph8IuDCPRDyiSzNkgAJkAAJkAAJkAAJkAAJkAAJ5IIAi9gyAeyJYMvtY9tIgARIgARIgARIgARIgARIgATshQDb6fAEKCI4/BCzgyRAAiRAAiRAAiRAAiRAAiSQPQHmIIGcEKCIkBNKzEMCJEACJEACJEACJEACJEACtkuALSMBqxGgiGA11KyIBEiABEiABEiABEiABEiABNIT4DkJ2BcBigj2NV5sLQmQAAmQAAmQAAmQAAmQgK0QYDtIwAkJUERwwkFnl0mABEiABEiABEiABEjA2Qmw/yRAArkjQBEhd9xYigRIgARIgARIgARIgARIoGAIsFYSIIECJEARoQDhs2oSIAESIAESIAESIAEScC4C7C0JkIC9E6CIYO8jyPaTAAmQAAmQAAmQAAmQgDUIsA4SIAESMBGgiGCCwH8SIAESIAESIAESIAEScGQC7BsJkAAJWIoARQRLkaQdEiABEiABEiABEiABErA8AVokARIgAZsiQBHBpoaDjSEBEiABEiCBByMQGfZR4euHGrW8dqDacAYy4DVga9eA47bnemjdp28ef6zGg71jMTcJkIAjEKCI4AijyD6QAAmQAAk4JYFrB6p+rN3937mK5bx/feSR+u8zkAGvAQteA3xNZfmeUqtWuS8LuV/fY7jUaFvEyV7+TvkmzE6TgJMSoIjgpAPPbpMACZAACdg3gahjDd5t0KDmi6dOnSy0Y8cO159//tmNgQx4Ddy7Bsgh/zls2LDB7ciRI54ffPB+o6Q7O88m3p7rad/vqmw9CZBATglQRMgpKeYjARIgARIgARshEH6oZX2DIXbk7NmzfW2kSWwGCViKAO3YGYFevXrJO++8IxI1f56dNZ3NJQESyCUBigi5BMdiJEACJEACJFBQBIxJV5/417/+5V6lSpWCagLrJYEMCDDKWQk0bdpUYmOjujhr/9lvEnA2AhQRnG3E2V8SIAESIAG7J+DpqT3eqFEju+8HO2BDBNgUEsgDAYgI8fHx3tjkNQ9mWJQESMBOCFBEsJOBYjNJgARIgARIgARIICMCjCMBEiABEiABaxKgiGBN2qyLBEiABEiABEiABP4hwCMSIAESIAESsDsCFBHsbsjYYBIgARIgARIggYInwBaQAAmQAAmQgHMSoIjgnOPOXpMACZAACZCA8xJwkp6fOHFCdu3aldrbLVu2yJ07d+TKlSsybtw4efPNN2Xz5s2SmJgoS5YskQkTJqiAcitWrFDHs2bNkkuXLqXa4AEJkAAJkAAJUETgNUACJEACJEACJGA3BNjQnBMIDw+X06dPpxaAOJCQkCC//PKLPP/88zJz5kxp1aqVJCcnK3Fh8ODBMnz4cKlZs6YSGvr37y89e/aUxYsXS1xcXKodHpAACZAACTg3AYoIzj3+7D0JkAAJkAAJWIsA67ERAiVKlJBNmzYpYcDd3V21CkLCzZs35datW0pUUJF/PyCPq6vr32d8IgESIAEScHYCFBGc/Qpg/0mABEiABEggWwLM4EgEevXqJY0bN5YxY8bIunXrVNdiYmLk0KFDKty9e1eio6Nl+vTpatlDnz59xMPDQ+XjAwmQAAmQAAlQROA1QAIkQAIkQAKOTIB9c1oCvr6+4ubmpvqfkpIiSUlJ4uLiIpqmSb169eS9996TPXv2KI8EPz8/ad26tTz66KOCcghDhgyRdu3aSUhIiLLBBxIgARIgARIAARc8MJAACZAACZAACdgeAbaIBPJCAEJBRESEwOMAex34+/uLt7e3YLNEbKI4depUadCggYrD5ok4Rzz2TtDr7dixoxIRrl69qkfxmQRIgARIwMkJUERw8guA3ScBEiABEsgXAjRKAgVOAF4I+AUGiAiffPKJ9O7dWwkGiIOoMGnSJHnqqaekUKFC6pcYRo0albqx4oABA6RkyZIqDXkDAgIKvD9sAAmQAAmQgG0QoIhgG+PAVpAACZAACdgMATaEBEiABEiABEiABEggMwIUETIjw3gSIAESIAH7I8AWkwAJkAAJkAAJkAAJ5CsBigj5ipfGSYAESIAEckqA+UiABEiABEiABEiABGyfAEUE2x8jtpAESIAEbJ0A20cCJEACJEACJEACJOAkBCgiOMlAs5skQAIkkDEBxpIACZAACZAACZAACZBAzglQRMg5K+YkARIgAdsiwNY4NYGUlBRJTExkyIJBXFwc+WTBx1avn5iYGI6bHY6bU78hs/Mk4GQEKCI42YCzuyRAArZBgK0ggbwQSExMqD5z5kypXLkyQxYMqlWrRj5Z8LHV66dmzZocNzscN7ynGY1xFfDMQAIk4NgEKCI49viydyRAApYnQIskUOAEPDw8T/fv318OHDjAkAmD+fPnS5kyZcgnEz62eu2sXbtWvb727t3LsbOzscPAaZr3RTwzkAAJODYBigiOPb7sHQmQQBoCPCEBhyFgLFy4sPj7+zNkwqB48eLi4uJCPpnwsdVrp1SpUupFaqvtY7syf89RA8cHEiABpyBAEcEphpmdJAEHIMAukAAJkAAJkAAJkAAJkAAJFDgBiggFPgRsAAk4PgH2kARIgARIgARIgARIgARIwDEIUERwjHFkL0ggvwjQLgmQAAmQAAmQAAmQAAmQAAmkEqCIkIqCByTgaATYHxIgARIgARIgARIgARIgARKwLAGKCJblSWskYBkCtEICJEACJEACJEACJEACJEACNkiAIoINDgqbZN8E2HoSIAESKEgCK1askAkTJsicOXMkPDxcEhMTZcuWLeo5JiZGfvrpJ4mOji7IJjpc3fg5wvXr16fp1/Lly+XYsWNp4niSNwIbNmyQqVOnyrlz5zI0lJycLElJSRmmMZIESIAESMByBCgiWI4lLdk/AfaABEiABOyewJUrV6R///7StWtXWbx4scTFxcnx48fV83fffSd169YVX19fu+9nXjoAYQUBNsAHk0+EEydOyKVLl8RgMCBJiTAXLlxQ55icoszZs2fl7t27Kl1/CAwMlMcee0yd3rp1S06fPi0pKSnqnA+WIxAcHCw+Pj5SuXJldT1jHHBtQxwzGo2ydu1a2bhxoxofjCHGAeOhtwDHGN+EhATBeCMeQps+xigTHx+vxv369etIZiABEiABEsiAAEWEDKAwyh4JsM0kQAIkQALmBAoXLiyYWGEyiwnT3LlzpWnTplKzZk3zbE55vGfPHkFA59esWaNEFnhuQCTA5BGT0127dsm2bduUIDB//nzZvXu3DB48WM6fPy/p/2AL4Y8//pDZs2fLnTt3JL1nQvoyPM8bgWXLlsnkyZPFxcVFZs2aJZGRkXL16tXUa37RokVy8+ZNQT6MS0hIiHzxxRdy48YNeeutt+TUqVOSfoyRf9CgQbJ161aKQHkbHpYmARJwcAIuDt4/ds8eCLCNJEACJEACFiNw+/Ztef/995Xb99NPPy1eXl5y+fJltYQBd1wtVpEDGXJ1dZWKFSvKqlWrpESJEgIBZvv27XLo0CHZsWOHhIWFCe5e9+zZU9q0aSOFChXKsPfgizxBQUHSoUOHDPMw0jIEcF336tVLatSoIZ6enkocQFyRIkXUWP3555+yefNmJQKdOXNGPXfr1k0wNu3atVONSD/G8EJo2LChwG5AQIDKwwcSIAESIIH7CVBEuJ8JYx6AALOSAAmQAAnYFoFixYrJJ598ovZFwMQYratUqZISFkJDQ+XIkSOIYvibADw1cIgJJu5QY8kH9jLAZPTVV1+VUaNGKZaYqLq5uSFrpgGeH/BmyDQDEyxGAB4ImqYpe1iGoI8jIpBWq1Ytdc3DW+HZZ59VHgr62Oh504+xt7e3QFDStHt2YYuBBEiABEjgfgIUEe5n4iwx7CcJkAAJkIATEXB3d5d+/fqpu+1YQ+5EXb+vq2XKlJFvvvlGxo4dKzt37lSbTmLJwg8//CBgA2+E1q1by8SJE5WAAJf4+4xkEIG9EeAyP378eMFd7gyyMCoPBA4cOCDwMIBnTUZmsN8HNl/ExoulSpWSDz74QDAWR48elSZNmggEoi+//FI2bdqkiudmjFVBPpAACZCAkxOgiGCXFwAbTQIkQAIkQAIZExgwYICULFkyNRGu9wMHDlQu+HDRxsQK7vqpGZzwAC7wmOzDy2DmzJkCF/ZXXnlFXnjhBRk3bpyULl1a6tSpo/Y3GD58uGCJQqtWrQQBuLDnQUREhCBERkZKy5YtVZpud+TIkfLZZ59J7dq1kZ3BQgTat28vCxYskHLlykmPHj1S+Q4dOlQdN2rUSIkGeH7mmWdkypQpgrHAWMIrZ9KkSQLvkhYtWiiPA8RjDwt9jPG6wevHQs2lGRIgARJwWAIUEaw9tKyPBEiABEiABEiABEjAqgQuXrwoEAtGjBihfr2hSpUqwj8SIAESIIHcEaCI8ADcmJUESIAESIAESIAEsJYed60R/Pz8RNO4ht7Wr4oKFSqopSkff/yxvPbaa5Ld/ha23h+2jwRIgAQKkoCziAgFyZh1kwAJkAAJkAAJkAAJkAAJkAAJkIBDELADEcEhOLMTJEACJEACJEACJEACJEACJEACJGD3BPJXRLB7POwACZAACZAACZAACZAACZAACZAACZCATiBTEUHPwGcSIAESIAESIAESIAESIAESIAESIAHHJfAgPaOI8CC0mJcESIAESIAESIAESIAESIAESIAEbIeA1VtCEcHqyFkhCZAACZAACZAACZAACZAACZAACdgnAYoI9jlubDUJkAAJkAAJkAAJkAAJkAAJkEBBEXDieikiOPHgs+skQAIkQAIkQAIkQAIkQAIk4GwE2N+8EaCIkDd+LE0CJEACJEACJEACJEACJEACJGAdAqzFBghQRLCBQWATSIAESIAESIAESIAESIAESMCxCbB3jkKAIoKjjCT7QQIkQAIkQAIkQAIkQAIkQAL5QYA2ScCMAEUEMxg8JAESIAESIAF7J7B69Wo5deqU6sadO3dky5Yt6vju3bvy9ddfy8CBA2XKsqvSegAAEABJREFUlCly8+ZN2bVrl0yYMCE1LFmyRBITE1V+/SEje8izYsUKgX3ku3Lliuzbt0+VRX1IRzyezc8RZwshKipK3n33XZk1a5bMmzdPLly4kGWzkpOTJSkpKcs8TMxfArh+16xZIwkJCaqiiIiI1GtbReTgYdu2bYKQg6ypWc6dOyd79+4VXOPTpk1TrxVc+8gQGhoqQ4YMkQULFqh2wfb169eRxEACNkWAjSEBSxOgiGBporRHAiRAAiRAAgVI4Pz587J06VLBpAsTrhMnTkhKSoqa6DRq1EjmzJkjvXv3VpPnwMBAGT58uBQrVkz69+8vffr0EQ8PjzStz8geJtUhISFq4oTMmJSHhYUJ4o8fP66eEZ/+HHG2EM6cOSN16tSRF154QfW5bNmyEh8fr0SQkydPqmdMHs+ePavEg7Vr18rGjRsVU/P2GwwGiYmJURNMCBE4NxqNcuPGDSXkoP84x1hcu3ZNiRWIu3Tpkty6dSvVVHh4uEpD+dRIHqQhUKhQIQE3BCTs379f3NzcBMwQp/PHOcYSTDGhB2+IahgTlNPPdf4YH6QhD9LMy1+9elWNe7Vq1VTdjRs3Vq+XJ598Uo371q1bZezYsVKxYkXZsWOHlCtXTlauXCmwiboYSMACBGiCBGySAEUEmxwWNooESIAESIAEckfAx8dH6tatK6tWrUo1gEl+dHS01KxZU8Vh0qNPylREFg8Z2csiu80nYYKHiaKrq6tqK+5uYwL5008/yZgxY5SHxvfffy8XL16UuLg4dY7JJMqpAmYPmIi++eabArHhzz//FIgNsbGxApECXhozZ84UnI8YMUJ2794tyPPWW28pkWH+/PkCoQLeILiDffr0aUFcRvWYVenUh5jEQzyAh8vRo0elXr16Ao8ECAYQfyCeYUwGDRokmOBHRkbK+PHjFWcICoC3fPlyNcmHV06YSfjC+JiPFwQFvTyEHwhAENkgTMDzAHZRJ15TENwKFy6sRITDhw8LxCjYw9ijLgZnJ8D+k4DjEqCI4Lhjy56RAAmQAAk4IQFMdlq2bCmYWGFyBASYNHt7e6fxMsDECB4KSM8qZGQvq/y2nqZpmkAYweSvSJEiqc11d3eX5557Tpo2barElvXr16vJpr+/v3h5eQnyQnhJLfD3QXBwsDRv3lx5NmAiCztY+rBhwwYlQMAbpGrVqtKhQweV59FHH5WgoCA14YQ4sX37djl06JC6k41JLYQL4V+GBOARAGbwdsH1jGsYY4lrfefOnYI0FGzYsKH06tVLeeDA46R9+/ZKWENajx49pEaNGlKmTBm5fPmypB8vCBR6eS/TuFeoUEE0TZNmzZrJf/7zHylfvrzMnj1bIDDoQhRsQPxBmyAswAbqYrBjAmw6CZBAlgQoImSJh4kkQAIkQAIkYH8EMKnp3r27cq329fVVE2AICbh7it5gYos7rpgg4zy7kN6ep6enwC5siukP9jCJMh3a7b+Li4uaLKIDuOM9atQotWcEJvmIyyxgIqlpmkqGO/zChQsFAgX2nihZsqSKh211YHpAftOTEiiQH+LEq6++KqgP+1NkJFQgP4MormAKLxuINxBrPv/8c6lfv768/PLLorMDY03TBM8QwcTsD0sgcIrrFfwzGi+U07R7Y6oLbShXvHhxgSCENuD6x3WPdLyuIC7AJs5hn6HgCLBmEiCB/Cfgkv9VsAYSIAESIAESIAFrE8AdVNwhhzcCJv1du3ZVrt2YqI4cOVLdccekKKftMreHSVbHjh3VBo3jxo2Tb775Rt2Nhy2sT586daragA7LBMzPsT8D8th6+O677wSbTMIzAHessTwEngUHDhzItulwaV+3bp0sWrQodePJrAq1bt1aJk6cqHgtW7Ysq6xMMxGAeACPg1q1aikvAkzmsQ8BrkGICqYsqf9VqlQRLGkYM2aMQCxIn46MWY1XQECA8m6AZwE2CMXSCCxNweupcuXKgmvjww8/lP/973/q+scyBuTVxQzYZ3ggAsxMAiRgJwQoItjJQLGZJEACJEACJJATAgMGDBDcKUXezp07qzvcOMZ+CNOnT1cbw+HXGeCejXgEvQw8C7CmHGu+EbAeXE9DPnN7cBOHHUyiJk+eLJhwYfIEkQJ31bFhI9zCzc/RBtgp6FC7dm2BW7uY/vCsn+PZFCVPP/20urP98ccfK9d3bEiJCWSDBg3Uhohgg4AJLPigDMoOHTpUnnjiCRk2bJhgXf3o0aOlRIkS6hcxwAZ5UB/y9+3bV1q1aqWWOMA9Hrx69uyJJIYsCIAheIG9pmny2muvyeuvvy5gj19KwLWvjwm8B7BnBUSEfv36Sdu2bRVzmNf5px8viGV6eT8/P/VaghDXpk0bgfiG6/mVV15RmzpiyQTO8TrA9X/kyBHlqYCxRh3OFdhbEiABZyJAEcGZRpt9JQESIAESIAESIAESyDEB/JIJhIXsCmApAzxWIEpkl9fm0tkgEiABEnhAAhQRHhAYs5MACZAACZCAoxLA2n0sccDdXATeUU070rizbc4Hm+ilzcEzRyOAMcceF9n1S9M0tU8IXkPZ5bVkOm2RAAmQQEEQoIhQENRZJwmQAAmQAAmQAAmQgDMTYN9JgARIwG4JUESw26Fjw0mABEiABEiABEiABKxPgDWSAAmQgHMToIjg3OPP3pMACZAACZAACZCA8xBgT0mABEiABPJMgCJCnhHSAAmQAAmQAAmQAAmQQH4ToH0SIAESIAHbIEARwTbGga0gARIgARIgARIgAUclwH6RAAmQAAk4EAGKCA40mOwKCZAACZAACZAACViWAK2RAAmQAAmQQFoCFBHS8uAZCZAACZAACZAACTgGAfaCBEiABEiABPKBAEWEfIBKkyRAAiRAAiRAAiSQFwIsSwIkQAIkQAK2SoAigq2ODNtFAiRAAiRAAiRgjwTYZhIgARIgARJwaAIUERx6eNk5EiABEiABEiCBnBNgThIgARIgARIggewIUETIjhDTSYAESIAESIAEbJ8AW0gCJEACJEACJGAVAhQRrIKZlZAACZAACZCAdQisXr1aTp06pSq7c+eObNmyRR3fvXtXvv76axk4cKBMmTJFbt68Kbt27ZIJEyakhiVLlkhiYqLKrz9kZA95VqxYIbCPfFeuXJF9+/apsqgP6YjHs/k54jIK1o7btm2bIOSk3ri4ODEajTnJyjz5SADX75o1ayQhIUHVEhERkXptq4gcPGDMEXKQNTXLuXPnZO/evYJrfNq0aeq1gmsfGUJDQ2XIkCGyYMEC1S7Yvn79OpIYSIAESMChCVBEcOjhZedIgARIgAScjcD58+dl6dKlgkkXJlwnTpyQlJQUNdFp1KiRzJkzR3r37i3z5s2TwMBAGT58uBQrVkz69+8vffr0EQ8PjzTIMrKXnJwsISEhmDipvFFRURIWFiaIP378uHpGQvpzxNlSgDhw48YNJbqgrWhbTEyMHDx4UCIjI+X27dvy2WefydWrV8VgMCBZBZQDXwgxEGz0shBNTp48Kbdu3VL5cI58GAPYRdA5IQPK6Wk4Z8icQKFCheTSpUsqINf+/fvFzc1NjQviL1y4oI4xTvHx8RIeHi6Y0IMxxgjjjHL6uT5GGEukIQ/SzMtj3Ddu3CjVqlVT9TZu3Fi9Xp588knBWG7dulXGjh0rFStWlB07dki5cuVk5cqVFJ0AmoEESMChCVBEcOjhZedIgARIgAScjYCPj4/UrVtXVq1aldp1TPKjo6OlZs2aKg6TnkKF7k3KVEQWDxnZyyK7XSXFxsbKmTNnlEfFzJkz5eLFi0pc8fPzk7Nnz6qJIoSE9J2Cd8KIESOUNwMmmgsXLlRZIAjg4Ntvv1VCxJ49e2To0KFKbPnwww/lxx9/VPV99dVXSuSBoJOUlKSEHdSHsgyZE8AkHuIBxJmjR49KvXr1BB4JEAwg3kA8gzgwaNAg2bp1q0AIGj9+vMCbAIICLC9fvlxN8uGVE2YSvtJfAxAU9PLXrl1T4wSRDcJEaGiosos68ZqC4Fa4cGElIhw+fFjKli0rsKd76KA+BhIgARJwRAIUERxxVNknEiABEiABxyaQRe8w2WnZsqW6E4sJMrLi7qq3t3caLwNMjOChgPSsQkb2sspvT2nu7u6CSfyGDRvU8g7c7cbd6N9//10JLmDm6ekpEBVcXNJ+Zapatap06NBB6tSpo1zdISwgH4QDeGNgAiumvx49ekiDBg2kevXq0qVLF3WMCS0mvQi4cw3xAnfThX9ZEoBHAEQb8MXY4BqGyAURYefOncpjBAYaNmwovXr1Uh44GJ/27dsrYQ1pGI8aNWpImTJl5PLly5L+GoBAoZf38vKSChUqiKZp0qxZM/nPf/4j5cuXl9mzZwsEBldXV5hUNuDRgDZBWIANlcAHEiABEnBQAmk/ER20k+wWCZAACZAACdgKAWu0AxOj7t27K9dqX19fKVKkiHL1xt1T1I9lDrjj6u/vj9NsQ3p7mFjDLsQJFIY9TKJwbE8BHgS4k4x9IkqWLCmYBL733nvSpEkTwfp3CAOZ9cdcVAAH3NX+7rvv5Nlnn5XOnTunFoPLPU40TRO9DPJrmia4s47lJFgy0apVK+Ff1gQwVhgneNkEBwcrAejzzz+X+vXry8svvywQgWABk3tN0wTPEMHE7E8fD1yvEIzSXwPIinKapuFQCRE4QLnixYsLxCO0Adc/rnsIcXhdQVyATZwjPwMJkAAJODIBigiOPLrsGwmQAAmQgCUJ2JUt3EFt3ry5cp/HpL9r164C125spDhy5Ehp2rSpYFKU006Z28Mkq2PHjmqDxnHjxsk333wjqAu2cEd96tSpagM6rDM3P9fd/ZHPFgLcz9etWyeLFi1SSxrgETB9+nTBOnhMFBFwZxku8Nm5qEOowWRy8eLFapmDLhhk1s/KlSurvRMgImCjS9SdWV7G/0MA4gG8EWrVqqU8ADCZhzcHrkF4lfyTU6RKlSoCj5AxY8YIxIL06cib/hpAnB4CAgKUdwM8C7BBKF4/WMaC1xPGD94MWKbyv//9T13/uEaQVxczdDt8JgESIAFHI0ARwdFGlP0hARIgARLIgIDzRA0YMEAw+UWPcUd81KhROFTu+Zgg65NWuGerBNODXgZ3yLGmHGu+EbApoJ5myqbusOv24CaOyS8mUZMnTxZMuDB5gkiBPKgHbuHm5/qeDLBVkAF3/RGeeOIJGTZsmGAN/OjRoxUj7LYPzwQEeCagH3BjxwQUTBDQdqSjv2CNSSo21cMk88UXX5SJEydKixYtBHUgIL/OUc+Pye/gwYOV2IJ9EyDSIB9D1gRq166tlhOAn6Zp8tprr8nrr7+u9p7A2IEvWMMKvAfefPNNwfj069dP2rZtq8YEaX379lXH6a8BjINeHstTYA/Lgtq0aSMQ33A9v/LKK2pTRyyZwDleB7j+jxw5ojwVcF2gDgYSIAEScFQCFBEcdWTZLxIgARJwFALsBwmQAAkUEOtlvLIAABAASURBVAH8kgmEheyqx1IGbGgKUSK7vEwnARIgAXsnQBHB3keQ7ScBEiABGybAptkXAbjgY4kD7r4i8I7qvfEjl3scnPER3gzYiyG7vmuaJvCOwLWSXV6mkwAJkIC9E6CIYO8jyPaTAAmQQP4QoFUSIAESIAESIAESIAESuI8ARYT7kDCCBEiABOydANtPAiRAAiRAAiRAAiRAAvlDgCJC/nClVRIgARLIHQGWIgESIAESIAESIAESIAEbJkARwYYHh00jARKwLwJsLQmQAAmQAAmQAAmQAAk4OgGKCI4+wuwfCZBATggwDwmQAAmQAAmQAAmQAAmQQA4IUETIASRmIQESsGUCbBsJkAAJkAAJkAAJkAAJkIC1CFBEsBZp1kMCJHA/AcaQAAmQAAmQAAmQAAmQAAnYFQGKCHY1XGwsCdgOAbaEBEiABEiABEiABEiABEjA+QhQRHC+MWePSYAESIAESIAESIAESIAESIAESCBXBCgi5AobC5FAQRFgvSRAAs5C4MjGqsHO0lf2kwRIgARIgARIwH4IUESwn7FiS+2dANtPAiRAAjkkELqhTJv4+HOLcpid2UiABEiABEiABEjAagQoIlgNNSuyZwJsOwmQAAmQAAmQAAmQAAmQAAmQgAhFBF4Fjk6A/SMBEiABpyGQmJgoK1askDt37qg+X7lyRfbt26eOb968KTNnzpRXX31V5s2bJ3fv3lXxfHhwArdu3ZK5c+fK1atX1fODW2CJByWA63XNmjWSkJCgikZERMiWLVvUcU4ftm3bJgg5zY98586dk7179+JQ8Hr68ccfBa8zRISGhsqQIUNkwYIFkpycrF5TuC4Qd+rUKQkPD1f1GY1GZGcgARIgAYchQBHBYYbSETvCPpEACeSFQPiZGV6HN1RqHvKrz3AG+2JgTLrdxzT2ZQ6sdv85ZK3vgPTh9u1bZTChMeVJ84+JTEhISOpEKyoqSsLCwtTkBsJB9+7d5csvv5TGjRuriU9KSkqa8s50AjaY6IEZJnmYpF67dk0uXLigJoSXLl0SiAVgYjAYBOdIw7Gfn588//zz4u7ujmQGKxAoVKiQGgOMA6rbv3+/uLm5CcYDcfrY4Dw+Pl5N4K9fv67GEuN848YNFEs918cWY4805MG1YF4eItHGjRulWrVqAjFhyZIl6vWEfDExMbJ161YZO3asVKxYUX7//XfZvXu3VK9eXcX9+uuvgjYfP35clVWV84EESIAEHIQARQQHGUib6wYbRAIkUKAETJPPJZeODrmQkHDhJ4MxoRWDvTFIChYxehmNKQ8bU+Lapg/x8XFFMeHN6UWGSRYmNJjsoEzNmjUlOjpaMJHGubOFEydOyPLly5XHxvTp0xWHESNGqEngn3/+KW+99ZZgYjl//nzB5BF3vXFX+eTJk7J06VIlLixaxC0rrH3dQPyCeABPgKNHj0q9evUko7EZNGiQmuBHRkbK+PHj1RhCUEB7Me4QDr7++mslCMTGxsqZM2fUtQBPHYy7Xh6vMYhLxYoVk8qVKwvi8TqCHbx2PDw8pHDhwkpEOHz4sFy+fFkdI07TNOWpgjZCoBD+kQAJkIADEaCI4ECDaamu0A4JkIB9E4CAYDQaant5PdS10RNG/0Zdkzsy2BcDV4/Sb4to5xs9YagQ3DWpZ/oQEFDuRHCwSWeQnP3B4wATIT03Jj/e3t7qLq4e50zPmIjiDvG6devk/PnzagJZtWpV6dChg9SpU0ceffRRCQoKkrJly6qJoI+Pj7qzvXPnTnUu/CsQAvAIgHcAxg7XL67pjMamYcOG0qtXL8F1j/Fs37691K1bV7W5R48eUqNGDSlTpoya9MObJCkpSTZs2CBY8gOBQi/v5eUlFSpUEE3TVFnzB4gPrq6uKgo2jEajEuZwjEhPT09VP9oIrwXEMZAACZCAoxCgiOAoI3mvH3wkARJwcgJHNlZqajQmdyhUqEafuu3O3VvI6+RMnKn7mLj4+vqmigNYP47Jjb+/v+AOK87BA3dR4bZdpEgRnDpdgIjy7LPPyvDhw2XOnDlSokQJcXH55yuRPjkEO7jGf/7551K/fn15+eWXlYu60wGzkQ7jDn/JkiVl1apVAhENk/+Mxgbjp2ma4BnjJ2Z/WAKBU4wtliUsXLhQeRMMHDhQYBtpKKdp94QDCBGISx+QF68npOP1VL58eYEwgWPEQYzA6w714LWWvjzPSYAESMCeCfzziWnPvXCItrMTJEACJJB3AonJEU1Ecz1Uu+2xY3m3Rgv2RgCTn44dO8qUKVNk3Lhx8s0330jz5s2lePHi0rRpU/nggw9kwoQJMmnSJOnatatAdLC3PlqivWCyePFixQiTSEwGM7MLphBmVq5cqXhi4ppZXsbnPwGIB/BGqFWrltqTIquxqVKlimBJw5gxYwTjnNHYwdsEHilYnqJvSKr3IiAgQHmeQBDQ4/RneBhANPjwww/lf//7n3qd4br67rvvZOTIkVKqVClBnosXLwrEBL0cn0mABEjAEQhQRLDEKNIGCZAACdgIAWNKYlMXzW2/jTSHzcglgSLFgg67uHn/NzfF4b4NEQGTm8mTJwsmQrDTrFkzmTFjhrzwwgvi5eWlJjjipH9ggr0QwKhfv36KBe5EY7177dq1BS7vYvrr27evWtrw2muvyeuvvy5Dhw4V7LyPu9ADBgxQd67xbMrKfysRwPjMnj1bIB5omiaZjQ2a4+bmJm+++aZARMA4t23bVlq1aoUkwdji+IknnpBhw4ap/Q5Gjx6tli/oY+rn56fGGHsmoBCuD/060TRNLZmAKIfXG64pBAh0EydOlGeeeUb9ioO+dwPKM5AACZCAoxBwehHBUQaS/SABEiABEDCK0VfENRLHDPZLoOoja68HdYqdnh89wEQHkyR9d/r8qIM2ScBRCPTu3VsJC7npj6Zp6idV4QmUm/IsQwIkQAK2SsCeRQRbZcp2kQAJkAAJkIBNE4CQAHdwm24kG0cCNkAA3gzYiyE3TcHeG/BeyE1ZliEBEiABWyZQQCKCLSNh20iABEiABEiABEiABEiABEiABEiABDIi8OAiQkZWGEcCJEACJEACJEACJEACJEACJEACJOBYBDLoDUWEDKAwigRIgARIgARIgARIgARIgARIgATsmUB+tZ0iQn6RpV0SIAESIAESIAESIAESIAESIAESeHACNl2CIoJNDw8bRwIkQAIkQAIkQAIkQAIkQAIkYD8EHL+lFBEcf4zZQxIgARIgARIgARIgARIgARIggewIMD1HBCgi5AgTM5EACZAACZAACZAACZAACZAACdgqAbbLegQoIliPNWsiARIgARIgARIgARIgARIgARJIS4BndkaAIoKdDRibSwIkQAIkQAIkQAIkQAIkQAK2QYCtcEYCFBGccdTZZxIgARIgARIgARIgARIgAecmwN6TQC4JUETIJTgWIwESIAESIAESIAESIAESIIGCIMA6SaAgCVBEKEj6rJsESIAESIAELExg9erVcurUKWX1zp07smXLFnV89+5d+frrr2XgwIEyZcoUuXnzpuzatUsmTJiQGpYsWSKJiYkqv/6QkT3kWbFihcA+8l25ckX27dunyqI+pCMez+bniGP4h8Dy5cvl2LFj/0SYjiIiImTu3Lmmo5z/Y2znzJkjeM55KfvKib6tWbNGEhISVMPBCdeWOsnhw7Zt2wQhh9lVtnPnzsnevXslPDxcZsyYISNHjpTQ0FCVhtcAXj/Tpk0TvAYQcIw4pKEM6jMajSo/H0jgbwJ8IgG7J0ARwe6HkB0gARIgARIggX8InD9/XpYuXaomlJhwnThxQlJSUmTBggXSqFEjwWSzd+/eMm/ePAkMDJThw4dLsWLFpH///tKnTx/x8PD4x5jpKCN7ycnJEhISkjqhi4qKkrCwMEH88ePH1bOpqHo2P0ecLQSIG5iUQmxB29Emg8Egly5dkgsXLgiOEXfr1i05ePCgYok4TCjPnj2rxBKURx48wx4mitHR0apsTEyMoN+IR574+HhV5uTJk4oJ7J4+fVqNC9LTB9jChNS8LagHNmEb+cEaY4s2o22IgzCEPiEN544UChUqpMYH/UW/9u/fL25uboo34nRWYAHemMBfv35d8QaTGzduoFjqOcYAEWCNNOQBN/PyV69elY0bN0q1atXE1dVVvUbeffdd2bp1q+C6gZAxePBgeeedd6Rs2bKqfY0bN1avqSeffFJKly6trgNcN6iLwREIsA8kQAIgQBEBFBhIgARIgARIwEEI+Pj4SN26dWXVqlWpPcKEBxPcmjVrqriKFSuKPilTEVk8ZGQvi+x2kbRnzx4ZOnSoxMXFycyZMwXCACaEmHhiog8RBuLBL7/8IkWKFBEIKd9++61cvHhRlcGk9YsvvpDY2FglxsCDA4z/+9//ytGjR5UnASakkyZNEkxkf/rpJxkzZozy/sBd7dmzZysvjvXr12fIC14daNOff/4pa9euFUx0Ydfd3V1mzZql2gExCCIF7KMfmASjHCa+CxcuzNCuvUdigg7xAP0Gj3r16kn6cYM4MGjQIDXRj4yMlPHjxwsm8eCE/sP7AzzhlRNmEr4whmfOnFHjgWsBgoJe/tq1a0pAgshWsmRJwWsBIgNeOxAVcL1s3bpVQkNDlZgB8QLHiEO7NE0TtBFjg7oZCpgAqycBErAYAYoIFkNJQyRAAiRAAiRQ8AQwkWnZsqVyv8bkCC3CxMfb2zuNlwEmRvBQQHpWISN7WeW3l7QePXpIgwYNpHXr1oI7+pggYlK4c+dOwUQcd5bPnz+vRIGqVatK9erVBZN+TEArV64svr6+cvjwYXFxcZGkpCQ5dOiQBAQEqOUJXbp0UZPHFi1aqDvRmPw/99xz0rRpU7l8+bL07NlTgoKCpEOHDhniCg4OlubNm0udOnUEogYyob5NmzYpt3l4I0AIglBUokQJNblFG2EPZeDFAGEB5RwpwCMAYwOPDFzPuIbTjxv627BhQ+nVq5fy9ACP9u3bK2ENaRj3GjVqSJkyZdRYYGwwfhs2bFAiDwQKvbyXl5dUqFBBNE1DUSUoQExq06aNFC5cWCA2QNhAe7Dsp1mzZvKf//xHypcvLxCKICyhjRgvZYAPuSbAgiRAArZFgCKCbY0HW0MCJEACJEACeSaAiVH37t1l5cqVarKLu+kQEjCpgXEsc8AdV39/f5xmG9Lb8/T0VHZhU0x/sIfJtenQbv7RZjQWHgPoz+effy7169eXl19+WXlp4M7zRx99JMWLF1dLQB555BEZNWqU2kdi+/btgono77//Lg8//LCUKlVKNm/erOI0TVNLF2AbvOFyD6FB0+5NRMEJE1WkZxZwl1vT7uVH+w4cOCCoE0tOMGlFuW7duslbb70l3333nRJBUAfiETAuqAfHjhQwcce4QDyB0ILJf/pxQ391fniGCIY4PWA8cAw+YLtw4UIlCGCvENhGGspp2j3+utCG6wUeKo8//rhBckLTAAAQAElEQVRa3oB8eF2hDMQopMM2rhcIOohH+1APxgP5nTSw2yRAAg5IgCKCAw4qu0QCJEACJEACuIOKu9nwRsAkuWvXrsq1G5u+YXM43BXHhCenpMztYZLVsWNHtUHjuHHj5JtvvlF3zmELrv5Tp05VmzXCjdv8HHf8kccWAiaiY8eOFWyAh+UfuNMP0QV9weQPngWffvqpmryj799//71g2QJc4HEXGxNF3IF+6KGHlMcA7v7jGMwxsQcX2MAE07y/gYGBgqUQcLOHMGCeltkxxgnjiH0t4MYPEWL+/Pnyww8/CO5yIz2zso4WD/EA3gi1atUSiFvpx828v1WqVJHIyEgZM2aMLDSJBRhX83Qcw+Nk3bp1smjRIrWkAXF6gGcJ6gJvbHaJfUCwHAKbJ2Lsp0+frq7zr776SnmWYKNHjOuIESMErzl4IWAJTE7FOr1e23lmS0iABEggYwIUETLmwlgSIAESIAESsEsCAwYMENwFReM7d+6s7p7jGPshYNKDjRTx6wxwvUY8gl4Gd0yxphzruRGwmZ+ehnzm9uAmDjsffvihTJ48WbnyY604RArcsUc9cAs3P0cbYMcWwtNPP63YYB08JnmvvfaavP7662qvhCFDhiivhLffflvee+89tfwA+eGl8PHHHyuPg3LlyqnNKjEJrV27ttobwc/PT3HAXgjgAg64ew4XeuRBv+HBABEBQs5nn32mlkmYM8ekGMyRF2Wwd0PlypXVZPWll14S2AbXV155RV544QWBWFGpUiX1qxvgj7HHpBnHsOFoAUywVACcNE2T9OOG/uv84Bnw5ptvKhGhX79+0rZtW2nVqpVC0rdvX3X8xBNPyLBhw9TShNGjR6vlC3p5jCfsQcDBBooQEnBdYyNFiBi4TnCO1xWWWmCZA8YV1zzGB54OEH2wL4Kq1JoPrIsESIAE8pEARYR8hEvTJEACJEACJEACtkcAa90RbK9lbJGtEcAvmcATJTft0jRNXn31VbUk5kHKMy8JkAAJ2DoBigi2PkJsHwmQAAmQAAlYiQDW1cM1HndfERz1bjb2FUCwEtYsq8HdcnPm6X9iM8vCTMx3AhgfeJPksKI02TCWjvoaStNRnpAACTgdAYoITjfk7DAJkIAjE2jUNbljUJfYCY7cR/aNBEiABCxPgBZJgARIgARySoAiQk5JMR8JkAAJkAAJkAAJkIDtEWCLSIAESIAErEqAIoJVcbMyEiABEsg9gfCQWi/fONo06EEtRF2a6JOUEH7v98oetDDzkwAJkEA+EqBpEiABEiAB+yNAEcH+xowtJgEScGYCSSleEQebBd48856vjuHmqWdKhx9uVe/2lR/dEYe0aweb/Csq7JXit8/0LRl3fd74yLMvVIq5tdMVea8d/FeTyLCPCiMvAwmQAAnkkgCLkQAJkAAJOCkBighOOvDsNgmQgP0RMGophZMN119M0VxTEqN+nACR4NpfDTsnx+x7wWi4Uyo+/L3p1488VicxetkIzaXwzYQ7IXWSEsJ9jUZjKfQ25uLbjU15+7m5+95OvLOmJuIYSIAEnJEA+0wCJEACJEACuSdAESH37FiSBEiABKxLQHO96+ru/4V//e2HNNHi4qOPl9MMdxp7FGm4tEyDkN80zeOoJjF+mtHoYUwO6+rm0+EvzaXkXXGROPdC/4pw9ax+zmhMrJ0Sf7mRT6m+R63beNZGAiRgEQI0QgIkQAIkQAIFTIAiQgEPAKsnARIggZwS0Axi0FxcDPfyG11cXJPdDKIZk5NiPO7FJZcwGLzulAk+97bmFrAp8fb/phhSrvvcSxMpVet/10rU3fuiprlfj74ybXQS90nQ0fCZBKxCgJWQAAmQAAmQgCMQoIjgCKPIPpAACTgtATePUqtS4o5Nuhry0HwxiHeKUUu6GlLlE0PS5R6a5nLNs3BguIgWH3976cvX/gpsE3G06USDIbqzi3iccff0Nwr/SIAEckKAeUiABEiABEiABP4mQBHhbxB8IgESIAFbJ+AfdPyrUnV2h6CdZYLPvYPjUnX3HCgTHNY7IOj8K2WCz4wo22Db8YCgs+8HBJ35yD/o7Bi/SlNiAoLODSoTeOrTMg1DtwQEnf3AVHaIydZ82GEgAccnwB6SAAmQAAmQAAlYkgBFBEvSpC0SIAESIAESIAHLEaAlEiABEiABEiABmyNAEcHmhoQNIgESIIHcEwj51WtyyDq/53JvgSVJwDIEaIUESIAESIAESMAxCVBEcMxxZa9IgASclIDBmNxAUpIqOmn32W3LEHBKK8uXL5djx47ZZN/v3r0rc+bMETzbZAOt0Cj0fc2aNZKQkKBqi4iIkC1btqjjnD5s27ZNEHKaH/nOnTsne/fuxaFcuXJFfvzxR0lMTFTnK1askAkTJsi0adPk4sWLyvb169dVGh9IgARIwJEJUERw5NFl30iABEiABJyMALubEwKYBGJSeurUKYmKikotggnq8ePHJSYmJjXu1q1bgnzJycliNBrVRP7mzZupcchoMBjk9OnTgrw4Nw9Igz1MQC9cuCA4R0D9yAe7cXFxKh75Ll26pCaraGNYWFiatqBepKM8yuLZvN74+Hg1wT158qTALvI4SihUqJCg7wjo0/79+8XNzU1xQ5w5W3AIDw8XTOjBAeN348YNFFNccK6PFcYUaYhDXjDVy1+9elU2btwo1apVE4gJS5YsEYwJ8mF8IGQMHjxY3nnnHalQoYKUK1dOVq5cqa4TVRkfSIAESMBBCVBEcNCBZbdIgARIgATsjACbazUCe/bskaFDhwom7zNnzpSzZ88qceCXX34RFxcXmTVrlhIXcNf6559/ltu3b8vkyZOVSDBixAh1xxkTzIULF0pKSoosWrRIMMFftmyZ/PHHH2n6gcnqm2++qer4888/Ze3atcoOyiAjJq+4w26eb/Xq1TJy5EjVhhkzZqhn5Nu3b58cPXpU5s+frybDsGFe708//SRjxoxRbYFtRwuNGzcWiAeYwINDvXr1BBN5CAYQTpYuXarYDho0SLZu3SqRkZEyfvx4JQBAUAAPeJxAOPj666+VIBAbGytnzpyRO3fuCK4FCAp6+WvXrqnrolixYlK5cmVBPMQM2IGQgHpRT2hoqBIzypYtK7AHW8jDQAIkQAKOSoAigqOOLPtFAiRAAiRgNQKsyP4I9OjRQxo0aCCtW7eWEydOiJeXl/Tq1Utq1Kghnp6eggni4cOH5YknnhBMXnE3Gne7q1atKh06dJA6deoojwGICRAHNm/erLwRMCGVdH/BwcHSvHlzVQaT3XTJqafI17JlS6lVq5Z07NhRtQ+TVkxs9XpbtGihJqpwn09fr7u7uzz33HPStGlTdZc+1bCDHGAMwBveIt7e3oLJvY+PjxqrnTt3CtLQ1YYNG6qxhMCDcWrfvr3UrVsXSYJxxxiXKVNGLl++LGCWlJQkGzZsUOILBAq9PK4JeBhomqbKmj9gXCAq4NpAeyD8oE0eHh7KG8Q8L49JgARIwNEIUERwtBFlf0iABEiABB6EAPM6KQEsXUDXcUcZE1F4IGjavckiXNoxAUU6Jph4hjeCq6ur8lTAOQLyaZommPS///77ylvh2WefRVKagHKads826jNPxF1x2EGceT646iMOaWgLJrd6WUxUEdLXa94HlHW0ULhwYSlZsqSsWrVKILhgbD7//HOpX7++vPzyy4KJPfqsc8QzliYgTg86V3AHz4ULFwrsDhw4UNlGPpTTtHvjBfaIyygUKVJElYEYhesJNrPKn5ENxpEACZCAPRJwscdGs80kQAIkQAIkIEIGJJB7ApiIjh07VrA5HibjGVlq3bq1fPrppzJmzBi1oR9c2tPn8/Pzk1KlSskHH3ygXOfhZp8+T/pzTHZxF3z06NEyb948weQzfZ7053DHnzRpklrmgPrgOo/nB6k3vU17PId4AI+DWrVqKS8CX19ftQ/BN998IxAVzPtUpUoVtaQB4wexIH068oLjunXr1JKU9MsQAgIClHcDBBzkNQ9YKjF9+nS1seJXX30lQUFBakkE8mJ8zfPymARIgAQcjQBFBEcbUfaHBEiABOyBANtIAgVM4Omnn5ZRo0apdfClS5dWbu61a9dWrcJ+CTiGK/yUKVOUiIB9DXDnGXesMUnEHXFMTuHF8MwzzwjyYR8DuMpjfwOs1UfAJHfAgAHKLmzCNspjrf5HH30kECmwjAL29HytWrUSBBRCfkxQISDglwAwce3du7domibm9aKtcNVHHSjnqAH9mz17toCrpmny2muvyeuvv672uBgyZIjyDNA5wusA44Zx6tevn7Rt2zaVa9++fdUxlqsMGzZM7XcAUQfLF/TyEIgwLvoSFYybPv5IQ33Dhw8XjAmWWhw5ckSw7AT5HJU/+0UCJEACIEARARQYSIAESIAEckyAGUnA3glgrTuCvfeD7c9/AhBsICxkVxO8SbDvAkSJ7PIynQRIgATsnQBFBHsfQbafBEiABHJOgDlJgARMBLAZHoLp0OL/uPtdvHhxdUccd7Gxd4HFK6FBqxHAeGLPhOwq1DRNeUdgX4rs8jKdBEiABOydAEUEex9Btp8ESMBJCLCbJEACJEACJEACJEACJFDwBCgiFPwYsAUkQAKOToD9IwESIAESIAESIAESIAEHIUARwUEGkt0gARLIHwK0SgIkQAIkQAIkQAIkQAIk8A8Bigj/sOARCZCAYxFgb0iABEiABEiABEiABEiABCxMgCKChYHSHAmQgCUI0AYJkAAJkAAJkAAJkAAJkIAtEqCIYIujwjaRgD0TYNtJgARIgARIgARIgARIgAQclgBFBIcdWnaMBB6cAEuQAAmQAAmQAAmQAAmQAAmQQFYEKCJkRYdpJGA/BNhSEiABEiABEiABEiABEiABEsh3AhQR8h0xKyCB7AgwnQRIgARIgARIgARIgARIgATsgwBFBPsYJ7bSVgmwXSRAAiRAAiRAAiRAAiRAAiTgRAQoIjjRYLOraQnwjARIgARIgARIgARIgARIgARI4MEIUER4MF7MbRsE2AoSIAESIAESIAESIAESIAESIIECIEARoQCgO3eV7D0JkAAJkEB+Eli9erWcOnVKVXHnzh3ZsmWLOr579658/fXXMnDgQJkyZYrcvHlTdu3aJRMmTEgNS5YskcTERJVff8jIHvKsWLFCYB/5rly5Ivv27VNlUR/SEY9n83PE2UNYvny5HDt2zB6a6jRtxPW7Zs0aSUhIUH2OiIhIvbZVRA4etm3bJgg5yJqa5dy5c7J3714JDw+XGTNmyMiRIyU0NFSl43nIkCGyYMEC1S7Yvn79ukrjAwmQAAk4MgGKCI48upbuG+2RAAmQAAnYPIHz58/L0qVLBZMuTLhOnDghKSkpaqLTqFEjmTNnjvTu3VvmzZsngYGBMnz4cClWrJj0799f+vTpIx4eHmn6mJG95ORkCQkJURMnZI6KipKwsDBB/PHjx9Uz4tOfI84WQlJScFbt7wAAEABJREFUkhI8zp49qzjFxMQI2g3RI3370DeIMuhL+jSeW49AoUKF5NKlSyqg1v3794ubm5sYDAYVd+HCBXWM8/j4eDXpx4Qe44bxu3HjBoqpaxPnt27dUudGo1GQhjjkNS9/9epV2bhxo1SrVk1cXV3Va+Tdd9+VrVu3CkQMPI8dO1YqVqwoO3bskHLlysnKlSsFNpVxPpAACZCAgxKgiOCgA5u+WzwnARIgARJwDgI+Pj5St25dWbVqVWqHMRGOjo6WmjVrqjhMevRJmYrI4iEje1lkt4uk3bt3y+DBgwUCCSaPc+fOVZPLSZMmCSae8vcfBBh4JcDjYvr06amiyd/JfLIygcaNGwvEA4g9R48elXr16qnJPLwETp48qcQziAODBg1SE/3IyEgZP368wJtAH1eMJyb58MqB8BUbGytnzpxRXjUzZ85UgoJe/tq1a0pkgshWsmRJwWsBIgNeOxDpILgVLlxYiQiHDx+WsmXLCuzherEyGlZHAiRAAlYlQBHBqrhzVRkLkQAJkAAJkECOCeAubMuWLdWdWEyOUBATH29v7zReBpgYwUMB6VmFjOxlld9e0nr27Clt2rQRTD67dOmiJqQtWrRQHgl6HzBhhYfCunXrlODAyaFOpmCe4REA7wCMCa5nXMOY2ENE2LlzpyANLWvYsKH06tVLeeDUqVNH2rdvr4Q1pPXo0UNq1KghZcqUkcuXL4u7u7vAM2XDhg1qiQ8ECr28l5eXVKhQQTRNQ1ElKHz77bfqusHrAt4JSIANCBNoE4QF2EA8AwmQAAk4KgGKCPk6sjROAiRAAiRAAtYngElN9+7dlWu1r6+vFClSRLl6wyMBrcEyB7hw+/v74zTbkN6ep6enwC7ECTH9wR4mUaZDu/mHKzwaq2maWtqAY/DR43GOCeGzzz6rlnxgGQjuRiOeoWAI4K4/xgBeNsHBwWry//nnn0v9+vXl5ZdfFngIoGWY3GuappYgYLIvZn/6+OJ6xfKFhQsXCuxirxDYRla9PI51oQ3XOJYJPf7442p5A/IiDum4bsqXL6+WMeAc5RhIgARIwJEJUETIbHQZTwIkQAIkQAJ2TAB3UJs3b65ctTHp79q1q3LtxkaK2ByuadOmUrx48Rz30NweJlkdO3ZUGzSOGzdOvvnmG0FdMIZ161OnTlWbNWKpgPk5lgcgjy0FtPu7774T9OPQoUPSoEGD1OYhbfHixSoNk830E9LUjDywGgGIB/A4qFWrlvIigJiFfQhwDcKjwLwhVapUESxpGDNmjGD80qcjL5YgwNNk0aJFakkD4vQQEBCgvBvgWYAlL9gHBMshpk2bJnFxcQJvhg8//FD+97//qesfnirIq4sZuh0+kwAJkICjEXBIEcHRBon9IQESIAESIIGcEhgwYIDgLinyd+7cWUaNGoVDtR8C1vVjI0X8OkOzZs1UPB70MvAswJpybBqHgHXfehrymduDmzjsYBI1efJkwYQLkyeIFKgT9cAt3Pxc35MBtgoytGrVShDQBrQbeyGgH2g37krD5b127dqqT2CGtH79+omXlxeKMBQgAYzL7NmzlSeMpmny2muvyeuvvy5Dhw4V/FICrn1cs2givA7efPNNgYiA8Wvbtm3quPft21cdP/HEEzJs2DDBPgijR49Wyxf08n5+fuq1hGVB2EMDQgKu63feeUdtooglE7i+8TrAdXTkyBGpWrVqqkcE2sBAAiRAAo5IwNZEBEdkzD6RAAmQAAmQAAmQAAnYIQH8kgm8cLJrOpZHYENTiBLZ5WU6CZAACdg7AQuKCPaOgu0nARIgARIgAecm4OLiopY44G4uAjwLnJsIe+/sBODNAO+U7Dhomqa8I/Aayi4v00mABEjA3gncExHsvRdsPwmQAAmQAAmQAAmQAAmQAAmQAAmQQPYE8piDIkIeAbI4CZAACZAACZAACZAACZAACZAACViDgC3UQRHBFkaBbSABEiABEiABEiABEiABEiABEnBkAg7TN4oIDjOU7AgJkAAJkAAJkAAJkAAJkAAJkIDlCdCiOQGKCOY0eEwCJEACJEACJEACJEACJEACJOA4BNgTixOgiGBxpDRIAiRAAiRAAiRAAiRAAiRAAiSQVwIsb5sEKCLY5riwVSRAAiRAAiRAAiRAAiRAAiRgrwTYbgcmQBHBgQeXXSMBEiABEiABEiABEiABEiCBByPA3CSQNQGKCFnzYSoJkAAJkAAJkAAJkAAJkAAJ2AcBtpIErECAIoIVILMKEiABEiABEiABEiABEiABEsiKANNIwF4IUESwl5FiO0mABEiABEiABEiABEiABGyRANtEAk5FgCKCUw03O0sCJEACJODoBFavXi2nTp1S3bxz545s2bJFHd+9e1e+/vprGThwoEyZMkVu3rwpu3btkgkTJqSGJUuWSGJiosqvP2RkD3lWrFghsI98V65ckX379qmyqA/piMez+TniHCEkJydLUlJStl1Zvny5HDt2LNt8BoNB4uPjs83nzBlwrc2ePTv1WsV1e/DgQZk7d65ER0fnGU1cXJwYjcY826EBeyTANpMACTwoAYoID0qM+UmABEiABEjAhgmcP39eli5dKhANEhIS5MSJE5KSkiILFiyQRo0ayZw5c6R3794yb948CQwMlOHDh0uxYsWkf//+0qdPH/Hw8EjTu4zsYRIdEhIisI/MUVFREhYWJog/fvy4ekZ8+nPE2UqIiYkRtBWcMIGH4HHy5EnV9vDwcLlw4YJgco/2Ig/yogwmmmvXrpWNGzcqxshz+vRpuXXrFrKqgGPEgbuKSPeg14V8SNq/f798++23qaIM4hjSEihSpIi88cYb0r17d6lZs6a6buvXry/PP/+8FC5cWI3FtWvX1Ljhurt06VKaMcE1CnENabCMsYQIERkZKbdv35bPPvtMrl69ql4rN27cUEIc8mK8Mf6Z2Yb4gHRcH3iGbQYrEmBVJEACBULApUBqZaUkQAIkQAIkQAL5QsDHx0fq1q0rq1atSrWPCRTu1mLyhciKFStKoUKFBBMtnGcVMrKXVX57SAsNDZUZM2aoSSbY/PTTTzJmzBjlnbF7927Ztm2bQASYP3++EhKOHj0q7u7uMmvWLLl8+bKabGJyCZFg0aJFqtyyZcvkjz/+UAF3zHHnfP369RnigLCDBAgHf/31l5rEQshAHEPOCWACv3DhQsVvxIgRgrH7888/5a233hIIARi/c+fOKSENXiEYk+nTpwuEMYhofn5+cvbsWYGgACEBNcfGxsqZM2eUoDNz5kzBeVa2Me6TJ09WXjgff/yxuqZghyF7AsxBAiRgvwQoItjv2LHlJEACJEACJHAfAUxGW7ZsKbibjskQMuBuube3dxovA3gfYBKM9KxCRvayym8Pabgj3aNHD2nWrJkEBAQogeC5556Tpk2bqiUehw4dkh07dijvCkxUfX19ZdOmTYJlG5iIenl5Ce6MwxMDk9bNmzcr0QG84cHQs2dPCQoKkg4dOmSIA5PXPXv2KE8IiBiwB7EGNjMswMhsCVStWlXxrlOnjjz66KOKf9myZZXgA08PeAqsW7dOCQiurq7K4+T3339XXg14bXh6egrGBc9YqrJhwwYlDmGMs7KNsevVq5c0aNBAGjZsqDwhxPH/2EMSIAEnJ0ARwckvAHafBEiABEjA8QjgrjncvleuXCmYAGNyCiEBE1b0FhMj3Kn19/fHabYhvT1MtGAXNlEY9nBnHsf2EDRNU3eO9ba6uLiIpmnqFKxeffVVGTVqlFp/j8nn9u3b1XKPxo0bqzz6A8rVqlVL3n//fcHd6GeffVatq8dyBT1P+uewsDD57rvvBHk7d+6cPpnnuSSAsdCLQiTAMa5JLEnAEh3wxtIdLOepUKGCvPfee9KkSROZNm2aQChCfoSFCxeq5RHYO6RkyZKIkqxsow7z8cZrQxWy2Qc2jARIgATyTsAl7yZogQRIgARIgARIwNYIYKLUvHlz5ZqNiU3Xrl1l/PjxamI8cuRIdde9ePHiOW62uT1M0jp27Kg2aBw3bpx88803grpgDEskpk6dqurBHX/zc92NH/kKMqCtmMhjcz7cjTZvS+vWrWXixImq/XBVByN4GGBPCSxrQF4sF8GdarjKlypVSj744APFFunYZ+KLL75Q5xAfkN88QKSAmLN48WK1bAIT1EqVKgnECng0mOflsWUIYLzBG9cqRAJcl1jWgH0tIBQgQGjAkgeMNzwWsEwFXifZtQAiBWyOHj1asMcCxjK7MrlOZ0ESIAESsBECFBFsZCDYDBIgARIgARKwBIEBAwYIJkWwhTvduKOOY+yHgIkT7sbi1xngyo94BL0MPAuw2V9ERIQgYKM4PQ35zO3BbRx2PvzwQ3UXHssCsM8CJuaoE/XAvdv8HG2AnYIOaOukSZPU5nxwfcfShtq1a6tmoV/Y0wDtx7KEypUrK0HhpZdeEpRBPmxQCUEGz88884wSUyDMoGyNGjUEIgLOsVkf+mzOFO7vKPviiy8qsaJFixaCiSc4tW3bVrWBD5kTAH+MF3LgeoPHQIkSJdSvjuDcPL1v377SqlUrtWQF1z6u1X79+kn16tVlyJAhqgzKYzkDxhsbi/7f//2fDBs2TAYNGiQQBrKzDYEOnisfffSREo7QBrQtfeA5CZAACTgSAYoIjjSa7AsJkAAJkAAJkAAJkIAlCWRpC6IBlvtkmYmJJEACJOBgBCgiONiAsjskQAIkQAIkkFsCcK2HOzc8GRAwQcqtLZa7R4BM73EomMf8r7VTp05SrVq1/K+INZAACZCADRGgiGBDg8GmkAAJkAAJkEDOCLgewU/T5Swvc5GAHRJgk+2KwMmTJ1V73QvVPaYO+EACJODQBCgiOPTwsnMkQAIkQAKOSCAh2eX3P/7Ye9cR+8Y+2T8B9sD5COzfv198fYsdL1Z1cYTz9Z49JgHnI0ARwfnGnD0mARIgARKwcwJlGh5dlpSUvG/KlCnJdt4VNt+2CLA1JPDABOCFMHXq1Nt373oPeuDCLEACJGCXBCgi2OWwsdEkQAIkQALOTsC9UkinhQsXH+7du/fNadOmye7duxnMGBw5ckQSExMLhMmSJUsEv1BhzTEZNWqULF682Gr9Rf8QLN3H/aY72nht79mzJ01fUBeCpeujvdy/b/zwww/qlyxM70E3wm9ETSvV8M9dGDsGEiABxydAEcHxx5g9JAESIAEScFAC3lUPNd+5c/8X//3v0mUvvfRyCMM/DCZPnnw8MjIyuiCYjBo1+vjHH39syHHdFhg7U30po0ePOW6tOqdPnx71xRdfXLJ0fe+8885x08s15eWXXzlkbnvu3LlXZsyYEWkex+N/rveCYDFu3IStS5d+/9nNm4aXywSenmEaN/6TAAk4CQGKCE4y0OwmCZAACZCAYxIoE3x6gleVkOcLVTvSguEfBkVqnmhUqmFYQH4zych+eLhbP4PBeDejtPyKM9UXGx7u+kJ+2U9v9y/I2kcAABAASURBVO7dhF03b8d/mj4+r+cYt4BGl30L1zjWxNzWrci7c2Jj438zj+PxP9d7QbDwrBzaxT/o7AelA//a5JjvruwVCZBAZgQoImRGhvEkQAIkQAIkQAKOTIB9IwESIAESIAESyAUBigi5gMYiJEACJEACJEACBUmAdZMACZAACZAACRQUAYoIBUWe9ZIACZAACZCAMxJgn0mABEiABEiABOyaAEUEux4+Np4ESIAESIAErEeANZEACZAACZAACZAARQReAyRAAiRAAiTg+ATYQysSSEmJKidi9LJilaaqjIVM9ZY3HVjl32hMqSmGhPpWqQyVGJIbGI2GWjhkIAESIAESKFgCFBEKlj9rJwESIAESIIFsCDDZHgjsX+22SQ+JiRETTW1208/xfGC1+1pTnMX+TfbWwK4eTIbdEhNvfqyf49kUZ7H/kF99hsOmHkwiSQWDIamrfo7nIxsfamKpCkM3BLSGTT2Y6monYqiqn+M5ZK3PO5aqj3ZIgARIgARyToAiQs5ZMScJkAAJkAAJPBgB5nYaAq5uhb/Wg4uL+xYRLUk/x7OLm89iseCfyd4S2NWDmOoz1fubfo5nseCf5up+Djb1oGnaNU1zPamf49mC1SlTsKkHTXM5barzsn6OZ01zv6Iy8oEESIAESMCqBCgiWBU3KyMBEiABErAXAmwnCTwIgcCOkd/qwdOz4kJT2QT9XH82xVnsX7epP5sMJ3h6Vlion+PZFGexf9gzDyKuRzRX7+XmcXXbnd9jqQoD21/dam5bc/VcaaozxDwOx5aqj3ZIgARIgARyToAiQs5ZMScJkAAJkIB9EGArSaBACbh6+8VomutOazYC9bl4FY21Vp2a5n5Ec/G8bL36vC9qmscxa9XHekiABEiABDInQBEhczZMIQESIAESsDoBVkgC9k+gZvO954K7Jj1lzZ6gvlot9p2xVp1BXe6OCuxwY6W16gvsGPFjUJfYCdaqj/WQAAmQAAlkToAiQuZsmEICJEACJPAgBJiXBEiABEiABEiABEjA4QlQRHD4IWYHSYAESCB7AsxBAiRAAiRAAiRAAiRAAjkhQBEhJ5SYhwRIgARslwBbRgIkQAIkQAIkQAIkQAJWI0ARwWqoWREJkAAJpCfAcxIgAUckcGJn48oHVrv/ZM2+ob7jOx6uaq06Q34tNDZ0fal/W6u+0HUl/y/kV5/h1qqP9ZAACZAACWROgCJC5myYQgIkQAKZE2AKCZAACWRCICUusrDRmNI8k+R8iUZ9hvgon3wxnoFRozGprtGQUC6DpHyJMhrjKhiNibXzxTiNkgAJkAAJPBABiggPhIuZSYAEHIEA+0ACJEACJEACJEACJEACJJA7AhQRcseNpUiABAqGAGslARIgARIgARIgARIgARIoQAIUEQoQPqsmAeciwN6SAAmQgHMQcPX2i9E0153W7C3qc/EqGmutOjXN/Yjm4nnZevV5X9Q0j2PWqo/1kAAJkAAJZE6AIkLmbJhCAiSgE+AzCZAACZBAjgnUbL73XHDXpKdyXMACGVFfrRb7zljAVI5MBHW5Oyqww42VOcpsgUyBHSN+DOoSO8ECpmiCBEiABEggjwQoIuQRIIuTgK0TYPtIgARIgARIgARIgARIgARIwFIEKCJYiiTtkIDlCdAiCZAACZAACZAACZAACZAACdgUAYoINjUcbIzjEGBPSIAESIAESIAESIAESIAESMDxCFBEcLwxZY/ySoDlSYAESIAESCAPBE7sbFz5wGr3n/Jg4oGLor7jOx6u+sAFc1kg5NdCY0PXl/p3Los/cLHQdSX/L+RXn+EPXJAFSIAESIAELE6AIoLFkdJgQRJg3SRAAiRAAiRQ0ARS4iILG40pza3ZDtRniI/ysVadRmNSXaMhoZz16ourYDQm1rZWfayHBEiABEggcwIUETJnwxTrEmBtJEACJEACJEACJEACJEACJEACNk6AIoKND5B9NI+tJAESIAESIAESIAESIAESIAEScAYCFBGcYZSz6iPTSIAESIAESIAELErA1dsvRtNcd1rUaDbGUJ+LV9HYbLJZLFnT3I9oLp6XLWYwG0Oa5n1R0zyOZZONySRAAiRAAlYgQBHBCpDzqwraJQESIAESIAESsD0CNZvvPRfcNekpa7YM9dVqse+MteoM6nJ3VGCHGyutVV9gx4gfg7rETrBWfayHBEiABEggcwIUETJnk58ptE0CJEACJEACJEACJEACJEACJEACdkeAIsIDDxkLkAAJkAAJkAAJkAAJkAAJkAAJkIBzEnAuEcE5x5i9JgESIAESIAESIAESIAESIAESIAGLELAbEcEivaUREiABEiABEiABEshnAmf+7FQ6ZK3Pu/lcTRrzqO/03g7+aSLz8SR0XbFeRzZWeTgfq0hj+sjGSk1D15e06j4TaRrAExIgARIggVQC1hARUivjAQmQAAmQAAmQAAk4OoGEqDP+huS4odbsJ+pLjD5rNRHBkBzTOzE54hFr9dFUV1NDUlR3a9XHekiABEiABDInkI2IkHlBppAACZAACZAACZAACZAACZAACZAACTgKgZz1gyJCzjgxFwmQAAmQAAmQAAmQAAmQAAmQAAnYJgErtooighVhsyoSIAESIAESIAESIAESIAESIAESMCdgb8cUEextxNheEiABEiABEiABmyZQ5/GThxo9YbDa/gSAgfrqPH7qII6tEYK7JvUI6hQ91xp1oY6gTrHTTXX2wTEDCZAACdgQAadsCkUEpxx2dpoESIAESIAESIAESIAESIAEnJkA+55bAhQRckuO5UiABEiABEiABEiABEiABEiABKxPgDUWKAGKCAWKn5WTAAmQAAmQAAmQAAmQAAmQgPMQYE/tnwBFBPsfQ/aABEiABEiABEjAhgic+bNT6ZC1Pu9as0mo7/TeDlbbhyF0XbFeRzZWedhafTyysVLT0PUln7JWfayHBEggQwKMJAFFgCKCwsAHEiABEiABEiABErAMgYSoM/6G5LihlrGWMyuoLzH6rNVEBENyTO/E5IhHcta6vOcy1dXUkBTVPe+WaIEEnJUA+00CliNAEcFyLGmJBEiABEiABEiABEiABEiABCxLgNZIwMYIUESwsQFhc0iABEiABEiABEiABEiABByDAHtBAo5IgCKCI44q+0QCJEACJEACJEACJEACJJAXAixLAiSQCQGKCJmAYTQJkAAJkAAJkAAJ5IZAncdPHmr0hMFq+xOgjaivzuOnDuLYGiG4a1KPoE7Rc61RF+oI6hQ73VRnHxwzkED2BJiDBEggPwlQRMhPurRNAiRAAiRAAiRAAiRAAiSQcwLMSQIkYPMEKCLY/BCxgSRAAiRAAiRAAiRAAiRg+wTYQhIgAecgQBHBOcaZvSQBEiABEiABEiABEiCBzAgwngRIgARyTIAiQo5RMSMJkAAJkAAJkAAJZE/gzJ+dSoes9Xk3+5yWy4H6Tu/tYLV9GELXFet1ZGOVhy3Xg6wtHdlYqWno+pJPZZ3LWVPZbxIgARKwLgGKCNblzdpIgARIgARIgAQcnEBC1Bl/Q3LcUGt2E/UlRp+1mohgSI7pnZgc8Yi1+miqq6khKaq7teqzWj2siARIgATskABFBDscNDaZBEiABEiABEiABEigYAmwdhIgARJwVgIUEZx15NlvEiABEiABEiABEnBOAuw1CZAACZBAHghQRMgDPBYlARIgARIgARIgARKwJgHWRQIkQAIkUNAEKCIU9AiwfhIgARIgARIgAYciUOfxk4caPWGw2v4EgIf66jx+6iCOrRGCuyb1COoUPfeB6spD5qBOsdNNdfbJgwkWJQESIAESsBABiggWAkkzJEACJEACJEACJOCoBNgvEiABEiABEtAJUETQSfCZBEiABEiABEiABByPAHtEAiRAAiRAAhYlQBHBojhpjARIgARIgARIgAQsRYB2SIAESIAESMD2CFBEsL0xYYtIgARIgARIgATsmMCZPzuVDlnr8641uxBiqu/03g5W24chdF2xXkc2VnnYWn08srFS09D1JZ+yVn2shwRIgARIIHMCFBEyZ8MUEiABEiABEiABJySQ1y4nRJ3xNyTHDc2rnQcpj/oSo89aTUQwJMf0TkyOeORB2piXvKa6mhqSorrnxQbLkgAJkAAJWIYARQTLcKQVEiABEiABEiCBgifAFpAACZAACZAACeQzAYoI+QyY5kmABEiABEiABHJCgHlIgARIgARIgATsgQBFBHsYJbaRBEiABEiABGyZANtGAiRAAiRAAiTgNAQoIjjNULOjJEACJEACJHA/AcZYnkCdx08eavSEwWr7E6AHqK/O46cO4tgaIbhrUo+gTtFzrVEX6gjqFDvdVGcfHDOQAAmQAAkULAGKCAXLn7WTAAmQAAmQQG4JsBwJkAAJkAAJkAAJWJ0ARQSrI2eFJEACJEACJEACJEACJEACJEACJGCfBCgi2Oe4sdUkQAIkQAIFRYD1kgAJkAAJkAAJkIATE6CI4MSDz66TAAmQgLMRYH9JwBoEzvzZqXTIWp93rVGXXgfqO723g9X2YQhdV6zXkY1VHtbrz+/nIxsrNQ1dX/Kp/K6H9kmABEiABLInQBEhe0bMQQIkQAIkUPAE2AISsBsCCVFn/A3JcUOt2WDUlxh91moigiE5pndicsQj1uqjqa6mhqSo7taqj/WQAAmQAAlkToAiQuZsmEICJEACJGARAjRCAiRAAiRAAiRAAiTgKAQoIjjKSLIfJEACJJAfBGiTBEiABEiABEiABEiABMwIUEQwg8FDEiABEnAkAuwLCZAACZAACZAACZAACViaAEUESxOlPRIgARLIOwFaIAESsGMCdR4/eajREwar7U8AVKivzuOnDuLYGiG4a1KPoE7Rc61RF+oI6hQ73VRnHxwzkAAJkAAJFCwBiggFy5+1kwAJOBwBdogESIAESIAESIAESIAEHJcARQTHHVv2jARI4EEJMD8JkAAJkAAJkAAJkAAJkECWBCgiZImHiSRAAvZCgO0kARIgARIgARIgARIgARLIfwIUEfKfMWsgARLImgBTSYAESMChCJz5s1PpkLU+71qzU6jv9N4OVtuHIXRdsV5HNlZ52Fp9PLKxUtPQ9SWfslZ9rIcESIAESCBzAhQRMmfDFBIggWwJMAMJkAAJkEB6AglRZ/wNyXFD08fn5znqS4w+azURwZAc0zsxOeKR/OyTuW1TXU0NSVHdzeN4TAIkQAIkUDAEKCIUDHfWSgIFT4AtIAESIAESIAESIAESIAESIIEHJEAR4QGBMTsJ2AIBtoEESIAESIAESIAESIAESIAECoIARYSCoM46nZkA+04CJEACJEACJEACJEACJEACdkuAIoLdDh0bbn0CrJEESIAESIAEsidQ5/GThxo9YbDa/gRoEeqr8/ipgzi2RgjumtQjqFP0XGvUhTqCOsVON9XZB8cMJEACJEACBUuAIkLB8mft1iJVbbriAAAQAElEQVTAekiABEiABEiABEiABEiABEiABPJMgCJCnhHSQH4ToH0SIIEHIWAsJZJc8UFKMC8JkAAJkAAJkAAJkAAJ5JQARYSckmK+3BBgGRIgAWsTMBqqGAxJXa1dLesjARIgARIgARIgARJwDgIUEZxjnHPRSxYhARKwNwKh60r2NLXZQ8RY7MjGyo1Nx/wnARIoAAJn/uxUOmStz7vWrBr1nd7bwWr7MISuK9bryMYqD1urj0c2Vmoaur7kU9aqj/WQAAmQAAlkToAiQuZs7DeFLScBEnBKAinJka+K5nJU09y2JiRc+sApIbDTJGADBBKizvgbkuOGWrMpqC8x+qzVRARDckzvxOSIR6zVR1NdTQ1JUd2tVR/rIQESIAESyJwARYTM2RRICislARIggdwQCFnn95wYUxpo4nJCc/X4zWhM7nB0U/UGwj8SIAESIAESIAESIAESsCABigiWg0lLJEACJFBgBAzJd95wcfP5+O8GpLi4eH4WH3/+/b/P+UQCJEACJEACJEACJEACFiFAEUFh5AMJkAAJ2C+Be14IxoCgTjGz9F4Ur/B/E43G5G7HttetqcfxmQRIgARIgARIgARIgATySsD+RYS8EmB5EiABErBzAoak6GEu7kXGm3ejUoMlUS4unl/FR5+mN4I5GB6TgBUIFC3X86yXVwWrrt9Hfb5lu521QvdUFd7eVUYVLtZohTqxwoOPX/AP3t7VdW8rK9TIKkiABEiABDIjUKAiQmaNYjwJOCOB8IOBHa6G1nwh8njdMQxkkNNr4OyOUstcXFyKV36ofDmU8fB0r+Pj49EOx+UqVEgyGBJ7h4dUmYFzBl5XObkGok3vQeEhdZ4NPxjU2hnfiy3R53K1J8TWbRe2yxK2cmoD9ZWvMyUmp/nzmq922xNHqjf57Upe7eS0fI2m2y/Vbnv0eE7zMx8JkAAJkED+EcitiJB/LaJlEnBCAskXH15aqrjL4m5PPD57wKsvDmUgg5xeA08//X+dXn75JV89f4vmzWq2atH8UZy/Nei1Ac8995wMHvx6f5wz8LrKyTXwquk9qG3bxvMLed5dFnsqeIATviWzyyRAAiRAAiRAAmkJpDmjiJAGB09IwPoEAoxPjXn5pX4dDxw4UPjzzz+Xd955h4EMcnwNzJkzR7788svU/Js2bZLVq1enni9ZsiT1mNcWX1s5vQYWLlwoJ06c8P7kk49ejToR+Jr13xlZIwmQAAmQAAmQgGUIWN4KRQTLM6VFEsgxgWsHqg0vXNiz3xtvvOGd40LMSAIkQAJWIvDvfz9R3VVLGHftYNBjVqrSIaq5fGy4z5GNlZpZszOo79LRoYWtVeexzTXrntrzWFlr1Xdyd8vyxzbXqWWt+ixVz42jbWpfP9SoJQMZ8BrgNZCrayCT94/Icy+WsNT7VG7sUETIDTWWIQELEShatFC9Rx99tJSFzNEMCZAACVicQJMm/yokhriKFjfswAajLi+rEh9/8WdrdhH1RV/5pYq16oyLOzs25vb+J61VX2zkgV5xcadGWKu+vNZz93TDqYlhDc8lx53Yl5J4bR0DGfAacL5rID/HPO7W+guJ5wP/uh7a8PG8vl/lpjxFhNxQYxkSsBABoxgqNWzY0ELWaIYESIAELE+gfv36JqPJ5U0P/CcBEsgBgav7y8W+9FLf/j/+8EPpM2fOyOXLlxnIgNeAfV0DNj9eoaGhsnjxwmr16pf/6tpftZ/LwVuTRbNQRLAoThojARIgARIgARIgARJwVgKGS82HvP3224Z33nnHtWbNmuLl5eWsKNhvEiggAs5RbalSpSQwMFC+mj+/VEDpIhNv/NW4qTV7ThHBmrRZFwmQAAmQAAmQAAmQgMMSSEyMHvzvf/+b368ddoTZsXwlQOMPTKBs2bLy1FPdi3t53bWqNwLf5B54qFiABEiABEiABEiABDInULRcz7NeXhW6Z57D8imoz7dst7OWt5yxRW/vKqMKF2u0IuNUy8f6+AX/4O1d/WPLW7acxWuHWjS4fftWiYoVuYWI5ajSkr0QYDsLjkCjRo3E08u9njVbQBHBmrRZFwmQAAlkQmDFihUyYcIEwU82hoeHS2JiouDnGRH31VdfSWRkpCp58+ZNmTlzprz66qsyb948uXv3bpq8CxYskNjY2DRxsHHixAnR65g1a5ZcunRJdu3apepEOgLsrVq1SlJSUsRoNAp+LvLChQuqXj6QAAnknEC52hNi67YL25XzEnnPifrK15kSk3dLObNQu+2JI9Wb/HYlZ7nznqtG0+2Xarc9ejzvlvLPgovEFYV1LmEABQY7IsCm2jmBIkWKiNFg8LBmNygiWJM26yIBEiCBTAhcuXJF+vfvL127dpXFixdLXFyc3LlzRwYPHixNmjSR//73v0owwES/e/fu8uWXX0rjxo0FogEEBz1vcHCwEh+Sk5NTyw8fPlywNlevo2fPnqqOoKAgQVqxYsVU3a+88opApDh48KASGU6fPi3lypXLpMWMJgESIAESIAESKFgCrJ0ECoYARYSC4c5aSYAESCBDAoULFxZ4AcAbwDyDt7e3mtgXKlRIdFdZCAPR0dESFRWVmhVqNEQFREBIgChw69YtwTHi9ODu7i6urq76qXrWNE06deokO3bsEHgktGvX7r48KiMfSIAESMBEIOrSRJ+rIVVH3bkwoJjptED+bxxtGhQeUuvlAqmclZJAXgiwLAnYMQGKCHY8eGw6CZCA4xC4ffu2vP/++zJ16lR5+umn1Y7eWHIwfvx4WbRokfTt21ctM4DXgN5rDw8PgbhgMBgEPyP21ltvyfLly+U///mPyhITEyOHDh1SAcseIDhMnz5dxo0bJ3369BGUVxnNHvz9/aVo0aKCslWqVDFL4SEJkEBOCVw+NtznyMZKzXKa3xL5UN+lo0MLP6itO1emFYqLmOEVfqhl/dtXfnSPCnulePjhVvVwDFt4xvn1Y08HJCWEaziPONi84c0z7/kWKvXiXe/ifacnav+KxTnyx9za6RpzaZCfynvqqfK3Drepjjik3Tz1TOlrB//VJDLsozTtTB9v3gbYQf6Ik7380Q7UD1toc8TBZoHGlMRUW+ntIB8DCeQHgfQ2Id5/8803cu7cudSkAwcOqGWESNOXJ2LpIJYXwjMQn8VvvvmmbN68WfD5jKWGAwYMkB9//FHwuQ5DsIGAYwR8ln///ffKe3DUqFFy7Ngxga1p06ap5YmzZ89WXojIy0AC+UnAJT+N0zYJkAAJkEDOCEAc+OSTT9SXAN3ToHz58jJixAipXLmy4EsHJvg3btyQhIQEZRQeCPiiAe+DqlWrqr0S3nvvPSlRooRK9/Pzk9atW8ujjz4qvr6+KgwZMkTgYRASEqLyZPTw0EMPSZkyZUTTtIySGUcCJJANgajLy6rEx1/8OZtsFk1GfdFXfnlg5e9u+BcvRV2YOV9LifZPuj61QfytrS9rxthiCdfem3z7dM9y8eFD5xhTbtWWlLPlYq994ZNw7YMxKVqSR1LUj2Nun+oRHHdr8TvJd9aUTIxeNgyT/bhr7zaIiVj74u2THdsl3D3aOTn5ep2YC32HQTxIjtnXz83d93binTU19c5fO9jkX+bxESaBwrwNMZdGlYiL+Hqx4e5fnY0pkZUSrg1759bp/5SKvPDpQqMxyScl+WZfo5ZSOL0d3T6fSSAdgXw5hbcf9hDavXu3sg9vQuwrdPz4ceUJqC85xBJCeBH+8ssv8vzzz6vP7VatWsmGDRukWbNmMnfuXHnyySfFxcVF7W20ZcsW2bp1q/rcx2f/lClTpHbt2mpPpNGjR0uNGjWUNyI+t2H7jTfeEHwnUI3gAwnkIwGKCPkIl6ZJgARIIK8ENE2THj16yLp165TnQNOmTeWDDz5QYsOkSZPUHgoZeRSgXngywLNBv/OBOISOHTsKRISrV6/ilIEESMCJCRhdXBNcPPw/LR341yaj8VYzgzExOCXpVm+jMaVWfMzZ2prmeaBMw8M/lq63d19S7LrqIskNDUk3nhcxVDemRFUCOk+futGa5nI9Pmpt3ZTEG63FpeTOlOTbnSUlrqnBENNZDCk1NVffG0ZjYu2U+MuNfEr1PYpyCK4eVcPM41NSrrcymLUhKeGyr6a5H/Eo9uyPrp7195vqfygl9mR1zcXr91IN/9zp6u7/hWiud9PbgW0GRyNg2/3BcsNr164JlhCeP39e/ExCPgR8tBoiw82bN1UajiH2Q2TA/kdYXli6dGn57bfflCCgf6ZfvHhRcDMBATcSwsLClM0GDRrApFpuqC9LxIbKERERahNmLIlUGfhAAvlIgCJCPsKlaRIgARLIKQG4MJYsWTI1O76MDBw4UPAMD4Rhw4ZJ4cKF1Z2KGTNmqA0RJ0+erDZMRB49r24AcRAPRo0apfLizodeB9JwxyIgIEBl1+PViekBd0WwfMJ0yH8SIAEHJ6AZxKC5uBjuddM13s219KyA4HNvBDS60MnF1SdcJMXrXpqIIcUtWVzcNyO9THDYE55+PTfoaS7uFdaLIeJx0wSmSBH/PgdFXG+7etceWyb4/Kum0Me/7sYzJerufdEkCFyPvjJtNJYpoGypWv+7Zh4vkrYNHj6PXDdqkoy8CKZjbOaimdrljXM9pLej29fT+VzABJygejc3N+U5ePjwYcEGxfXr10/tNZYImi8v7NWrl9ocecyYMeomAT53EYdfX1q8eLHAk2H79u0CkQECwd69e1UcvBZhFL+uBM9DLKHAOW4K/PXXX2ppIzwUEcdAAvlJgCJCftKlbRIgARIgARIgARKwEwJuhWqsT04Of+fagcpzr4ZUf9fV++ELYjCWvBry0Hz93Gg0lL524KHF1w5UnpYQvamy3jXPUu+dFENSNdHcLvj4vx7n5lFqVUrcsc+uHqg8Ozyk1ivhh5o2jjjadKLBEN3ZRTzOuHv6G1E2fXz6NhiSLqYRC1BG86592lRXA1O7vjIkXh2mGQwe6e3o9pGfIW8EWDrnBB5++GH5448/1C8dme8rBK+E1mbLCzVNk3r16gmEgD179qhfX6pUqZK8++67cvbsWYHXAZYvwnMQAd4N8FCAhyEECSx9eOGFF8TT01M1rlq1atK2bVtp1KiR8lBQkXwggXwkQBEhH+HSNAmQAAmQAAmQgPMRKFqu51kvrwrdrdlz1OdbttvZB63TP+j4V6Xq7FabpJSoufJCQKMLPcoEnxsQEHRqaslqM6LKBJ8ZERB0/hX9PCDo7LAywef7mvK8419/+6GAoDMf+VUaHVO0dKfkMsFhLwQEnliINpSqu+eA6bxrQPC5N0x1zPevv3uvqewHpnJDcI48COnj07eheLWvbuh1lKr1v2toS8kai8NNtvuZjl8uE3yhp3/Qydnp7cA2gxCBlQkUL15c1Yi9jfSlBojA5F9fXgiPhFmzZqlliYjD8oRly5apTY+xmXK5cuXUZokNGzaUgIAAFQIDA5WXAYSIMShCmAAAEABJREFUoUOHqrILFy4Uo1FpcWopBLwPubEiaDNYgwBFBGtQZh0kQAIkQAIkQAJOQ6Bc7QmxdduF7bJmh1Ff+TpTYqxZJ+vKTwK0bU8EsEwQywp9fHwEk/z27dsLlihiuSDSMMHXlxdimQN+lQHLCrG30VNPPaV+genDDz9U4sArr7wiLVq0ENjQGeAYAR4I2HwRZbEZc8+ePdVGixAPEMeNFXVifM5vAhQR8psw7ZMACZAACZAACZAACTgPAfaUBEiABBycAEUEBx9gdo8ESIAESIAESIAESCBnBJiLBEiABEggewIUEbJnxBwkkG8EUgwGd+yoi010GM6qzYQy47Bjx44s0zMrx/isuVqLz759+zh+Z21jLB50zG/fvo11t6759kbogIYvHxvuc2RjpWbW7Brqu3R0aGFr1Xlsc826p/Y8VtZa9Z3c3bL8sc11amVRH5NIgARIgASsRIAigpVAsxoSyIhAXGzMQ4MHD5bHHnuMIQsG2Eiod+/eZJQFI1u+hh599FHp1q0bx89Ox2/RokWiGRPbZPQexriMCURdXlYlPv7izxmn5k8s6ou+8kuV/LF+v9W4uLNjY27vf/L+lNzEZF8mNvJAr7i4UyOyz8kcJEACJEAC+U2AIkJ+E6Z9EsiCQOEivqe+//579VM++DkfhrAMWfzyyy9SqlSpDNPILGNmtsRl8uTJ0rx5c45fmO2PVUbXDYROcfHcmMVbGZOcmQD7TgIkQAIk4HQEKCI43ZCzwyRAAiRAAiRAAiQgQgYkQAIkQAIkkBsCFBFyQ41lSIAESIAESIAESKDgCLBmGyRgMNx9CM3q0aOHMNzPAB5pjzzyCNnYyfWBscKY8Vq+/1q2NSb4+dA7d6Ir4f3HWoEigrVIsx4SIAESIAESIAGnIFC0XM+zXl4Vumfc2fyJRX2+ZbudzR/r91v19q4yqnCxRivuT8mfGB+/4B+8vat/nD/WLWPVxaXQeVh6+umnheF+BrVq1ZLy5cuTjZ1cHxirmjVrcrzsYLzatGkjnp6ekXj/sVagiGAt0qyHBEiABEiABEjAvgnksPXlak+IrdsubFcOs1skG+orX2dKjEWM5cBI7bYnjlRv8tuVHGS1SJYaTbdfqt326HGLGMtnI//3f/8nDPczqFOnjlSqVIls7OT6eOihhwRjxmv5/mvZ1phgA3IPD8+ofH5rS2OeIkIaHDwhARIgARIgARJwRALsEwmQAAmQAAmQgGUIUESwDEdaIQGLE1ixYoVMmDBB5syZI+Hh4ZKYmChbtmxRzzExMfLTTz9JdHS0xeulwYwJxMXFidFozDjRLBbj9tdff5nFiMydO1ciIiLSxPFEJCkpSZYtWyafffaZ3LhxI0Mk8fHxYjAYMkxjpNMQYEdJgARIgARIgARsiABFBBsaDDaFBMwJXLlyRfr37y9du3aVxYsXCyaxx48fV8/fffed1K1bV3x9fc2LOOUxxJW7d+/KqVOnJCrqnicXJp6IP3nypCQnJwtEF7BDHCCBJcogDs+Iw0T19OnTcuvWLZyqCS7ynz17VjAWmOhevXpVCTewiUwoizw41kP79u3V2EBwQLlLly7lSHzQyzvTs7u7u2JVtmxZKVmypIDnzZs31ViCcUJCgsyePVswLjhHOHHihBpPcAJjCGwIGFOMIQLyZzSOsI9yDNYk4Jx1XT423OfIxkrNrNl71Hfp6NDC1qrz2OaadU/teaysteo7ubtl+WOb69SyVn2shwRIgARIIHMCFBEyZ8MUErAJAoULF1aT0JSUFDUhxl3tpk2bCja7sYkGFnAj9uzZI0OHDlXiysyZMwWTfnhpjBkzRjAhhZAAZpiATpo0Sa5fvy64+z158mTl1fHxxx+ru+CLFi1S+ZH2xx9/yO7du2Xw4MFy/vx5iY2Nldu3bwv+EA+PEExgly5dKpcvX0Z0alizZo2aBP/888+yatUq1Z59+/alpvMgYwIQAUaMGCHbtm0TiDULFy5UY4oxRAmkwysH3gt4xjivW7dOfvnlF4Gw8NZbb2U7jrDD8AAEmDXXBKIuL6sSH3/x51wbyEVB1Bd95ZcquSiaqyJxcWfHxtze/2SuCueiUGzkgV5xcadG5KIoi5AACZAACViYAEUECwOlORKwFAFMWt9//32ZOnWq2hnXy8tLTVixhOHChQuWqsYh7OCndho0aCDYWAYTStzhfu655wRiy5EjR6RLly5Sr149adGihcD7ACx79eolKNOwYUM5evSo/Pnnn7J582Z11/vMmTOKS8+ePQU73hYrVgy73oqfn5/gJ49wp/vatWtKhKhYsaLKm/4B6d27d5eWLVtKcHBw+mSeZ0CgatWq0qFDB7WRE7w44FXg6ekpxYsXF3h0QBBauXKlXLx4UZ2fO3dOwLhVq1YSFBSkPFGyGsdChQqJs/yxnyRAAiRAAiRAAiSQXwQoIuQXWdolgTwSwMT1k08+Ufsi6BNV7GoMYSE0NFQwOc5jFQ5THG7v6Ay8DXx8fMTFxUU0TUOUetaXHGC5g5ubm/Ls0OOQCRNV/PQU2MJD4dlnn0W0IK86MHvAhBau9/AyaNSokbi6upql/nMIzxHcNf8nhkfZEcC46XkgIMDbQz8H58aNG8vw4cPVHgoQDnTGyIdjTdMkp+Oo27XBZzaJBEjAAQlAGJ02bZr6TIc3G97jIHojoLvwWNu7dy8OGWyAALzf4MWIGzd6c7C3EeL0c2d93rBhg7rBBSE/IwZYUorrO6M0xjkOARfH6Qp7QgLOQQB32fv166dc5bHW3zl6nXUvMaEfO3asYFNDTCLNczdv3lywh8S4cePk0KFDyvsAYsPChQtl9OjRcvDgQalfv76UKlVKPvjgAxk/frzyTDC3gb0nPDw8ZPny5XLnzh2BeIDNE7NaUgIPh4kTJwrq1b8kmtvksQgm/vAcwPKRyMjI+5B4e3tLQECAfP/99wJxCPscQESYMmWK8kaAlwe+0M2aNUuNIzxFshrH+yqweAQNkgAJkEDGBCBi4yfz8DkDzyqIBtjPBQHecPgscmavNUzaMWGHtyBEfrzfg5M+GQU/7H2Ez28QxvcfMNM/O5Af5/reN3iGLeRDfpQLCwtT+xqhLsTBNjwLURbn5gEei88//7wUKVJELSVF3WiDeR5nPcZ1is/kypUrq2WH5qxxU8d8L6OMGIM3xhZ5MS7giNcBvGyRHwFCBOKwBBXpDLZHgCKC7Y0JW0QCisCAAQPUZnPqxPQAV+yBAwcKnjGxwhcR7JdgSnL6/6efflpGjRol2BOhdOnSguUNtWvXVlzACnshfPjhhyoPmMHz4NVXX5WPPvpIiQb4MHzmmWcEk9ORI0cqd3rc6UaAEQgImLz26dNHfaFAHCaw8EqAqIC7Ewj4MvPUU08J6kZZfJCiXdiUEd4LKMfwDwF4F/Tt21fg/YHNFfXrG6ywpwWudYzT66+/LuXKlVN7VOAXS7AHRoUKFSQwMFCN3xtvvKGWq8BeVuP4T80ZHDGKBCxIoGi5nme9vCp0t6DJbE2hPt+y3c5mm9FCGby9q4wqXKzRCguZy9aMj1/wD97e1T/ONqONZ4DHFQRSffJ0+PBh2bRpk+C9MCPvNxvvjsWah/2Ipk+frjbYxXv6zp071d5Eq1evVvve6CI+8mCvonnz5qklhtgfB+IB9sfBhB9p8E6DMIObLhCZsQQOn++4cw5ResaMGUrETr8XknlnIDQsNN1swOc69k7C/kdY8pjZLwmZl3WmY4wbPsNxXYM1Jv76Xka4UZCecUhIiHzxxRdqDyPsZQRxZteuXWo/JAg68+fPV/tTDRo0SLZu3arGyZl42lNfKSLY02ixrSRAAvcRwN0ChPsSsojA5BRfLrLIkmkSPuzwofjoo49mmocJ1iEAz5L33ntPhg0bJuXLlxcsAbJOzayFBLImUK72hNi67cJ2ZZ3Lsqmor3ydKTGWtZq5tdptTxyp3uS3K5nnsGxKjabbL9Vue/S4Za1a1xomuhBLMcnF8izUjrvluNuKDXxx7qwBn+PYq6hWrVrKY7Bt27ZKHMYeRfv371f7GWEzXYgEEIwhwvz+++9qk2mI0IiHcIC9dcAQHoQQZ7CMBHe9ITDgcxv76OCzAvtOwRMOwgAmr6gH5dIHeDKUKFFCULZbt25pbu6kz+uM5/q41ahRQ+0dBdEFN2r0myzpGYM1OGIfo3bt2ilk27dvV56iO3bsEHiLwAsB3py4HnAjSGXig80RoIhgc0PCBpEACTwIAXwRQ3iQMp06dZJq1ao9SJHUvM2aNRMsndA/2PDFBHfOEfz8/NQeDKmZeZAdgTylYxkK7oAgwANE0+7tg5EnoyxMAiRAAvlEAJMn/LoMJke61wE28IX33Ndff63c5vOpaps3izvZmnbvPRzHeoMhFsAbEHsVwSMQ/OCJBgG5SZMmgn0mcGPgo48+UpvwIh2iAyam/fv3F/37AfYogps8AkQc1AHBIv1eSHq95s96WfM4Ht8jAI6adm/cwBbeB/dSRO1PlZ4x2GO5CvLoefE9Cl6H8NyEtyE8dSAUaZqGbAw2SoAigo0ODJtFAiRAArZNgK0jARIgARKwBAEszYIwvW3bNkuYczgb2Nto8eLFao8hLDGACzyWNWzcuFF5BuD8008/FQgHEBjgOQDPggULFqg9jooWLSoIcLdHwN4G8EbIyR46+s0BLHVEHc7uMYKL68CBA+oXrbDEA+fmAZ4JuJaxbARiQXrGEH6wT9WXX36plvGgbOvWrQV7SEFAwPIIxDHYPgGKCLY/RmwhCZAACViWAK2RAAnkK4HLx4b7HNlYqVm+VpLOOOq7dHRo4XTR+XZ6bHPNuqf2PFY23ypIZ/jk7pblj22uUytdtN2cYq8ceByYNxh75yBomibYz6VNmzbmyU51DDZgBK8CLPnAM86xBw4mpRANsLdRv379pHr16jJkyBBBPgS4vr/99tsC7wR4dmDDP0xIX3rpJcGeSHXq1JEXX3xRkAf7TUFQ0LR7zLFXAgQC3DHHhn/Y3wgB8GEbd8kHDx6cOslFe5DmzKF9+/YCgQZ7FenjBh5ggzGDVwH2MipTpoy6rnXGGAf82hjGBHlatGihfuEK8dhDCp4mGD94dmKcYJPBdglQRLDdsWHLSIAESOA+AowgARKwfQJRl5dViY+/+LM1W4r6oq/8UsVadcbFnR0bc3v/k9aqLzbyQK+4uFMjrFUf63EsAkuWLFGbK2P5A/ZbcKze2U9vsMklxIIRI0aoTTSrVLHaW5bwz7IEKCJYlietkQAJkEBmBBhPAiRAAiRAAiRQAATw60rYzwgeDTVr1ryvBVjbj80AcRccAZ4Q92ViRJ4JYLkJvETwixevvfaa6HuD5NkwDVidAEUEqyNnhSRAAvZHgC0mARIgARIgARIgARIgARIAAYoIoMBAAiTguATYMxIgARIgARIgARIgARIgAYsRoIhgMZQ0RAIkYGkCtEcCJEAC9kigaP8JydsAABAASURBVLmeZ728KnS3ZttRn2/ZbmetVae3d5VRhYs1WmGt+nz8gn/w9q7+sbXqYz0kQAIkQAKZE6CIkDkbppAACeSeAEuSAAmQgNMSKFd7QmzddmG7rAkA9ZWvMyXGWnXWbnviSPUmv12xVn01mm6/VLvt0ePWqo/1kAAJkAAJZE6AIkLmbJhCAk5KgN0mARIgARIgARIgARIgARIggYwJUETImAtjScA+CbDVJEACJEACJEACBUIg8valBnFxcQVSNyslARIgAWsSoIhgTdqsiwSyIMAkEiABEiABxyBw+dhwnyMbKzWzZm9Q36WjQwtbs05r1nVyd8vyxzbXqWXNOnNa118byrbcv9pt3Z2o65OTk5NzWoz5SIAESMBuCVBEsNuhY8NtiACbQgIkQAIkQAKpBKIuL6sSH3/x59QIKxygvugrv1SxQlWqiiMbqwbvX+Xy19UTHxVSEfn8EBt5oFdc3KkR+VzNA5nXxYPkhKvrXDTPbRUeCu5YpEiRB7LBzCRAAiRgjwQoItjjqLHNFiRgu6ZWrFghEyZMUGHXrl2yZcsWuXPnjuAuB9LCw8Ntt/FWbNm2bdsE4UGrjI+PF4PBcF8xsP3rr7/SxM+dO1ciIiLSxPEk7wSSkpJk2bJl8tlnn8mNGzcyNJjZOGWYmZEkQAJWI1C33ZkDmuZ6/trpCbNP7+3gb7WKbaCi9OJBoyeMPkFdYifYQNPYBBIgARKwCgGKCFbBzEryhYCDG71y5Yr0799fhg8fLs2aNZMTJ04I1lr+8ssvUqpUKfH3d6rvbFmONoSVU6dOya1bt1LzxcTEyPHjxyUxMVHFIQ8YXrp0SXGcPXu2nD59WokyKsPfD+3bt5e6deuK0WgUjAHy4/jvZD5ZkIC7u7tiXbZsWSlZsqTcvXtXbt68KRhLjFdCQoKYjxPiMIYYWzQD4wIxDQGvDYhCCBhX/VqAUIFr4OzZs8o+yjGQAAlYhkBA9ZHPiIvb4ajwjXtO7m5RwdwqzuHibx5CNwQ8ap4H4oN5Oo5D15dpZ57nfEivYog3JMe9ZDSmtMJx6PpS/zbPc+3URG/Em4fQdSV7mufBsXk6jkPW+T2HePNwYLX7GqTpIWRd0RfN0/evcjkNzwMxGmqK5vqHwZjwuCnvFoTLFw7OwHuYeX4ekwAJkIAjEqCI4Iijagd9YhMfnAAmTN99950UL15ciQoPbsFxSyxfvlzA5+uvv5awsDAluMB7AJPOSZMmydWrV2XOnDlKULh+/boSGzL7ordmzRo1if35559l1apVgsnnvn37HBeejfQMIsCIESOUVwnGa+HChUrs0ccJ6RhDiAJ4xrisW7dOIKpBWHjrrbeUN8OiRYuUEAEPhz/++EN2794tgwcPlvPnzwv/SIAELEsgoObou0GdYqf7V32nfo2mOy6aWy9SvN1NN4/SH5uHIsWDj6bJU6JjlHk6jgsXa3jQPM9DQT/cRryLi/sWTXM5hmOfovXSvCmXqT4sDvHmoVDR2nvM7eDYPB3HhXxrb0e8eXD1CJjoZtbuQkVq/mae7uLitVTTtDMixtKaaFdd3Yp8oQdP7yIrCxWyyuoO8ybxmARIgASsToAigtWR232F7ICVCERHR8usWbPUcgZMkiIjI9Uk6dy5c2rCbKVm2EU1PXr0kBo1akiZMmXk8uXLcvDgQenSpYvUq1dPWrRooUSBihUrKlGgRIkSUqxYMfH09FSCjJubW4Z9vHbtmnTv3l1atmwpwcHBGeZhpGUJVK1aVTp06CB16tRRXiDwKtDHCR4hJ0+elJUrV8rFixcF53gtYIxatWolQUFBEhUVJX/++ads3rxZeZmcOWP6ni8iPXv2lDZt2gi/3Jtg8N8qBIqW63nWy6tCd6tU9nclqM+3bLezf59a9al8nSkx6SuEwNCw/ZXt5qHqw7/eMM/nX/XtePN0HFdrvP6+tXqI9yne+BNv7xqDcVy9yW9XzO3gGPHmoUbT7ZcQbx7M03Fcs9nuMPN0HDdsfyFNm2s233sO8XoI6nJ3THBXQwNXj5LwYvBLSYr8rzElsVpgx9s/lCxV+Tdvb2/J6A+ebdOmTVOf6fCwgseVLlDjGO9bKSkpGRVlXA4I4MbBgy473Lt3r6xfvz6NddyUOHbsWJo4nqQlsGHDBpk6dargMzhtyr0zLkO8x8HRHykiOPoIp+kfT+yJgK+vr7z55ptqOUPNmjXVxHfQoEGqC7/9lubGiIpz5gddCIA3ArwPTHeJlNcBmGBiifRu3boJ7lbDmwOiDNKyCvgyh7veWeVhmmUJuLj885EEAQHjqdfg6uoqjRs3Vq8H7KEA4UAfI+TDMca9Vq1a8v7778vkyZPl2WefVcUx/uqADyRgJQLlak+IrdsubJeVqlPVoL6MJvMq0QEeIArUbnv0uK10JbDDjZ+DuyZ1cfUo1ctgTGizf5UWG37lBISFDJuIz6KHHnpIvYe98cYbaikdPOfgeYVJ2b/+9S/B+1yGhZ0gEp/d+GyGQIz3fwTzpWlYloYlbxBc9OVqeO+HOIMyONYxYYnbhQsX1L5HsINJLeLgiajnwXNgYKA89thjOFQeiqgPnyUqgg+ZEsCNFR8fH6lcubLASxDjguWjWGqYfhki+IOrPmYwimOMGfJi3BGH8cnJmCEvg20Q+Ocbm220h63IjADjScBEAJOs3r17C9RzfPEwRfE/AwLNmzcXiAXjxo2TQ4cOKS+F+fPnyw8//CD4kCtXrpwEBATI999/L/jgysCENGzYUCZOnCiwgS82GeVhXN4I4MsaPAew7ACeNumt4Y6ePk74woIvHtgjZMqUKcobAV4iuPsEjx14n/j5+an9Qj744AMZP368HD2axnM6vXmekwAJkECeCQR2uP5ro67Jj7t6+v87OTmhYUbvZZlVAs+5RYsWyfPPPy+FCzvsr3Nm1v3UeHwWYJkahAJM9LGJNLhgOZu+NG3Pnj0ydOhQ5YmpL13MaNkhNqLGZsuYuOJzHzZwA2br1q2CelIrNR3AJgI+g+AdgnrTeyaYsvE/CwIYH4j2+H6Kz2J8pwJzFAHv9OMYEhIiX3zxhfKsxY0diEIPMmawy2AbBCgiWGEcWAUJ5IbAgAED1GZzeln9HF80MEnC5EpPc+Zn3JFGAIO+ffsKjsEGeyF8+OGHMmrUKMXxlVdekRdeeEGJAqVLl5ZXX31VXn/9deXiDhdIBHz5e+qpp6R27drKDr5UoDzufGPjP9TBYDkCuOuGMcMXEGyuOHDgQDUeYD1mzBh1rI8ThB/sbYBfLMEXyQoVKgjuIkEswF09LF2BvWeeeUYgMowcOVIti8D1gGC5VtMSCZAACdxPILD9tc3lKjYY6mcSM+9PvRcDL0K8hy1ZskTg6YYJFMTR27dv38vgpI947zZfcgg2EJixxANigL40Lf3SxYyWHW7fvl3dPNixY4faIwleCLgp0KtXL3XzICPEuAOOZW9YFocldRnlYVzGBLy8vARssaQUyw/xPQrP2L8Lokz6ccR4wjMUrNu1u7eHam7GLOPWMNaaBCgiZE2bqSRAAiRAAjZKAF4m7733ngwbNkzKly+vlvzYaFPZLCcjcPnYcJ8jGys1s2a3Ud+lo0Md9nb2yd0tyx/bXKeWNZlauq7HHntMLWfo06eP4NdpWrduLbhLjjvr8JKzdH32ZA8TS9yZhhchJppZLU3D0gW4weNONwQH834WKVJE3STADQAINvBog0iB5W7m+cyPYQ9eEOZxPM4ZAXgg6GyxdAFjopdEWvpxNGet583NmOl18LngCDiwiFBwUFkzCZCA/RDAhxfufCPgDpL+YWg/PXDeltavX1/tfQBPBniQcOyc91qwtZ5HXV5WJT7+4s/WbBfqi77ySxVr1mnNumIjD/SKizs1wpp1WqMueFXBWwq/BoQJljXqtLU64C2ApQf6kkOstcdPWcPrEt5mmS1Ng4fBxHTLDiHMIA4CAlztc9LXwMBA5WKPunBXPCdlnDnPgQMH1CbGWI6TngM8E+ANiuWiEGbSj2OTJk3UctMvv/xSNm3apIrnZsxUQT4UKAHbFBEKFAkrJwESIAESIAESIAESIAHLEcAyObjj6xbNz/HrMViK5axCKCae5ksO/f39BTwyW5qGZXAQXhDSLzvEr/sgDvvnYIkCbhBgOSi4YwNALF1EwDIS/HoTbMAVH+v0sQwOyxcxNsjPkDGB9u3by4IFCwTLDHFN67yw1BDH+jJE/GJW+nHEshUsN0Ue8IeXSFZjlnELGGsLBCwuIthCp9gGEiABEiABEiABEiABEiABEiAB2yGAn2iGwDNixAiBqFOlisM6T4mj/5mLCI7eV/aPBEiABEiABEiABEiABEjACQkUKlRIbbQM7wRs/Ic1+8I/qxLA8h0sNfn444/ltddeE/4Es1XxZ1RZruMoIuQaHQuSAAmQAAmQAAmQwP0EPItWDXdx855yf0r+xaA+D98q4flXQ8Fa9nArudvFvahV95ko2B6zdhIgARLIikDBplFEKFj+rJ0ESIAESIAESMDBCFR9ZO31oE6xU63ZLdRXrfF6hxUR6rYL2x3YIeInazJlXSRAAiSQLwQcwChFBAcYRHaBBEiABEiABEiABEiABEiABEggfwnQ+j0CFBHuceAjCZAACZAACZAACZAACZAACZCAYxJgryxIgCKCBWHSFAmQAAmQAAmQAAmQAAmQAAmQgCUJ0JatEaCIYGsjwvaQAAmQAAmQAAnYNYGjm2rU37/Kxar7E6C+o5uqN7BrcFk0PmStz5ADq92XZJGFSSRAArZIgG1ySAIUERxyWNkpEiABEiABEiABEiABEiABEsg9AZYkgcwIUETIjAzjSYAESIAESIAESIAESIAESMD+CLDFJJCvBCgi5CteGieB3BNYvXq1nDp1Shm4c+eObNmyRR3fvXtXvv76axk4cKBMmTJFbt68Kbt27ZIJEyakhiVLlkhiYqLKjwcc//jjj3L9+nWcypUrV2Tfvn0CuytWrEjNe+LECUHQ01Vm0wPKo348m075TwIWIXDr1i3ZsGGDGI1GZe/cuXPqulQnOXxYvny5HDt2LIe572U7ePCgHD9+XJ3gesdrDSdoB67zN998U1atWqXahdfX5MmTZeTIker1c/LkSQkNDUV2BhIgARIgARLIBwI0SQK2T4Aigu2PEVvopATOnz8vS5cuFYgGCQkJanKfkpIiCxYskEaNGsmcOXOkd+/eMm/ePAkMDJThw4dLsWLFpH///tKnTx/x8PBIJZecnKwmWsuWLRPYiIqKkrCwMIHdkJAQQToyh4eHC4KejjgEpGPShWec21KAsAFGEFwwKUXbMBm8ceOGEmHQZoPBIDExMXLp0iUloKAM+o845EdAvy9cuCDIi3OG/CdQuHBhOXLkiNy+fVtVtn37dvHx8VGiFibr+njGx8enxmE8MW64HjHuKIjrGOeIxznGEGOtj2dSUpIqf/bsWcF1sXPnTqmyfGyfAAAQAElEQVRcubLs3btX1qxZI4hHuatXr6rX2dSpUyU2NlYOHTok69atk86dOyvRDq+f8uXLy2+//SZ621COgQTSE/AsWjXcxc17Svr4/DxHfR6+Vay6D0N+9ie9bQ+3krtd3Iv+nD6e5yRgUwTYGBJwEgIUEZxkoNlN+yOAyVTdunXVHVG99ZjcR0dHS82aNVVUxYoVpVChQmpyrCKyeMDkx8vLSzCByiKb3SXt2bNHhg4dqu4aw0MD4gAmgGfOnFGeFjNnzlQTR9xdxmQRd51xVxksZ8yYIZGRkcqTY9u2bXL69GmZP3++smV3IOywwRC66tSpI4cPH1bjEBERIVWqVFETeXTn22+/FXgN/PTTTzJmzBjldfPXX38Jxg2TeIwhhIRffvlFXFxcZNasWYI42IEoBCECQtzu3btl8ODBAmEO10XRokXF09NTGjdurAQ3d3d3wR88dUqVKqUEOLy2ICLAE6Fs2bJKoMO1AkGjQoUKAoECZRhIICMCVR9Zez2oU+zUjNLyKw71VWu83mFFhLrtwnYHdoj4Kb/40S4JkAAJkEDOCVBEyDkr5iQBqxLAZKVly5bKMwATH1SOO6ze3t5qkoNzBHgfwLsAx1kF2OvatatgQqXf+c0qvz2l9ejRQ2rUqCFlypSRy5cvCyaFuPsMV3lMAuF5EBwcLOBZq1Yt6dixozRo0EAJMJg44g44Jow7duxQHhpxcXH21H27bmv9+vWViHD06FF56KGH1OTez89PIA7BuwATd4znc889J02bNlVeAxjvZs2aSUBAgHiZhLFevXqp8YcwAPEAAhyeIZjBuwCAevbsKW3atFEeCRDUEJc+QJBwdXVV0W5ubspDB14OECgQj4DXYOnSpQVinsrIBxIgARLIAQEsE5w2bZpadjh79mzlKYdlhSgKT7rNmzcrT0GcM2RNYO/evbJ+/XrzTKnHWaWlZjI7wOc9vBfNotQhlnpCtFYnfz/MnTtXIFL/feq0T/huBY89LEHMCAK+b+KzMqM0xjkOAYoIjjOW7IkDEsDkqXv37rJy5Urx9fWVIkWKKHd73G1FdzHBgXu2v78/TrMNcB9v3769+vDVxQjE6QXxYYrJk35uL896m/FFAO7uCxcuFPQL+0aULFlSdQMTQE3T1LGeHx9yEGDA9dVXX5VRo0apL3jw7lAZ+ZDvBHDtYhywF0FQUJAScb777jt59tln1TICNACTeE27N3aapikhAPEI5mmwgy8vn3/+uUCcePnll5VQhHz6mOMY1wie0wdcK9gnBPEQ2qpXr66WV8CzBXYhWECgyKw8yjGQAAmQQEYE8LkNoRRLD9944w0lUoaFhQmETkzK/vWvfwk+pzIq69hx93qH91gI/vAgw3sshGB4fOF9HTkQB7EF33kaNmwojz32mPosgPiLePBFPizvRBqOEYc0lMX3A+TFjQU9Du/zn332mRoDvR6UQ8B3JXiDohwEICyRwzHSnD3gpgw+CytXriz43giuEP2xpBDfSyGSwbMT3MEVx/Ae1LnhGDyRF3kQbz7eKIPrAXG40YN0BtsjQBHB9saELSKBNATgOt28eXOBNwLutMKbYPz48WqyC7d83J0tXrx4mjJZneADFnfsoaZDmHj44Ydl7NixKmCDRtyhR3ms+8ZmjfgwwAcD3vChPCMOm9Ehj60GuJ9jLfuiRYvUkobs2tm6dWuZOHGiYop179nlZ7rlCOBLM645fAnBEgIIOvjit3jxYsESE4gE5rXhtQCRAdfh77//bp6kjiEW4LqG8PbNN98IPFJUwt8PeD1hWcvfp2mesJQCng8Qk+DFgHbh2vj0009l3LhxSpiA+IbXApY9pCnMExIgARIwEcAEyPSUo394zuFz6vnnn1fCd44K2VImC7bFfNkaPCbx/o/JJ5YY4n0Z33tw5xuTyj/++EN5q8FjDcsZMZHF0kW8tyMOAd9TsPEuhOHp06erpW4jRoxQnysQbnCzAQIxhISMuoH9ciA2/Pzzz2pZKWzrniMZ5XfWOHxnwubD+KzGkkJM/CHUgAdu0uD6xjnyYdywD9cXX3yhlpm+9dZbyiMH3z3Nxxv5Bw0aJFu3bqV3DkDaaHCx0XaxWSTg9AQGDBgguDMKENjYDRMbHGM/BHwg4m4Gfp0Bbt2IR9DLQNmF0guhAAETK9yVxx12TdME+fr27Ysi0to0gZ40aZK6C//RRx+pLzK1a9cWiAeoA3dM4L6NSRvagDi0QRW2gYdWrVoJApqCPuH4iSeekGHDhgk+hEaPHi2YOKLPyIN0BBzjywf6inX5en/h9o40BusRwHjg+oKgAEEMXxZffPFFJey0aNFCsHwB44QWYQkDrldch48++miaNIwnxvK1116T119/Xe2VMWTIEHV9oA6Uh1CBu134ooNzvMb0awOvE+ydoYtq8GaBPbzOELAcAq8rfOmE4IDyDCSQEYGjm2rU37/Kxar7E6C+o5uqN8ioPY4QF7q+dOf9q1332GpfQn71GX7x/IF1mLRm1kZdnMcvKEHgxCRVf0/JrEx+xduaXXhe6svWMKk0X2II8QDvxbp3gHnb8fmgC74QDvS0/fv3C+6O44bC+fPn1Q2FqlWrSocOHQS24F0gpj/cnMESOkyCTaf3/V+7dk3gEYrlkLgDf18GJ4+Ah575kkIIPmCKz3K8Fv7880/BUh0IQrgZhudu3boJPA/btWun6KVfUgovBHibwC4+81UmPtgcAYoINjckbBAJkAAJkEB+EYBQgWUO8HjITR34wgTRAV+SclOeZUiABHJHoFTFl38Xo6FG2ME+RXNnIX9KQTzYv0qLNRgTWhUpWvo9bNyaWU1ws4cAil9QwqQZIj7EbmwKDI+/zMqli3fIU0ziNe3esjW8P5svMYTrPCaWGXUcLvGIx80T5MMxAjbuxbI48MavWZUoUUJtwIs0BHiM5GR5Au6mQ/BBGYb7CZiPG5iCl54LadiH6v333xd4K2A8wBxCPvLoedOPNzz+8FmtafeuB+RlsD0CFBFsb0zYIhLIMwHcUYUKjLusCPgwzbNRGiABByGA1wO8cnLTHZRD+dyUZRkSIIHcEyhXe0Ksprntirjw7U9n9z9xb7Ob3JvLc0lz8cDNM6Bjo67JHf2KlT+YteH7U+EpB0+pVatWCSZY9+dwvhiIK+ZLDOH5hTvcY8aMESxDMJ/Ugxu8x7ARIiasOi0sfcOyOCxFQxldbNDT8YzJK97P9WUPiEsfcEccbYEdc0+H9Pmc6fzAgQMCDwMsx0nfbwjt8B74/vvv1Z4VWPr3wQcfCDwMsYFykyZNBEsSv/zyS9m0aZMqnn68VSQfbJ4ARQSbHyI2kARIgARIgARIgARIwLfUoy9rol2OvrmvXnoapkn9CPNwZONDTbLL89eGsi3vy7PWZ5i5ndANAY+pPH8/HFjtvkZ5HhjiXhQX9x9dNI99hqTIDiG/FhoffuXYS3Dh/jtrmicsyYLrvR5pfo6lUs8884xomqYnO90z2IAJOo7lBuZLDHFjBEvNICL069dP2rZtq5apIe/TTz+tlmNiTwQsvYQgg4CJLJZ+fvjhh4IyxYoVE31ZJ26uwBaWMcBTAZ4hsIXlnwgQLJ566ilBe2ALbcFyTmzCiLLI68wBy0oWLFgg5cqVu29JIZjBiwRLCrH/Fq5rLAfEHl4YVywpxJJE5MFyRXgcIB6MMRY9e/ZUS3nh8efMjO2h7xQR7GGU2EYSIAESIAESIAG7IeBZtGq4i5v3FGs2GPV5+Fax6j4M1uwf6qr2r03Xgrsm9Q1sf3UrzrMOxtQZedb5HizVaDR6mEokm4KrGI2FRAxF9GAQYyG4dJvS+G8FArjrjWCFqliFhQhcvHhRIBZgk0tsqAwvEwuZphkrE6CIYGXgrI4ESIAESIAESMCxCVR9ZO31oE6xU63ZS9RXrfF6RxMRcowwqEvsx+ahbruw3ekLm6fjuGH7K9vvy9MpdiLS9GASLH4zz9PoieTHfUu1ru3i4rVYjCktDMbkmi7uxZcFdYl/K6Bsnc+y2hPB3A6P806gcePGgpB3SyJY2gAvAwR4KGiaZgmztJGOAJbvYCPljz/+WLAJspubW7ocPLUXAhQR7GWk2E4SIAESIAESIAESsBsCjtvQ6k1+uxLU5e7o4uW613PR3EKTE67+sn+127rI25cc9tcxHHc02TMSIIHcEKCIkBtqLEMCJEACJEACJEACjkqA/coRgcrBy28FdYn/oGyNMRVcNI89d6KufxIdHZ2jssxEAiRAAvZMgCKCPY8e204CJEACJEACJEACZgR4aH0CATVH3w3qcndM+YeCOxcuXNj6DWCNJEACJGBlAhQRrAyc1ZEACZAACZAACTg2gaObatTfv8rlQfcnyBMU1Hd0U3W60+eJYt4KayJGFxd+tc4bRZYmARKwBwJ8p7OHUWIbSYAESIAESIAEbJgAm0YCJEACJEACzkOAIoLzjDV7SgIkQAIkQAIkkJ4Az0mABEiABEiABB6IAEWEB8LFzCRAAiRAAiRAArZCwHbbYdRMbTOYAv9JgARIgARIwOEIUERwuCFlh0iABEiABEjA5gk4dAPdCpWKdHHx+NGanXRxK/Sxh28Vq+7DYM3+sS4SIAESIAHbIUARwXbGgi0hARLII4Hly5fLsWPH8mTl1q1bMnfuXElKSrrPjsFgkPj4eBW/d+9eWb9+vTq2p4fY2Fj55JNPBM8F3e4rV67ItGnTZMKECSrgGHHZtSsuLk6MRmN22ZiebwRoODsCNZrtuhDUJf7N7PJZMj2oU8ysao3XU0SwJFTaIgESIAESyJAARYQMsTCSBEjAnghg4n/69GlJSUlJbXZ4eLhcuHBBMPFHJPIcPHhQ7t69i1OJiYmR48ePq3MIBomJiXL27Fnx8PCQ559/XlxdXVUeTGovXbqkJq379++Xb7/9Vu7cuSOBgYHy2GOPpbEFG4jAJBf1wD7qQVx+BtQVFRUlhw4dkoSEBLlx44aEhYUpHphsgwXEleTk5DTNQF5dTEA/0X+dIWzs27cvX8WGsmXLyjvvvCMtWrRQAceIQ3sxdmgLfnMd7cY4RkZGys2bN+Wzzz6Tq1evpo5tmk7xJGsCTLVpAtcOBj12LbRur5hbO13vXJlWyKYby8aRAAmQAAk4LQGKCE479PbR8ZB1fn1CfvUZkRpM5+lbHrqu2NOp6ci7ruiL9+cp2TNdnlfvy7O+1JNp8qz1ff3+PKW7pM1T+K378/i3T5vH59378mwIeAx5wsOvlfn6669l7Nix6bPI1q1bZcyYMWlC+kw7d+5Mkz7GlD99HtwxR7x5SD+xDQkJuc8OJmzmtjBBNbeBY0w0zfNg0ox484DJqXmeM2fO3FcXJrzmeXBubuPLL78UfYKu54Nd5HnllVekR48eMnXqVPnhhx9U8q5du2Tbtm2CSfCTTz4pAwYMkBdeeEEWLFggGzZskNDQUJkxY4ZAWLh48aL0799fmjdvLh997xxnAwAAEABJREFU9JGMGjVKxo8fr9LefPNNgTixatUqefbZZ2XWrFkCb4eJEyfKf//7X9mzZ4+cOHFCeS5gotuhQwcZOnSo/Oc//5HOnTurelAGE3z5+w9tNg8Y57+TUp9wPZjn2bRpU2qafoB26MeLFi1S7ca49u7dW3777Td1/fz4449KCMG4oA2wi3aiHPo9evRoNRHfsmWLbNy4UYkq4AJuEEuKFi0qp06dEvxBqNDb9P333yMqTZg3b16acV26dGmadJyAmW4DzzhHvHkA/0GDBsmHH34o3bp1k0mTJgn6AU4YUwg0GF94LWC8YGfOnDnmJtQx+CBNDzNnzlTx5g8rV65M02bYNE/H8Zo1a9LkQXsQbx7ATq8Hz+PGjTNPVsdoP9LMg0owe9ixY0eaupDXLFlw/Mcff9yXRxeCkI5w4MCB+/Lk5PUcERGB4qkBwhPagNfMrYjwlnjPOv3H42VSM5gOju94uCrizcPJ3S0qmJJS/0/ualbRPB3HJ3Y8UiU1g+ng1J7HyiLePBzfXq+6KSn1/8y+LqXM03F8bHOtOqkZTAdhoc/4Id48HN1UvaEpKfX/0tEBhc3TcXxkY5VGqRlMB+FnZngh3jwc2fhQE1NSmn/z9JBfC30YstY3Q++DuIgZXghJCeFazKVBfhAJbl/50f3mmfd8IRYgLfxQy/oeRR7dV7T8yytjLw1qERP+xesRp98uigpvn3qq/K3DbaqjHM5vnnqm9LWD/2oSGfZRYZwzkAAJkAAJkIA1CVBEsCZt1pUbAul9ltOf59Rm+nLpzzOyk5M8GZTT0pdLf55BmdxFaRr27spdWfNSmpa9HU27P4+m3R9nbjejY027v4ympY3TtLTnGdnR4zA5rlOnjpQpU0YJAYjfvn27uisPAQWTJ29vb8EzRI+KFSuqiTGEh2bNmom/vz+KCGxUrlxZ3NzcRNPu1R8cHCwtW7ZUgsDt27eVd4K7u7vyVlCFTA/wbujSpYvUq1dPYDvCNBGDjbp166pzT09PCQ+3vIexpt1ro6kJUqhQISWSNGjQQBo3bqzaGxQUpEQBtBeeFr/88otqB8QYsPjiiy9kyJAhUqRIESUg/Pnnn+oZokHJkiXl5MmT8tdff0mtWrVQRZqgaf/UnSYhmxNNS1tO09KeozjqBS94IqCd5cqVEywhgWADYcbLy0uNEZ417f7ysIGgaWnTNC3tOfKkD5qWfZ70ZXCuaWnLaVracxFBNosETbvftqbdH5ddZZqWfRlNyyCP5vrg72eay/1ltLTvk1pGecQju27cn+7idn9dIuniMpp3p23P/YZzEqMZNBfv4xnljLn8TXDUpS9eiD0zKOBO+Ir/xl0c/K+EiAktku6s7HY3/IuXoi7MnK+lRPsnRG1uHXX5v22NxsTSIgZv2Lp+KKh9wt2jnZOTr9eJudB3GMSD5Jh9/dzcfW8n3llTE3kYSIAESIAESMCaBCgiWJM268qSQMivXhOPbKzU1DxTUMfIpUFdYj9ODaZz83QcB3a8/V1qOvJ2jFqAePMQ2DFiebo888zTcRzY4caKNHk6Rc9BvHkI7HD917R5Yu67vRnY4drGtHlip5nbwHFg+6u/IY+/f5lrL730krqLjHjz0Lp1a8FdQPMg6f4wCTZPx3G6LGpSiXjzULhw2i/RgYGB99Xl5+eXxhQmyeY2cIzJpnkmTDgRbx7gnm6ep0qVKvfVhcm3eR6cm9t49dVX00zckRd2kadnz54CbwQcY8KJNEyMUQZ3jbebBIXp06cL7gS/8cYb8vvvvyNLqmcD+gkvBYwDbLz33ntSvnx5lQeTb7jRQ4T497//LS+++KJ0795dtb927doqj6Zpqba6deum2gJvANSF8UF5uOWrzKYH1GEeWrdubYpN+4+78eZ5Hn/88bQZTGdPPfWU6fHev4uLiyDgDMswNO3e5A9eB7Nnz1ZCwbBhwyQgIABZ1CQcIsOKFSsEyx3AAB4U8EKA18dDDz2klgxgfMEQeSBU6G3q1auXsmP+AG8OPR3Pzz33nHmyOu7Xr58gTQ84VwlmD61atZJvvvlGeVNg7LC0BF4TWNYAEQhZcS2OGDEi1dbAgQMRnSaAj14PnuFVkiaD6QRjijQ9QFQxRaf579y5c2o9yPfBBx+kSccJxgdpehg5ciSi04TWrVuLnq4/S7o/LOvQ0/TndFkyfD1jbMzzQfzSy+vPGGPzPGCop+nPGG/zPPrruX379lK8pP92vGelX3Nfq8W+M4g3DzWa7rhobgfn5uk4rtl87znzPNX+tfkq4s1DrZYH7rnB/J2x6sO/3jBPx3HttseP/p2snio1WBKFePNQ5/FTB1Xi3w/l60yJMU/Hcd12Zw78naye/Ku+HY9481C33fk9KtHswTwdx4EdwjeYJaceuvvWP2E0JlWMTzrcVFw8d6UYoxuK4U6Qq0exQ0YX1wQXD/9PSwf+tckkpqSIQNBwjdU0LaZktRlRKcm3O0tKXFODIaazGFJqaq6+N4zGxNop8Zcb+ZTqm6b/wj+bJQDvOXhI4X0ZjYTHF+JwDO84vO/jvQyfVXi/w3u3vl8MnuH1hrx6wPnatWvVezji4FGGpXbw1EIa4iAaIx7PiENAPAKOEXDMcD8BeN/Byw3P96dmHIPxhQdXxqmOEYtrLLtrM6OewosQ3yUySmOcfRKgiGCf4+ZwrT53oEdxgyHhTU3ziHW4zrFD+UoAAsgXprvqWIKASScqw4Rt4sSJgi9ey5YtU14Jn376qSC9QoUKgsnad999p9J1UQHl0gfcFf/444/VchNMuipVqqTu7m/evDk1K5ZBwBZc2LHkA94AqYk2cABB5ueffxZ86OPOPpoEEQmTbHygw12/Y8eO8v777wsElMWLFwvc4T/66CPlmQDRxzSZQTGrhPRjh6UkaB9ECvQDE2bsW4Eva/gyk2WjmEgCNkLAp+zEWyaBIAZigGehCr+IIamK0ZBSxdv34XOaQQyai0sWPwfpetvVu/bYMsHnXzWFPv51N54pUXfvi5rmfj36yrTRWCJhI91kM7IgAK85LFnCJB/ZwsLCBHGYyGOiD2EU79PwwoKoACEaonXNmjVl+PDhgmeU0wPezyEE43MKcbCDfW6wBA/eXIiDYIHlbHhGHALiEXCMgGNbCJhkQjxBeyF6YLkh9iMyGO69NMAKnnLoC9qL5XvwBAQHnCM/zvVJP55hC/mQjnJgjjpQF+JgG7xQFucZBezDY94O2EE7zMvgGHZwwwA2UQc+XxFwjLiMbNtjHG7SZHRt4lrCtYu+gj0C+ofP6evXr6sbE9zLCEQcJ1BEcJyxtOue3L25v7qIdj39HSPhHwlkQ6BGjRoCEQF3f7HhHjwEsDQBX8bwxQueCvXr15e3335bTZJxjjvyuMOO9EcffVRw9xsBVeFuLPZQwDEEAdwdgi2kQ0SAMNG2bdvUMrotrOFHXkzQsVQC7YAN3OHXj3GeH6FPnz6Ctvr4+CgxAM84h7ACrwH0FV9QIaSUKlVK5cEXAUzMsRSjYcOGAiFk8uTJ0rdvX9HvZENAwXl+tNncJtgiIE4fO4wNxuqZZ55Rd98hZuAuHUQEpKHP6APKMJCArRNw9/Q3uojnaRFDSddiQ8+Ji8tVTSS+cPnPIjNqu4dXiVNiSA4KP1i3u5tHqVUpccc+u3qg8uzwkFqvhB9q2jjiaNOJBkN0ZxfxOAPbGdlgnO0RgHcahARMqvTWQbRt0qSJYOmbi4uL4Bj7FOnpmT1jwgovoZ9++kn0CVtmee0hHoI/vAbRF0xSd+7cKbt375bVq1ervYd04Rh5zp8/L9iHBx5W2BAY4gGW7OEzAWmYvB89elSwnG/WrFkCb7YpU6bIuXPnBHv6wOsO/BYtWqQ260Xd2G8mPSeIBfAYga358+erjYbxOQlhAnawTw/K4TsCJsv4xSbUjf1+MGHGMkjsewXhIb1tRzqHMAYWEFLACSINvDggcH311VdqbyawcKQ+sy8iFBF4FdgEgSRDbBnRtCs20Rg2ggRMBPBlDoKA6ZD/D0aAuUmABEwEQn71GRm6IaC16VD9lw488n2Z4LB+RUt3Si4TeHp6meBz7yLBP+j4V6Xq7A7BcZmGf61BKF5zy6kywef7+Dc48nOpunsOlAkO6xoQfO4NU975/vV37w0IOvuBqfwQnKMcg30QwOcKllHBq8rw9x12LEGDOKr3ACIw8unnmT1jYgrR+5FHHlFeY5nls5d47HMD0RvLqCCCQ6yHByA2Y8YvI8GrYN26dQKRAMzQ/99//115aGB5I+Ix2a9atarqsq+vr2BTYiwZgScBBAbcNIB3R7FixQSTWuwFBM9CTH5Rjypo9gBb2DAZ3ovYwBZLFapVqyZBQUFqQ+fDhw8L7r5D8EYc8qJtGBOkIWB/JHjPmZl1uEN4ecITEwIZvD2wBBTL/D799FMBG4wFRDI/Pz+Tfsqpp6NcABxJRxlJe++H0ehu6kKKKfCfBGyCQPHixQV3u22iMVZrBCsiARKwHIHkAJMtzRT4TwKpBDCpxOa7uFONSOzBg7vpOEbAJEzf3wfn2QUsAcNSBuzhg7zwNsMEG8d4Rrw1l6Sh3twECCd6O3Gs20AfMAnHLyTBC23OnDmCZYlYfgevDfyqDkSYjz76SPC5jXSIDpjYwtsOmw3DFjhAuEGAtwDqgGCBpXzwLoB95DMPWFaB+hGHNsCzARv94hyigm4L+RCnB4ggECawLOXhhx/Wox32GQIN9qGCNya8NSEiQHCBcABvDoftuJN3jCKCk18AttL9wI4Ryxp1TWllK+1hO0jA7giwwSRAArZGwNWYcqeBrTWK7SlYApgo4+6sPrnCJBebxmKCPHbsWIFbOJYp5LSVECSw7At3vVEGvyiEO8LYp2f06NGCfYMwqUPajz/+qPYCWrJkiWBybH6efiKM/LYSsPcQ9utBnxYuXKh+YQnLGjZu3CjwxgBL3PWGcACBoUSJEgLPggULFgi8E4oWLSoIWNqAgP0V4I0AwQWb5WLpH/Kl7y+WnWA5IJZLIi8EoMjISMFmtBAr2rRpo/hiSSVsoH7YgBcj8kO4QD2Ic+QAIct8HyqwxJIPCAr4lScILhBh9CUpjszCmfpGEcGZRpt9JQESsEkCbBQJkICDEjAYijpoz9itBySAvXGwXw6KYUKr7+EDEQB3cTHhwp1cTGoxCUU+8zJ37tyRiIgIFTCRhVig7yWDiTP2CMCEGmVhB/v0YO0/XPhhC3lRJ8QKeNlhAmx+jkke8hVUABv0F14F+v43OMe+Qth7CKIB+tSvXz+pXr264Nd0kA8B+/qY73tUuXJlJZbgV5cgAmCvHfy6EvJgzyPwh5gD8QV7JUAkgFcCNkjUGYMDymJcUDd+dQljhV/6gYiAcrCb0b5MKIu78O3atRPUg3NHCxgbjBn6BQ7YFwLXFgQyiC341SyIV2CO/aSQhusOXgsow2D/BCgi2P8YsgckQAIFR4A1kwAJkHMJ6wYAABAASURBVEDGBFzcToirR5qfssw4I2NJgATymwC8LyCuYPkD9lvIr/qw3AFeE9jMEZPr/KqHdkmgoAlQRCjoEWD9JEACBUSA1ZIACZBA/hEI6hQ7I6hj5JL8q4GWnYkA7uDC0wDBz8/PYe9w59eY4i44lovAqyD9z2WiTuyRgD0VwBcBHhGIf9CADSLxq0avv/66wHPhQcszPwnYCwGKCPYyUg7ezmOba9cOWVf0BQfvJrtnKQK0QwIkQAIkQAIkQAIkQAIkUCAEKCIUCHZWmp5AQtKNuobkGIoI6cE44Dm7RAIkQAIkQAIkQAIkQAIkYL8EKCLY79ix5SRgbQKsjwRIgARIgARIgARIgARIwMkJUERw8guA3XcWAuwnCZAACZCANQmErPV5O2SdXx9r1sm6SIAESIAESMAaBCgiWIMy6yCBvBBgWRIgARIgAfsjYEiuKSmJle2v4WwxCZAACZAACWRNgCJC1nyYaiUCgR0jljXqmtLKStVZrRpWRAIkQAIkQAIkQAIkQAIkQAKORIAigiONJvtiSQK0RQIkQAIkQAIkQAIkQAIkQAIkkI4ARYR0QHjqCATYBxIgARIgARIoYAIubifE1eNcAbeC1ZMACZAACZCAxQlQRLA4UhrMEwEWTiWwevVqOXXqlDq/c+eObNmyRR3fvXtXvv76axk4cKBMmTJFbt68Kbt27ZIJEyakhiVLlkhiYqLKjwcc//jjj3L9+nWcypUrV2Tfvn0CuytWrEjNe+LECUHQ01Vm0wPKo348m05t6n/btm2CkJtGGQwGiY+PV0X37t0r69evV8d8sA6BW7duyYYNG8RoNKoKz507p65LdZLDh+XLl8uxY8dymPtetoMHD8rx48fl7NmzMnbsWBUuXLigXgd47eC1NHv2bPX6wOsB5wh4nZ08eVJCQ0PvGeIjCWRBIKhT7IygjpFLssjCJBIgARIgARKwSwIUEexy2Gyz0Xlp1bHNtWuHrCv6Ql5sOFrZ8+fPy9KlSwWiQUJCgprcp6SkyIIFC6RRo0YyZ84c6d27t8ybN08CAwNl+PDhUqxYMenfv7/06dNHPDw8UpEkJyeridayZcsENqKioiQsLExgNyQkRJCOzOHh4YKgpyMOAemYdOEZ57YaYmJi1OTQXOzARBUTP8Qh4Bhx6MP+/fvl22+/VZNFMHzssccQLentxMXFqXEAA6SpTHzIM4HChQvLkSNH5Pbt28rW9u3bxcfHR03mzccJQo8+drgGMQYYC7w2UBDXMc4Rj3OIQ5cuXRIIAzhOSkpSNiEa3LhxQ3bu3CmVK1cWb29vef/996Vfv34C0Q72UM+wYcPkjTfekCJFigiEjW7duqnXV7NmzaRSpUry22+/iX4NoT4GEiABEiABEiABEnAmAhQRnGm0M+9rgackJN2oa0iOoYhgNhKYTNWtW1dWrVqVGovJfXR0tNSsWVPFVaxYUQoVKiSYMKmILB7Kly8vXl5eagKVRTa7TcId47lz5ypBZNKkScrrAne5IcREREQoEQB50EEIB3/99ZeavGKCirg9e/YIAvKktwPxZfLkyeLi4iKzZs0SjAPKMOSNAISuOnXqyOHDhyUyMlIwTlWqVFGCGSxjnOA18NNPP8mYMWOU1w3GbcaMGWoSj3HAxP+XX35JMzawAzEMQgTGf/fu3TJ48GCBMHfmzBkpWrSoeHp6SkBAgHqGyFC8eHF17UBcg9cNysJDAq83eO3A2yU2Nlblr1ChghIohH8kQAIkQAIkQAIk4IQEKCLY/aCzA45KAJPbli1bKs8ATHzQT9xVxd1TTL5wjgDvA3gX4DirAHtdu3YVTKj0O79Z5be3NEw2u3TpIvXq1ZMWLVooj4TTp0/L008/LbiD7OfnJ36mAKEAd60xAYWoArEGd5z1/mZkB/l69eolNWrUUJNITFD1/HzOG4H69esrEeHo0aPy0EMPKb7m4wRxwd3dXZ577jlp2rSpWoLQo0cPNaYQATIaG4wpxggeB1evXlUN7Nmzp7Rp00Z5JEBQU5GmBywHWrlypTz++ONSokQJGTJkiKBN69atkwMHDki3bt2kc+fO4uvrKzNnzlTlS5cuLRAXTMX5TwIkQAI5IoBlglh+BW8qFIA4iTgcY4nUqFGj1DLFrVu3qvcXLKnCMio9QOBGXj3gfO3atanLwSB+Yokill0hDfngWYV4PCMOAfEIOEbAsb0GsIQInJP2P0jenNhz1jy4xtJfm/jehJsvef1cxHdcfFf9f/bOA76qIv37z00IhN67qBSlKRCwgAIiKuqCrq5YcEVdywrYUP4ogqKiYsVCs60uqO9awIou3QIIKCUgvfdeQwkl7c1v9GQvMQkJ5Ca3fPkw95wzfb5zcs+Z3zwzN1LZhlq7ERFCrceob0QR0ODp2muvNQ1yNIjRYFdfshoAC4TMuGWeXbVqVV0e18l8vEOHDm7tvydGyM9LKLP9IkWKeJchdfT5fG6Ap0qLj9cO7wVj3bp19sknn9jNN9/sBoWKl5Xz+f6cjywQfD6fiy7+uRFtXGQ+jktA966Y6kU3Li7OLbPJ3E/+/H2+//WPMvcPUz56ARk2bJgTAu666y5nqaN43v2gc71M6qgXHu2B8Pe//90qVapkPp/PJGBIJJAYJcsDCXYKk4Ckv0GllVN6HARyIhA/tuRD8ePKdc0pDmGRQ0DPpWnTprk9jNRqPZPkp4G8vv/69etnGpxpGZZEBS2p0vNflodarqij0nlOAqv2NJLVlPyUj94JJJ5LRJWfvqskmusoPzn5y+lcTufB4FRHtUGWlfoul1NbvKVjEkJkeaa9ouQnSzGJKBMnTnSWhpnboLhqu5a5HS9u5rRcZ09A76GZ700J77fddpuVKlXK9cXWrVudtZ76VP2p/vJy1D2ne1z9Kz+FSYRQf/kvMVWf6f1W/a18dK042eWt91eFq891VN64wBJARAgsX3KHwEkTkOn0hRdeaLJGkAm2rAmeffZZt4ni448/7mZnZYqd24KaNWtm1apVc6bjGhSdc845bmM5bTCnGYwmTZq4rLTuWzMgeqnRQ1gPgldeecWVqwe9ixREH2KkweczzzxjCxYsMLWjXbt29vrrr5t4aUZaL2wffPCB24hRg0+tb9cDZ/LkyRktySqfjEBO8p1AdHS06ys99LU8Ry8omfvJv1Cvf3Rv/vTTT/5B7lxige5rCW//+c9/zBORXGD6h/6etDeCXkiff/5527Bhg/3rX/9yL+/aoFFLYXQPTZo0ybTUQveUytLfR40aNZwoob+FypUrp+fGfwjkQCA1ub6lHK2dQwyCIoyArOIkJHibHKv5snhq2bKls8LSc0nn2qtIYTk5idmaFNByL31/5hQ32MPUFu3zpO9lsdFs98iRI90SNi0n/OWXX9xyw969ezvLC20uvXbtWtNzXYPLzO2Tn6zbNBGjJYibNm3KNm7mtJF7feIt1wB+xIgRbomoxDBZvM6aNcsefPBBkxDw7rvvmvYX0jumlgZKHJKfxAMtR9RzX+GyktVEgGoiEV/vvboXZAWo65zy1n2iZae6h5577jm35FH54AJHABEhcGzJOQ8Eml2xc3SLTilt85Ak7KN2797dzY6qoTKnlqmjzjUb8eqrr7qN3vTrDHopkb+cl0aqrdRdrQ2X08BKv+ag/RN8Pp8p3q233qokpoG2Bk7K/+mnn3ZKcsOGDd2gSrMfUpw1M6uBlOLIT3VwiYPgo23btiYn03a144knnjDVUxYWGgSKkcQWvZhJTLjjjjtMg0cteZCIoHZdcsklLo/s8pH5vJiouXqJ8c51jTt5AuKufpCgIEEscz/58/f6WffhRRddZP5h6hv1ebdu3ezee+81XWt5gvKXU00lVOglQy8rug8GDRrk/pZ0n6tf+/TpY7qHVB9ZIGg5jMrSvfW3v/3NvZgorfZuUH44CEAAArklIJHg6quvti+//NK8mVh97+nZ7OWh5ViK511nd9RzXt9R5557rmk2Prt4oeAvBvpu1h5QWlYm8VeDUAn8GnBqMKl26PteVmGaCJGAEBsb6zbA9eeneHISkyUGa8nI/v373Z5QGqxmFVfxQ9oFUeXr1q1rl19+uRPh9YyWhaEEePWXNk/WJI+ENFniaDmuxCAJPvXq1XN9pPtf/SQBSPeB9rbSskNZ2eSUt+4FLTvVBFLTpk2dJYTxL6AEEBECipfMIQABCEAgmAjoZVXLHPSSciL10ouKRDhZBZ1IetJAAAKRTUAbJkvY16BKJLRHi6yjdC6nwVXNmjV1miuniQBZB2rApQSykpLAoHMd5e/z/b4cT37B6rT/jGauZf0l4aBBgwbu13M0u6xliKq3uOkoSwO1TedZOVl3aMCqX6s677zzsooSNH7hVhF/AUzPW7XP6y89d++55x430SOhXpaBmrzS5IEsURTXc7Js0GSQJsAklsk/p7xVhiYIFE+OZ7QoBNYhIgSWL7lDoFAI6EGrL2V98cppXXehVIRCIRCEBPT3cKKzUUqn9EHYLKoUbASiiiyz6KJrgq1a1KdwCfh8PtNGr1rrrZpokCuTb1k8admUzL21TEFhuXF63nfp0sVtUKv42pBZM71alvXkk0+aljBqDySFjRo1yi1J1F4wGoT7X/sPwBS3IJ1M2GXe/tlnn7mfWK5du7ZJDJFlmCzTNFOdVX0kyGimWqKBf7jef2S9oJ/E9tJmF9c/XR7PiZ5HAhK8ZAEoAUHLD2SV8Prrr5sEHwkKsg71lpjKekEbHGtZiyxJjleU7mcJD7rntUxCeR0vDeEnRwAR4eT4kRoCEIAABCAAAQj8iUDclQdfi7ti74d/CsAjIglouZTM8dV4/czskCFDTH4SATQ7q4GVluJp4KwZWMVTuJdGAyktT5TTpooSC7xlWhqAvfPOO24JpNIqHy3L0s/hyqRceSmuypRY0bVrV/drNf7XhSmOysLr7rvvtn/84x8m8UMb7koY8ZYjapma6i+ntmg5ps5btGjh9jySCbv/Ek5ZcojnnXfeaVqKJo5e3ObNm5uZcsGdDAEx9e5NieuyGNBSFB117R/u9Zf6Ufts6R6UkKYNGR966CF75JFHnLCmgb/6TUtMr7rqKnvsscfs/vvvNwkDx8tblgf6O5Jlg4Qn1eFk2kfa4xNARDg+I2IUAIElkxs2jB9X9h8FUBRFQAACEIAABCAAAQiEIgHqDIEsCEg00D4KWQThFSACiAgBAku2eSNwJGlH49TkA4gIecNGbAhAAAIQgAAEIoCA1pNreaJcuXLl3E/ShlqzA1VfWXNoCYPYyBWmVUWg2ki+ORO48sorTZsz5hyL0PwkgIiQnzTJCwIQgAAEIAABCEAgMglEV9qkhu/bt0+HcHK0BQIQCGICW7dutejo6AMFWUVEhIKkTVkQgAAEIAABCEQEgfixJR+KH1eua0Q0lkY6AlUajV9dvnz57Zs2OS3B+RX+BzWAAATCnYA2k9yTsO+3gmwnIkL4YRGfAAAQAElEQVRB0qYsCEAAAhCAAAQig0Bqcn1LOVo7MhpLKz0Ce/ceef3jjz/Z7V2f1JHEEIAABI5DYPny5TZt2s9LLfrUfx0nar4GIyLkK04yO1ECza7YObpFp5S2J5qedBCAAAQgAAEIQKCwCVRrvuKN0aM/j7/11tt2/ve//7WEhITCrhLlQ+CECBw5csRSUlJOKC2JAk9g2bJl9v/+3/+zJ57oP3/52qjOlRt9vyTwpf6vBESE/7HgDAIQgAAEIAABCEAgsgmcdOtL1Ft49Q8/zHi5d+9HVjZt2vRozZo1DVfTXn31VRs1ahQsQuR++Prrr23w4MH0V5D211VXXZXw9NMD4mfOXntf5Ybj1pz0F1ceM0BEyCMwokMAAhCAAAQgAIHjEogqssyiixb4i91x6xXWEYKncVXjlg8tXndh00pN1pav3mJTSRwMQu0eKFH1viqhVudIqm+ZBstrlGmwrHXlxjPnFsY3HyJCYVCnTAhAAAIQgAAEwppA3JUHX4u7Yu+HYd3I/GwceUEAAkFFoOwpjx0MqgpRmaAigIgQVN0RuZVZMrlhw/hxZf8RuQRoOQQgAAEIQCA0CVBrCEAAAhCILAKICJHV30Hb2iNJOxqnJh9ARPDroW+//dZWrFjhfPbv32/ff/+9O09MTLT33nvPevToYS+//LLt2rXLpk+fbgMHDsxwH374oR09etTF14fOtQ5x+/bturTNmzfb7NmzTflqzZvCFaBNWuS8cPnJKVzl66jrUHK//vqrjR8/vsCqnFN5n3/+uS1Zcuy+N8nJyZaUlFRg9Qu2gnS/effuuHHj7MiRI7mqou7b+fPn5yqufySvD/R3pPtC97TKHD16tPu7UFz9Tb300kv2+OOPm/c3I3/FU/pHHnnEvvjiCzt06JBNmDDBDhwo0J9mVlVwEMgvAuQDAQhAAAIQyDMBRIQ8IyMBBAqGwNq1a+2jjz4yDXY0eNFgS7vkvv/++9aiRQsbPny43XjjjfbOO+9Ys2bNrG/fvla+fHn75z//aV27drWiRYtmVFQDVQ1eNVBSHtotet26dW7AFh8fbwpX5G3btpmcFy4/OYUvXbo0I578gsVpEChGElxUb9Xr8OHDTkTRz96cddZZdvHFF8vb1V/xduzYYWlpaW7XbF2rfbpWPhpArly50lJTUzPSiL03UPTPW/HllMfu3b//opf6witPfhs3bnScVYYyVF+KpfJTmWPHjrWJEye6flZ4pDndb61bt7bHHnvMypYta8OGDXO7QYu/+kEM7Y9/YiZ2Yt6hQwdr3Lix62dde32kOLq3Pd4KUxr5/5GNO8yYMcPKlCnj+vntt982leXdPxIz/vKXvzihzvubUSL97bRp08ZefPFF27dvn23YsMFKly5tkydPVjAOAgVMgOIgAAEIQAAChUMAEaFwuFMqBI5LoGTJkm6QNGbMmIy4GuRo8FK/fn3nd+qpp1qJEiVMA1XnkcPHKaecYrGxsfbzzz/nECv0gmbOnGm9e/d2s8JvvPGGrV692s0SP/XUU85KQ5YBiiN2zz77rK1Zs8bNLmvQqVllWWNox2iF9+vXz6ZMmWIadL711lt28OBBJ9bIUkCiTVZ5q2yJAbIOWZcuzKgsOYkzykOCxYMPPuisSjSg/eqrrywqKsrteLx3717bsmWLEzRCj3z+1tjn81nLli0dm02bNtnIkSNd/2kQ/8svv9i8efPstddeM4kK6iv9dJrEG7FWH0iceeKJJ9zO36tWrbJ//etfjuvixYstJibG8ZaFjWotMUBWDHXr1nV/Ew888ICdccYZCnIChoSkGjVqOFFOfaTyFKi/tSpVqujU5V2qVCnT36L6XXm6AD4g8AeBeeOrdJo/oUbWP138RxwOEIAABCAAgVAkEBWKlabOEIgEAprx1qynZmo1KFKbNTtbvHjxY6wMZH2QmwGM8uvUqZNpBnbPnj3KLmzcddddZ02aNLF27dqZxAENGm+55RZr1aqVG5SqoRpANmrUyLwZ7Llz5zqxQLPOsvqQmKBB5eWXX27t27c38ZL1hqwZvvnmGzfrLLEmc94q+8wzz7Rq1aqZBr8qS04z29dcc43FxcXZZZddJi83YL3hhhtM8YsVK2YSGGLThR3NZmuA6iJF8IfP53Ot37lzp82aNcvN8Iuj7n8JBmJ9wQUXWPXq1V0870P+6n8JAR07dnT3gpYhaLmBrA0mTZrklip4YoBEIXGXCODl4R1l2SJBQkJPdHS0yenvzguXYKQlDBUrVjQJDcqnSJEiztrEi8MxvAnktnVpyQmdUpP2tsttfOJBAAIQgAAEQoVAVKhUlHqGN4FmV+wc3aJTStvwbmXeW6cB67XXXmsaxGowpMGmBjTeYEiDHQ1Eq1atmqvMNWjSIFprwT0xQn5eYg26NCDyrkPlKA6qq0zYZcGhAaDP9/uAVP5yGgxKGNC5nJZ73HzzzW4ZiKwMNCjUAFJ5eOHif95557k4Q4YMsbZt2zpRwuf7X94eLw0uvbRKr2vlp3NP5PGvl/rR81ccnLmBviwNKleubA0aNLBHH33UtDeB+snn87mlC1lx8vrA5/O5/rH0f+Ira5CpU6e6JT7qx3TvjP8Kz7jwO9Hfhe4hWaHofpFIoGtFUZ/+9NNPbunJVVddJS/nssvLBfIRTASoCwQgAAEIQAAC+UAAESEfIJIFBAJJoFatWnbhhReaZmM1ey1rApnlazM6bfym2fYKFSpYbv81a9bMqqXPmmu2V8LEOeecYwMGDHBOGzRqRld5/fDDD26jxqFDh7qN4zQL/8orrzg/zfYrTrA4LflQG7TZngafWdWrTp06JtN0LXMYMWKEqd0ffPCBPfPMM6ZrCRGavVYbxVUDWa2516BW+01oE0utgc8q76z8ZJr/ySefmNbbayY8qzjyUxma2ZZlhK4j0WnTTzEfNGiQ3XXXXaalN+Lfp08f072uJQn6GxBP3fcayOeGk/4u9HejfUSUh5cmNjbWWYXIysfz8z/KouX1119398bZZ5/tNiB9/vnnTcsqJDgpL13r78Wz6pH44J8H5/lNgPwgAAEIQAACEAgWAogIwdIT1AMCmQh0797dKlWq5Hy1yVv//v3dudZgaw2/N7CVebcLSP/w0mhGXINfCQVymqnVrznIZN7n85ni3XrrrekpzDRgeuGFF0z5P/300ybLhIYNG5rEA5Vx3333mdaBa/CmOPJTHVziIPm46aabXP21J4LqKvN2tUHVk/WAnBho7btEhNtvv91OP/10E0eto9e1BBrtMaGBq/y1aaXS9OzZ0wknWncvQServFWOeKoczykvcb3nnntMGwfKEsI/rfJTHbVJpgbKzZs3VzYR58RLVh5iIBFB3Hw+n3Xp0sX9+ojEBS1D0RIG8dT9d9FFF5nHUunlBE73tf5m5NTP4qv79s477zSl1bWXTpYJWjKhdHKev85VnkQjOS1t0b4VEuskDH322WemvTNUD/3tac+Nc88913w+n5LisiKAHwQgAAEIQAACYUUAESGsupPGQCDyCHizyifbcp/P53br9/nyZzAoqwUNNDXg1IaKsoQ42TqSPv8IyMLgiiuucL/OcLxcmzZtau3atftTNC1juOSSS0yCxJ8Cw8SDZpw4gbiOR7rFdUwccOI5kBICEIAABCAQnAQQEYKzXyKuVksmN2wYP67sPyKu4QFqsGbQZcqtGVk5rf8PUFGFnq0GcHInWxGZo2szRh1PNi+ll9WCZsGfe+4569atm6lP5I8LDgI+3++ikfapONEaKa2WBPl8+SM8nWg9skmHNwQgAAEIQAACEAgIAUSEgGAl07wSOJK0o3Fq8gFEhLyCIz4EIBCGBGgSBCAAAQhAAAIQCF4CiAjB2zfUDAIQgAAEQo0A9YUABCAAAQhAAAJhTgARIcw7mOZBAAIQgEDuCBALAvlJYN74Kp3mT6jRNj/zJC8IQAACEIBAMBBARAiGXqAOEIAABCBwMgRIC4GgI5CWnNApNWnvn3fkDLqaUiEIQAACEIBA3gggIuSNF7EDRKDZFTtHt+iUwoxNgPiSLQSClwA1gwAEIAABCEAAAhAIJQKICKHUW9QVAhCAQDARoC4QgAAEIAABCEAAAhFHABEh4rqcBkMAAhAwgwEEIAABCEAAAhCAAAROhAAiwolQIw0EIACBwiNAyRCAQAgQiOt4pFtcx8QBIVBVqggBCEAAAhDIEwFEhDzhInKgCKyec1WlxZPqNQtU/uQLgeAgQC0gAAEIQAACEIAABCAQ2gQQEUK7/8Km9vt2zGh36PCawWHTIBoSfgRoEQQgAAEIQAACEIAABCBgiAjcBBCAQNgToIEQgAAEIAABCEAAAhCAQP4QQETIH47kAoF8J/Dtt9/aihUrXL779++377//3p0nJibae++9Zz169LCXX37Zdu3aZdOnT7eBAwdmuA8//NCOHj3q4utD56NGjbLt27fr0jZv3myzZ8825fv1119nxF22bJnJeeEucvqH0qt8HdMvC/J/wMtKTk62pKSk45bz+eef25IlS44bLzU11Q4fPnzceEQwdx8OGjQo477VuRi/+eabueqTnBjSDznRIawgCMwbX6XT/Ak12hZEWZQBAQhAAAIQKEgCiAgFSZuyIJAHAmvXrrWPPvrIJBocOXLEDe5TUlLs/ffftxYtWtjw4cPtxhtvtHfeeceaNWtmffv2tfLly9s///lP69q1qxUtWjSjNA2UNTgbPXq0KY+EhARbt26dKd/4+HhTuCJv27bN5Lxw+ckpfOnSpRnx5Hd8V3AxDhw4YKqfWGkAL7Fj+fLlrr5qi8QYtUE1UhzFVZq0tDQbO3asTZw40XFWuNq/fv160yBU17t377aVK1c6brrO7LyyFE9hc+bMsY8//tgJNLrGZU+gRo0a1qtXL2vdurVzOq9fv77ddtttFh0dbeqjjRs3OrFBnHXPys/L0b+v1F9r1qyx1atXu3737weFKR+vX3WtfOQnwcw/b90TukckzqnfFdcrjyME8kIgLTmhU2rS3nZ5SUNcCEAAAhCAQCgQQEQIhV6KgDqWqdzqx+KxtR+IgKbmuoklS5a0xo0b25gxYzLSaEC8b98+00BLnqeeeqqVKFHCNBjSdU7ulFNOsdjYWPv5559zivZ7WAh9zps3z1577TXTIF58vvjiC3vqqaechYaEBFkQyOLi1VdfdRYCixcvtpiYGBs8eLBt2rTJtmzZYho4qsmy6JgyZYoTDd59912bOXOmDR061AkC48ePV5Q/OVluyFPCwfz5823Pnj2uHPnh8k5A/Thy5EjXnw888IATBWSV8/jjj5v6V329d+9eZ33j31f/+c9/bMOGDXbo0CHX9/79sHPnTieO6X6QMKcysst769at1q9fP1PeEpveeuutjPsj760hBQQgAAEIQAACEAg/AogI4denIdmiOi3G7Gx06cp5IVn5AFVaM+pt2rRxg59Vq1a5UjQrWrx48WOsDGR90OnicAAAEABJREFUIOsCF8HMsjsqv06dOtmMGTPcQDe7eKHmLyuD6667zi644AKrXr26EwhuueUWa9WqlUlg0EBw3LhxJssOiQllypSxSZMmudltXUtYKV26tBNjpk6dagsWLLBp06Y5Sw1x79y5s8XFxdnll1+eJZpy5co5sUHlaJCr/CQAKc8sE+CZawLNmzc3/Q00aNDArrjiCmvSpInrJy3LydxXEtQk9EgQqlKlihPMvH7QUVYLEtAkGqkC2eW9Y8cOq1u3ruvv9u3bO0FI94nxDwIQgAAEIAABCEDAEUBEcBj4gEBQEPhTJTRjfu2119o333xjGvxqYCohQYNVRdZyBA16qlatqsvjulKlSlmHDh1Mgy1PjJCfl1CzuEWKFPEuQ+Lo8/ky9nRQhaOioszn8+nUiS0333yzW+qh5R8yZ9fgU0s+zjvvPBfH/0N877nnHuvfv79bpy/+MnX3j+N/LvP6Tz75xFTGX/7yF/8gzvOBgJY0+Hy/96V3X+r+l2iWua/atm3r+k3WJOpjr3j137Bhw+zss8+2u+66y4kQCsspb6Xxlr9oWZBXttLhIAABCEAAAhCAQKQTiIp0ALQfAvlDIHC51KpVyy688ELTrHixYsVM1gTPPvusG+TKxFsz7hUqVLDc/tP+CdWqVTOZeEuYOOecc2zAgAHOaQCm2V7l9cMPP7gyZM7vrR9/5ZVXnJ9nwq94he3ERgN5bSz5008/HVMdhX3wwQf2zDPP2IgRI0wz0uKofSW0rEGRtWRkwoQJNnfuXGvXrp09//zzro3aP0KsZM4u3v4DU6WT00BWgo7KkPm7BIzTTjvNZJUwefJkRcEFiEDmvtI9oA1FJezo/vb6Qf2i+1xCnJY8JOViE01ZOuhe199X5cqVM4SHADWFbMOUQFzHI93iOiYOCNPm0SwIQAACEIhgAogIEdz5wdT01XOuqrR4Ur1mhVKnIC20e/fuVqlSJVc7zXJrdlwX2g9B6/u1kaJ+nUFm/PKX89JoFlXrviUUyGkmVb/moP0TfD6fKd6tt96qJG7g/MILL7hZ3KefftpkmdCwYUO3F4DKuO+++0zm4Rqkqw7yUx1c4iD40BIG1V/1uuiii0xLG1R/VU1hYvXEE0/Y7bffbjKLVzvuvPNOUxrF0yaVEglk3t6oUaOMdmsZw5lnnmkSETSYHDJkiNuLwp+rli4o7R133OHEB20QqMGryrjkkktUBVwuCMiKQE5Rdc/r/vSO8lOYnM579+5t6rfMfXXTTTc5S4PnnnvO1G9eP1x66aXWrVs3u/fee01pH374Yfd3pTKUn/KV07nCdW9raUSfPn1M9442L1UYDgIQgAAEIAABCEDgdwKICL9z4LOQCezbMaPdocNrBue1GsSHAAQgkJ8EfD6fWzrk8/nyM1vyggAEIAABCEAAAmFDABEhbLoy5BpChQNIQJYHWuKg2Vw5resOYHERk7WWK/hzlWVHxDQ+QhqqvUK0MaeOEdJkmgkBCEAAAhCAAATyRAARIU+4iPw7AT4hAAEIQAACEMiJwLzxVTrNn1CjbU5xCIMABCAAAQiEIgFEhFDstZOpM2khAAEIQAACEAg4gbTkhE6pSXvbBbwgCoAABCAAAQgUMAFEhAIGfjLFhXPaMpVb/Vg8tvYD4dxG2gYBCEAAAhCAAAQgAAEIQCDUCSAiFEwPUspxCNRpMWZno0tXzjtONIIhAAEIQAACEIAABCAAAQhAoBAJICIcFz4RIAABCEAAAhCAAAQgAAEIQAACEBCB8BYR1EIcBCAAAQhAAAIQKGACcR2PdIvrmDiggIulOAhAAAIQgEDACQStiBDwllNAUBFYPeeqSosn1WsWVJWiMhCAAAQgAAEIQAACEIAABCBwDIFAiAjHFMAFBHJDYN+OGe0OHV4zODdxiQMBCEAAAhCAAAQgAAEIQAAChUMgk4hQOJWgVAhAAAIQgAAEIAABCEAAAhCAAAQKksCJlYWIcGLcSAUBCEAAAhCAAASyJTBvfJVO8yfUaJttBAIgAAEIQAACJ0OgENMiIhQifIqGAAQgAAEIQCA8CaQlJ3RKTdrbLjxbR6sgAAEIQOBkCIR6WkSEUO/BMKl/mcqtfiweW/uBMGkOzYAABCAAAQhAAAIQgAAEwo8ALUongIiQDoH/hU+gTosxOxtdunJe4deEGkQCgTfffNN27tz5p6ampqba4cOH/+Sf2WPJkiX2+eefZ/bO8vrQoUOWlpaWZVike27evNkGDRpkAwcOdE7nYqv+SUpKOik8ue3LkyqExBCAAAQgAAEIhBABqppfBBAR8osk+UAAAoVC4OjRoyanwjVgT05OdteJiYm2YsUKS0hIUJAbyGvQunHjRncuT6Vbvny57d69W5c2Z84c+/jjj23//v3uWmmVh/KUh+IvXbrUVI6uMzsNXJX/+vXrTed79uyxIUOG2JYtW9x15viRfl2jRg3r1auXtW7d2jmd169f32677TaLjo62AwcOmHiq38R+3bp1zs/jtm3bNvNYi/eaNWts9erVpv7y70uFKR//uNnlLcFH986uXbts5cqV9JsHmyMEIAABCECgMAlQdlARQEQIqu6gMhCAQF4JzJw50+SU7r///a8TDnTdu3dvN9h/44033MDyyy+/tDFjxrjz2bNnK7otW7bMHSUczJ8/3zTo9ywRFCZrAwkKr776qm3dutUef/xxl+c333xjGmi6xH4fsm7QwFbCxEcffWQHDx50efpF4fQ4BCTojBw50gk7DzzwgOuvb7/91rGXqPPaa6/Z3r17bfr06TZlyhQ30H/33XftP//5j23YsMH1jwQA/77M3C8qI7u81c/9+vVzeUsweuuttzJEp+NUnWAIHEMgruORbnEdEwcc48kFBCAAgQgkQJPDjwAiQvj1aUi2aPWcqyotnlSvWUhWnkoHJYHrrrvOmjRpYu3atXNigQaH1157rbVp08aaN2/u6lyuXDknQGiwqAFqbGyslSxZ0kqXLu2sEuQ/btw4W7t2rWmW+5xzzrG4uDi74YYbTHFdJn4fSisR4eeff3bWB4pTrFgxUzlRUXzd+qHK1an6Sf3VoEEDu+KKK1x/lihRwrZv325Tp061BQsW2LRp02zdunV26qmn2vjx492Av0qVKq5/1B/qSx39+0WFZ5f3jh07rG7dunb55Zdb+/bt3fIWCUnGPwhAAAIQgEDkEaDFEMiSAG+1WWLBs6AJ7Nsxo92hw2sGF3S5lBdeBFJSUjIadOTIEXcu03YNIhXmv85e5u2ffPKJ3XzzzfaXv/zFxfX/KFq0qAvr27evDR8+3AkBnpWCfzzvXOb2w4YNs7PPPtvuuusu02DXC+N4YgS0pMHn87nERYoUcUctTVBfShy45557rH///m4/hbZt27pzWShIYHCR0z+y65ec8lYa3TfpyU33gVe2rnEQgAAEIACB0CBALSEQOAKICIFjS84QgEABEKhWrZozZR8wYIDJAsArUksX5Pf111+bZrKbNm1qzz//vD3zzDPOMqFUqVJuv4QPPvjAma7LUuC0004zWR9MnjzZLrzwQlOY4o8YMcKqpZejZQpPPvmkvffee27dvVeWjjExMVamTBnTUgeZ1kuw0LUGod6yCMXD5Q8BWZioP7Up4+jRo02C0IcffuisEtRXXl9qyYP6wb9fjlcDWTq88sorbglF5cqVEYSOB4xwCEAAAhDIXwLkBoEgJxAV5PWjehCAAARyJHDmmWea1q1rRlr7HzRs2NDFv+mmm9zMtPxk3q6Z6qFDhzo/bXZYr149e/bZZ+2OO+5w4oI299PAU4PSSy65xKpXr27aC+GJJ56w22+/3cqXL+/iP/300+4XBbp06eI2YNR6ezkth9DM+L333mvaj+Hhhx92s9iyZOjatatbIuEqxsefCKhv5BRQqVIl6969u3lH+SlMTudiqz5u1KiRqT/Ft3Pnzqb+lgXIc889Z7onvL689NJLrVu3bubfLznlrY0dtTSiT58+rv9vvPFGFYuDQJ4JzBtfpdP8CTXa5jkhCSAAgZAmQOUhEAkEEBEioZdpIwQijEBsbKxbEx9hzaa5+UDA5/M5ixKfz5cPuZFFJBNIS07olJq0t10kM6DtEAgxAlQXAhDIJQFEhFyCIlpgCZSp3OrH4rG1HwhsKeQeKQTOO+88kwt0e7UuX7Pacto80edj4Blo5oHOv3jx4nbLLbeYjoEui/whAAEIQCC/CJAPBCBQkAQQEQqSNmVlS6BOizE7G126cl62EcI0wGdR63/77TfjHwQgAIFgJaBfwTArsjFY60e9IACBECdA9SEAgZAjEBVyNabCEAgjAgkJiQumTJmyM4yaRFMgAIEwI/DLL78kWlTx9WHWLJoDAQjkAwGygAAEIpMAIkJk9jutDhIC1ZqvHDhv3vwNL7/8clKQVIlqQAACEMggcEvXrglRUSWeq9Yk/ocMT05yRSCu45FucR0TB+QqMpEgUPAEKBECEIDACRNARDhhdCTMTwKr51xVafGkes3yM89Qyat43YWtR4z4cE7z5s0Ttbv8oEGD3O7/HP/HQT+ZePDgwYjicuWVV5p+1aGg7gOVJxeI8kaNGmWLFi2KqP4LBMeCzLNLly7WoEGDQzOmz5xevO6c10Pl+5R6QiAyCNBKCEAAAoVLABGhcPlT+h8E9u2Y0e7Q4TWD/7iMuEPxur9dsmPHkbsnT57yxtChb87EHctg9Ogv4g8fPrwjkrhMnvz9gbFjx68oqDZPm/bzlqlTp20LRHmzZs3ZsHfv3oOByJs8j/1byS8eU6bNfvLQoWI3lm+8onPEfSHTYAgEkgB5QwACEAgDAogIYdCJNCE8CFSNW/RVxbOX96149spLcMcyqNRkdeuqcRtOjyQuSckpS/buS322oNqcmJj82aFDSV8HoryqcesaVGu+sUog8ibPY/9W8otH9bgVr1RuOn9yeHy70goI5A8BcoEABCAAgd8JICL8zoFPCEAAAhCAAAQgkG8E5o2v0mn+hBpt8y1DMjoZAqSFAAQgAIF8JICIkI8wyQoCEIAABCAAAQiIQFpyQqfUpL3tdI47GQKkhQAEIACBYCOAiBBsPRKh9SlTudWPxWNrPxChzafZEIAABCAAgfAjQIsgAAEIQCAsCSAihGW3hl6j6rQYs7PRpSvnhV7NqTEEIAABCEAg/AjQIghAAAIQgEB2BBARsiODPwQgAIHCJJCWenpayqEGBVWF1LSkJqlpKWcVVHmUAwEIBIwAGUMAAhCAAAQCSgARIaB4yRwCEIBA7gjEfxf7+pwxUcs8Z5ZWKTX10P3etY7Lpp1bJ3e5HT/WvHGVrleenrO05Nbp7lzvWsf4ceVuPX5OxIAABLIiENfxSLe4jokDsgrL3o8QCEAAAhCAQPATQEQI/j6KiBqunnNVpcWT6jWLiMbSSAhkQSAmpsroYsVOudNz5ovaGBUd87V3rWMWyU7Yq0hUiS3F/Mrz+YpM9/miZy2xADEAABAASURBVPn7xUSVWX3CBZAQApFGgPZCAAIQgAAEIoQAIkKEdHSwN3PfjhntDh1eMzjY60n9IBAoAmd1WD/N36WXs90XVXqCv1/91rPybVDvn6/Ofb6Y+T5fkYU693fp9eA/BMKeAA2EAAQgAAEIQCD3BBARcs+KmBCAAAQKjECULybeF1V0W4EVGB2z2qKKriyw8igIAvlDgFwgAAEIQAACEChgAogIBQyc4iAAAQjkhkBcx8MPNu2weWpu4uZHnLgrEt6Nu3LfsPzIizwgkDsC4R1r6dSzzlg2vdVp4d1KWgcBCEAAApFIABEhEnudNkMAAhCAAAROhgBpj0vg0L4VvRL3zL/tuBGJAAEIQAACEAgxAogIIdZh4VrdMpVb/Vg8tvYD4do+2gUBCEAgWAhQDwhAAAIQgAAEIHAyBBARToYeafONQJ0WY3Y2unTlvHzLkIwgAAEIhB8BWgQBCEAAAhCAAAQKnQAiQqF3ARWAAAQg8GcC8d/FvjF/Qo02fw4JjE/8uLJ3x48tc29gcidXMxhAAAIQgAAEIACB8CCAiBAe/UgrIACBMCOQmpYUl5Z6tGqBNSslqY6lHq1XYOWFUkHUFQInQKB4mTMGlSjfdOQJJCUJBCAAAQhAIKgJICIEdfdETuVWz7mq0uJJ9ZpFTotpKQQgUBAEKAMChUWgQZuFK+pfMGNdYZVPuRCAAAQgAIFAEUBECBRZ8s0TgX07ZrQ7dHjN4DwlIjIEIBDOBGgbBCAAAQhAAAIQgEAQEkBECMJOoUoQgAAEonwx8b6ootsKjER0zGqLKroyf8ojFwhAAAIQgAAEIACBcCWAiBCuPUu7IACBkCYQ1/Hwg007bJ5aUI2IuyLh3bgr9w2zgiqQciAQ5gSWTj3rjGXTW50W5s2keRCAAAQgEIEEEBEisNNpMgQgEJ4EaBUEIBA8BA7tW9Ercc/824KnRtQEAhCAAAQgkD8EEBHyhyO5nCSBMpVb/Vg8tvYDJ5kNySEQqgSoNwQgAAEIQAACEIAABEKCACJCSHRT+FeyTosxOxtdunJe+LeUFoYfAVoEAQhAAAIQgAAEIACByCGAiBA5fU1LIQCBzASC+Dr+u9g35k+o0aagqhg/ruzd8WPL3FtQ5VEOBCAAAQhAAAIQgEBoEkBECM1+o9YQiHgC4Q4gNS0pLi31aNUCa2dKUh1LPVqvwMqjIAiEOYHiZc4YVKJ805Fh3kyaBwEIQAACEUgAESECO50mQ6CQCVA8BCAAgbAn0KDNwhX1L5ixLuwbSgMhAAEIQCDiCCAiRFyXB2eD542r1HnOt9FTgrN21Op/BDiDAAQgAAEIQAACEIAABCKZACJCJPc+bY8sArQ2pAhE+WLifVFFtxVYpaNjVltU0ZUFVh4FQQACEIAABCAAAQiEJAFEhJDsNiodaQRob+QRiOt4+MGmHTZPLaiWx12R8G7clfuGFVR5lAOBcCewdOpZZyyb3uq0cG8n7YMABCAAgcgjgIgQeX1OiwuWAKVBAAIQgEAEEji0b0WvxD3zb4vAptNkCEAAAhAIcwKICGHewaHSvGIxlRdFFSn17+CqL7WBAAQgAAEIQAACEIAABCAAAX8CiAj+NDgvNAINL1myJO6KhPwTEQqtJRQMAQhAAAIQgAAEIAABCEAgfAkgIoRv34Zsy6g4BCBgFv9d7BvzJ9RoU1As4seVvTt+bJl7C6o8yoEABCAAAQhAAAIQCE0CiAih2W/BWmvqBQEI5BOB1LSkuLTUo1XzKbvjZ5OSVMdSj9Y7fkRiQAACuSFQvMwZg0qUbzoyN3GJAwEIQAACEAglAogIodRbAa0rmUMAAhCAAAQgkF8EGrRZuKL+BTPW5Vd+5AMBCEAAAhAIFgKICMHSEydTjzBIO29cpc5zvo2eEgZNoQkQgAAEIAABCEAAAhCAAATClgAiQiF3LcVDAAIQyIpAlC8m3hdVdFtWYQHxi45ZbVFFVwYkbzKFAAQgAAEIQAACEAgbAogIJ96VpIQABCAQMAJxHQ8/2LTD5qkBKyBTxnFXJLwbd+W+YZm8uYQABE6QwNKpZ52xbHqr004wOckgAAEIQAACQUsgQkWEoO0PKgYBCEAAAhCAQBgQOLRvRa/EPfNvC4Om0AQIQAACEIDAMQRCT0Q4pvpchAuBYjGVF0UVKfXvcGkP7YAABCAAAQhAAAIQgAAEIBCOBApURAhHgLQpfwg0vGTJkrgrEhAR8gcnuUAAAhCAAAQgAAEIQAACEAgIgdyKCAEpnEwhAAEIQCBrAvHfFRu+aOLpLbMOzX/f+HFl744fW+be/M+ZHCEAAQhAAAIQgAAEQoxAjtVFRMgRD4EQgAAECodAaurRm6OLV9xZYKWnJNWx1KP1Cqw8CoJAmBMoXuaMQSXKNx0Z5s2keRCAAAQgEHQEAl8hRITAM6YECIQsgb3rni61Jb7ukzrmtRHb4hvctWNxq7i8piO+2bJp59ZJ55DcoPUcfnIxHQT/IRCKBBq0Wbii/gUz1oVi3akzBCAAAQgUEoEQKRYRIUQ6KtyrOW9cpc5zvo2eEu7tDNX2HTkwrer2xZfXObD752i1Yc/mUTHbFrY9a9eKLlV0Lbdr1SNldv52QbNDO1+L1bXnlObAxvvLJWwfW2Tnksvq71jcvqHSe+EcjyWwcXH3Ugf2zh0RVaR0/2NDuIIABCAAAQhAAAIQCFYCkVQvRIRI6m3amiOB+HFl74j/rmS/DDe2TI/MCeaNr9IxI1xxx5Z68M9xql12bJySvf4UZ0L1izPFeSxznPkTarQ5Jk56eZnjaM388ePUOSdznI2Le5fyz2vxpDOa+MdZMrl+44zw1KSmvqT1bVOTNrU4sP7Wx2SVcHjbI69GpRwqe/TAr922zm/6l52/Xdg0KWHUkym+5JiE9W+8vmdl55pKn5KcVvTA2lufTtz7S73Dmx7okXx0W7201AMlLfFTJz5sWHh3aZW7fEbrWorvOV3L398t+/m82l64jit/uaS6f7jOl05tfKbCPLdmzjUV5e/vlkxu0MgL13Hdb13L+ofrXDwU5jnxkr+/WzSxzjleuHf0D9f5oiz2NJC/v1M/e+l1PKXRmweiipT6IO7KfcN1XWAuOma1RRXF8qHAgFMQBCAAAQhAAAJBQoBq5JEAIkIegRE9nAn4jmZqnS/TdS4v0zKny3ydy3xyE+1PZeUmUVZxsq2jzxezqGj5m0fFlrt+bFpaWukj+75p7vMVXVy56ayfY0vHvedL3X9ectqu86OKVvlP1bN/nRUVVWrskYMrmqZFWZQlb+0RHV3qhypn/To7LbrUAkvZd0NamvlK1Rq2+ZhKpKUeW37ma0VOy3tb0yzl2HyVj+UqnyzSucR5/MhVWX/KM+6KhH/9yTPAHullvpsuXAwLcDFkD4GIIbB06llnLJve6rSIaTANhQAEIFAoBCi0MAggIhQGdcoMSgJxV+z9KK7jwecy3JX7/jSganb59u8ywhX3ygNvZG5Ms8u3TTg2zsFX/hSnw5YfMsV5PnOcph02Tz0mTnp5meM0vmzdjOPHWT07c5xTGr18wD+vRpeumO8fp+ElyxZ54Wm+tKJFoncW0bUvzXc0LS3miFmKW7KQkpRQKi3NF+1LTR+Zp6QWUxyzpApRUVHJlpYW7fMV+yk5NeFqLXWo1iT+h9I1e3dLS9p92a6lHa5U3Fpnvbtf5Z55wfT1uvacruXv7+q3nrXaC9ex3vmTt/iH67xBm0XLFea5Oi3G7JS/v2vo1zbFO63Jhwn+4ToXD4V5Trzk7+8aX7Z6thfuHf3Dda7+8cK8o/z9nfrZC+MIAQiED4FD+1b0Stwz/7bwaREtgQAEIJDPBMguZAkgIoRs14VXxYvFVF4UVaTUvwuyVXO+LTJhydTG9QuyzNAsK/WUA9vHDD60872RaVHRW4pV6jXXUtMqbYk//d3kQ8sHRBer/GWREmeOT07dce/WubXfTE09cn50ictmpgsOSVHFKsRHFany0dF9ox/bEn/G/fs3vfagWXJ9X1SZDaHJglpDAAIQgAAEIAABCEAgsgkgIkR2/wdN6xtesmRJ3BUJBSYibFv1WqylpVwYFV3mcNBACMKKlDvtyQPV49b+vVrztbdWb7H+uurNlg8vX+P6pGrNV/VL97+7WvN1N1ZuPHNuxfrfrE+/To+3pnu15mu7Vaz70r6qcUv/VbnRjHgtcaget/qx6nErhlRrvvKF9PDbqp49dUEQNpcqQQACEIAABCAAgXAnQPsgcNIEEBFOGiEZhCKBA3smlVa9y1S8YoeOOAhEOoH4cWXvjh9b5t5I50D7IQABCEAAAsFLgJpBIDgIICIERz9QiwImkJZyJFpFRhUpk6ojDgIRTyAlqY6lHq0X8RwAAIF8IlC8zBmDSpRvOjKfsiMbCEAg1AlQfwiEEQFEhDDqTJoCAQhAAAIQgEBwEGjQZuGK+hfMWBcctaEWEIDAyRAgLQQgcCwBRIRjeXBVSATmjavUec630VMKqvh650/a2uKqtJJV6z7EnggFBZ1yIAABCEAAAhCAQMESoDQIQCAABBARAgCVLCEAAQiEHIHomNUWVXRlyNWbCkMAAhCAQJgSoFkQgECwEkBECNaeoV4QgAAECpBA3BUJ78ZduW9YARZJURAIawJLp551xrLprU4L60bSOAhkRwB/CEAgrAkgIoR199I4CEAAAhCAAAQKg8ChfSt6Je6Zf1thlE2ZEDgZAqSFAAQgcDwCiAjHI0R4gRAoFlN5UVSRUv8ukMLSC9m4uHep+O9K9ks/5T8EIAABCEAAAhAIBwK0AQIQgECBEEBEKBDMFHI8Ag0vWbIk7oqEAhMRDu+PL5Wamth326rXYo9XN8IhAAEIQAACEIBAYAmQOwQgAIHQIYCIEDp9RU0hAAEIBIzAvAnVLpk3vurlASuAjCEAAQiEKwHaBQEIQCDCCCAiRFiH01wIQAACWRFIS9p3aVpywhVZheEHAQjknUDxMmcMKlG+6ci8pyRFQRKgLAhAAAIQyDsBRIS8MyMFBCAAAQhAAAIQyJFAgzYLV9S/YMa6HCMReDIESAsBCEAAAoVEABGhkMBT7LEE5o2r1HnOt9FTjvUN3FW98ydtbXFVWsmqdR86HLhSyBkCEIAABCAAgT8TwAcCEIAABEKZACJCKPcedYcABCAAAQhAAAIFSYCyIAABCEAg4gkgIkT8LQAACEAAAmZxHRMfi+t4+CFYQAAC+UNg6dSzzlg2vdVp+ZNb/uRCLhCAAAQgAIH8IICIkB8UyQMCEIAABCAAAQj4ETi0b0WvxD3zb/PzOplT0kIAAhCAAASChgAiQtB0RWRXpFhM5UVRRUr9u6AobFzcu1T8dyX7FVR5lAMBCEAAApFKgHZDAAIQgAAEwosAIkJ49WfItqbhJUuWxF2RUGAiwuH98aVSUxP7blv1WmzIQqPiEIAABCAQWALkDgEIQAACEIDAnwggIvwJCR4QgAAEIo9lMD07AAAQAElEQVTAvAnVLpk3vurlkddyWhyuBGgXBCAAAQhAAAKBIYCIEBiu5AoBCEAgpAikJe27NC054YqQqjSVDVcCYdEuX5Gy30bFlPsxLBpDIyAAAQhAAAJ+BBAR/GBwCgEIQAACEIDAyRAgrUeg2eXbv23aYfMU75ojBCAAAQhAIFwIICKES0+GeDvmjavUec630QX2slXv/ElbW1yVVrJq3YcOhzg6qg8BCEAgfwiQCwQgAAEIQAACEMgFAUSEXEAiCgQgAAEIQCCYCVA3CEAAAhCAAAQgUFAEEBEKijTlQAACEAhiAnEdEx+L63j4oSCuYrhWjXZBAAIQgAAEIACBkCKAiBBS3UVlIQABCEAgeAhQEwhkTyD+u2JvxX9Xon/2MQiBAAQgAAEIhCYBRITQ7Lewq3WxmMqLooqU+ndBNWzj4t6l4r8r2a+gyqMcCEAgyAhQHQhAAAIQgAAEIACBEyKAiHBC2EiU3wQaXrJkSdwVCQUmIhzeH18qNTWx77ZVr8Xmd1vIDwIQCCwBcocABCAAAQhAAAIQKDwCiAiFx56SIQABCAQNgXkTql0yb3zVywNcIbKHAAQgAAEIQAACEAhxAogIId6BVB8CEIBAfhBIS9p3aVpywhXZ50UIBCCQFwK+ImW/jYop92Ne0hAXAhCAAAQgEAoEEBFCoZeoIwQgAIGTIUBaCECgwAk0u3z7t007bJ5S4AVTIAQgAAEIQCDABBARAgyY7HNHYN64Sp3nfBtdYC9b9c6ftLXFVWklq9Z96HDuakgsCBQOAUqFAAQgAAEIQAACEIBAMBFARAim3qAuEIBAOBGgLRCAAAQgAAEIQAACEAg7AogIYdelNAgCEDh5ApGXQ1zHxMfiOh5+KPJaToshAAEIQAACEIAABPJCABEhL7SICwEIBD8BaggBCEAgCAjEf1fsrfjvSvQPgqpQBQhAAAIQgEC+EkBEyFecZHaiBNJSDp3hs6hEK6B/K3+5tFr8d7EvbVv1WmwBFUkxuSBAFAhAAAIQgAAEIAABCEAguAkgIgR3/0RM7dLSjjZKS0tuU1AN3r975jWpqUfu3bLyhYsLqswwL4fmQQACEIAABCAAAQhAAAIRQAARIQI6OdibuGbONRXT0lI0mN8f/13JvgVR37SUIx1VTkrSLtaAm0jgIp3AvAnVLpk3vurlkc6B9kMgHwkUTc8La7d0CPyHAAQgAIHwIoCIEF79GZKt2bt94u3ms61mvi2pqYn9LMD/5k2ofnFaWnJ7V0xayoXzJ9QoMAsIV2Z+fpAXBPKJQFrSvkvTkhOuyKfsyAYCEU8gNTWpTWrq4asiHgQAIAABCEAg7AggIoRdl4ZWgzYsvLt0avKhh6J8xb80n2+/+aKnBtoaIfXozn9GRRV/Q6TSjy8mH90ecOFCZWV2XEMAAhCAQHgSWDSx9nlmaTXSXZ1l01udFp6tpFUQgAAEIBCpBBARIrXng6TdOzd8+g/zRS30FSm+RFUqUrTKc4G0Rlg44bQL09KSry5d6YLBKq9Gg+desrSUNnm0RlBSHAQgAAEIQCBLAkePbr7LLGpVuluQuGdugSzTy7IieEIAAhCAAAQCQAARIQBQyTJ3BHZtGFE0NXn/kxIOvBRNO2yeagG0Rjh6dPP/RUWVeM4rT0ddJ2ONIBQ4CEAAAhA4SQKLJ53RNDX16N99vqj5UVExP6ef34I1wklCJTkEIAABCAQVAUSEoOqOyKrM+oX39kwXDGY54cCv6RIVsrRG8ItzIqeLJp7WKi0tuUNcx4MD/dO7a6wR/JFwHoEE4jomPhbX8TAbjUZg39Pk/CVw+PDah6Oiin6ULiIcMIvaq3OsEfKXMblBAAIQgEDhEig0EWHn4gua7VzYuMehVU3G7FvacAouvBlk1b+pyYlP1qhevarCKpWPebpoTEwDndc+texzxYrF7l89reJKXeeXS0vb/mX58hW2KL8KJdd+qT+92KNvTdK1/KNtzyid4yLvXjyypvkHW+c1uPXgtmHFdV/gIAABCJwIgSVTGjVIF6s7lyjfPEOs1jnWCCdCkzQQgAAEIBCsBApFRNg694wHTzul6Gd/verSl7t2vbn9Pffc1QIXtAwC1jfdu3e3hx/ueab6vkOHy+pcffVVJXUu17fvY6XvuuvO6jrPL3fDDdeX7tevr8uza9e/N+ncubPdddcdccpf/jff3KW0znGRdy9ef/01113V8eI3ow68uWjbwrZnBesXNvWCAASCm8Dh/asekeVB/QtmrPNqqnP5YY3gEeEIAQhAAAKhTqDARYTtC1q0OeOMWr3HjR1b84033rA+ffpYr169cAFhENxchw8fntHvH3zwgY0aNSrjun///vbSSy9lXOfHPaIyvHyefvppV96jjz6aUcb777+fce7F4xjc91B+9Y/utzfffNNGjPh31SJpG6bsWtGlSqh/uVP//Cewe2H7M7bPa3zT1rn1+uJgkPkeWD+z1kupqUdvrFixyl6FFSkS3bRYsejWOpdfetgt6XFe1DWO++dP98D8Rp33rPjbKfn/zUWOEIAABPKfQIGKCId2vhZbqvjhkYMGvVK+eHGshnPsTgIhAIECJ3Duuedav379isWkxP+rwAsv5ALnTah2ybzxVS8v5GoEbfFJ6+LGF4vdOrN+/RpvnXPOWb1xMMh8D1xwQYu7W7RokZx+/KfCqlatdHatWjVa6Vx+/mHyw3EP+d8DDc6o8a/olIW/pW46772g/SKkYhCAAAT+IFCgIkLizm9OTU1NKd+8efM/ig/PA62CAARCl0CrVq3SK58Wl/4RUf/TkvZdmpaccEVENTqXjd23tP6axx57tPWSxYtjJ06cGPPVV18VxcEgq3tg9uzZRTz/9evXRy1btizau/YP8/w4ch9598CkSZNili9fXqzLTdd3Prii0bxcfj0RDQIQgEChEChQESElaV/V2rXrHC6UluauUGJBAAIRTqBx48Z28OCBChGOgeb/QWDf8rOf79btnio33XTTHz4cIAABCASOQO/evYvceecddbbOq39P4EohZwhAAAInR6BARYSTq+rxUhMOAQhAAAIQyF8CRaJSb/zdOiV/8yU3CEAAAtkROP3006OrVi59S3bh+EMAAhAobALBISIUNgXKhwAEIAABCGRBICFhb1VEhCzA4AUBCASMQM2aNW3r1i2s/Q0YYTKGAAROlsBJiwgnWwHSRy6BzZs326BBg2zgwIH2ySef2MGDBx2MefPmmXbL79Gjh/3444+Wlpbm/Hft2mX6RY977rnH3nnnHUtMTHT+33//ve3fv9+Sk5Pt66+/ttmzZ9srr7xiEyZMMJXx+eefuzBFVpj8dL5x40ZX/h133GHDhg2zhIQEeeMgEJEE4jomPhbX8fBDEdl4Gg0BCEAAAhCAAAQgkCsCioSIIAq4QiGgQfvpp59uffv2Nanu3333nS1btswkCvTr18+GDh1q69evt6lTpzrBQMLBtddea2+//badd955pp9kTElJcWkOHTpkX331lVWuXNnOOeccK1mypGkDT5Uxbdo0mz59umvjunXrnFiwevVqe+utt+zuu+92+fzzn/+0MmXKuDh8QAACEIAABCAAAQhAAAIQCDMC+dYcRIR8Q0lGJ0JA1gfbt2+3lStXWo0aNWzu3LnWsmVLK1asmEVFRbnz+Ph4k9VAiRIl7NRTT3XF1K9f3/bt2+cEAVkqyJKhQoUKdsEFF7hw/w/5SUhQOZ7/L7/8Yn/5y18yhIOYmBjz+XxeMEcIQAACEIAABCAAAQhAAAJBQiC4qoGIEFz9EXG12bJliy1YsMBkSSCrgujoaJNY4IGQRYHEBIWVL1/e87aiRYta8eLFLTU11fbu3Ws7duywNWvWZCx9yIiYfqL0V199tX355ZcufrqXeeUcPXrUPvzwQ7vvvvtsyZIlCsJBAAIQgAAEjiEgKzktvXvxxRedZZvEay2fk5/cDz/8YP/973/tyJEjLt3OnTtt4sSJNnr0aBsyZIh7RvnHnzx5souvZ5uW43366afO4k7X3377re3evdvlwwcEIAABCIQBgTBsQlQYtokmhRCBevXq2SWXXGJ//etf7bfffrNTTjnFtNTAa4KWH2ipQ9WqVd1LmPeCpmUKEhBKly5tEhfuv/9+l0Qvcu4k04d+tq9IkSIm0UJBKmfhwoUmC4SuXbvaxRdfLG8cBCKWwLwJ1S6ZN77q5RELgIZDIAcC27Zts9atW1uvXr1s5syZtmLFCrfnjpbCaUmeniGymJNTNnPmzHEWdXr2yMpOS+20H48Xv02bNi4PCQirVq1ye/jIIs+7LlWqlLLBQQACEIBAIROg+KwJICJkzQXfAiKgQb9mcV544QW3z4H2OpBVgV7KBgwYYFOmTLEOHTqYlipoh/Q+ffq4jRgVv1OnTu4lTVWVtcGNN95ov/76q2n5w6xZs9zSCIXJ+Xw+69y5s3tp07XK0XKIRx55xOWncmSdoDAcBCKRQFrSvkvTkhOuiMS202YI5IWAnhUSoCVky2JAVgeyatNzReKBzhcvXmxnnXXWMdn6x1dA9erVbe3atSYRQcvrJEzoWv6ytlMcHAQgAAEInDABEgaQACJCAOGSdc4EGjZs6DZPlGAgc8/zzz/fZC2gX1+QsKBfaJBo4M3IaG+D1157zW3E+NJLL5n2RVAJ3bt3t0qVKpniKX5cXJzbLFHig8q47rrrFM3Kli3rzErlp3L06w8vv/yyy0+/+nDmmWe6eHxAAAIQgAAEMhMYNWqU6blx9tlnW+3atd3ShUWLFtn8+fPdsjpZ1snabenSpW65nazk/POQJZ1/fD1zdK002gtIRwkK8vdPxzkEIACByCNAi4OdACJCsPcQ9YMABCAAAQhAoNAJXH/99SahWj8VrJ8U1r48WpagJXlVqlRxQrYE7TFjxrhfB/L5jt2sN3N8bRSsPYEqVqzofqFI+wHJmk7LHwq9sVQAAhCAwIkSIF1EEEBEiIhuppEQgAAEIAABCJwsgTp16litWrXcUjstiRs8eLBbEuf9jLB+WlgWBQ0aNDBtkqildfo1oD179rhfFPKPL+s4WcXVrVvXVUvLH7RMQqKC8+ADAhCAQAEToDgI5JYAIkJuSREPAhCAQBgTiOuY+Fhcx8MPhXETaRoETphA27ZtTU4ZdOnSxdq3b2+PPvqoae8eLcnTcjuFabnc0KFD3c8Ha++EW2+91bT8TksbMsdX+LPPPuv2A1Ja7amga/nrGgcBCEAgDwSICoECJYCIUKC4KQwCEIAABCAAAQhAAAIQgIBHgCMEQo8AIkLo9Rk1hgAEIAABCEAAAhCAAAQKmwDlQyBCCSAiRGjH02wIQAACEIAABCAAAQhEKgHaDQEInDiBAhcR9u/fX2Tq1KmGy5nBv//9bxiF8H3y1ltv0X8h3H8n/pVKSghAAAIQgAAEAkyA7CEAgUImUKAiQkryvvM3bdoYq82FcI+6TZmy4/DMM8/YmbeF3wAAEABJREFUfffdl2Oc7NLinzPbguDz3HPP2UMPPUT/PVr4fXEi/V3I38sUDwEIQAACEAhTAjQLAhAIBwIFKiJEFynzS4MGDQ/op5Bw0y0nBmeffbY9+eSTOcbJKT1hOfMNNJ9SpUrZyJEj6b/phdsPJ9rP4fDlnts2JGx8vuSW+Lr996/vXj63aSItXmpqquFgwD3APVBQ90BaWlpwfs1SKwhAAAJ/EChQEeGPMjlAAAIQgEAACRzY/XP0/s2DSuxZ8bdT9qzsXHPP5lExO3+7sOmuVY+U2bvu6VKHdr4Wq+J1TEk6EFW8wq2vxlZ9aq/SbV/UrvGuFV2qJB3Z5lNcHRVP50qjPLatei1255LL6u9Y3L6h8pZ/OLq9a+6oqHbVqlXLcDDgHuAeKKh74Prrr9dXT746MoMABCCQnwQQEfKTJnlBAAIQCAICh7YPr3xw6+vfHj648OqUpD2lj2zt81SKL6loUsKopw7t+axjwsa3blc104//SNk37rxDuz/otWfds2X3r7v94dTkvVWT9s+6K10kuPTQ7pH9Dq66v3rCxrf+cWj3iOclJBzdN/qxtIRhDyUf3VYvLfVASUv8tIryCkdXrvb7u9SumTNnGu7PDLTsrnHjxrAJkfujR48edumll9JfIdBfb775pr56PMcRAhCAQNARQEQIui6hQhCAAATyg0DRnys1nPpmWlpicbPkpqlJO24zSz3D5/OlWOrReruWXX1q+rFuWtEzFqu0tKSlFS31SPu0lIS/pVlSk6i0Qw18vqJLjh5dfE5aWnK6UBC183DCV+f60nzJFl3qF0vZd0NamvlK1Rq2WenD2RXU7GOolVOxYkUrVqwYVhohYqlStmxZK1GiBP1VoP11YtYblStXDuevVNoGAQiEAQFEhDDoRJoAAQhAIDOBNJ8lxRSrmpaaUiTZomImV2++5r5qzdddVa3pwtEWHTs/6dDi63QsWqLhfqWNiopO9UXFxJc4ZXjP6s3X3VQ1bsWQ6KLlF6SkHbjE54tZ64sqNcuS995gUbELqjWd933pmr27pSXtvmzX0g5XKj0OAhCAQFgRoDEQgAAEIJAtAUSEbNEQAAEIQCD0CRSt+MDStLTUKlvnnv7B1rm1B21bdFnd6KKnTbPUI1cVKXrKr14Lo2Nb7PRZ9OZDG7v9v/R4w3csatm8eJlz1lhqan2LKrc0Nqb+PLOUhkWK1Zi/Jf7Me/dveu1Bs+T6vqgyG4x/EIAABIKIAFWBAAQgAIHAEggaEWHz5s02aNAgGzhwoH3//ffp762ptmzZMueEYPbs2fbrrxnvu/KKSJeYmGjDhw83HfMK4PPPP7clS5ZkJBPP8ePHZ1zn5eTQoUOmNXv79u3LSLZz507nl+HByZ8IrFmzxl555RWbMGHCn8LkkZycbElJSTrFQeCECVRu8P+2Vo9bNUAZlK9xfVL1uNWPVWu+9tZqzdf0qtp44qrKDcetqdZ8Q/tKDScuK3fakwfS4z5dofZz+6vGLR9arfm6G9Pj9ajceObcUqcM2Vu9xforqjWZ+Uu5Rp9trtZ8fTulqR63fFi15itfqNZ87W1Vz566QOXgIAABCOQDAbKAAAQgAIEQIBA0IkJCQoKdfvrp1qdPH9u4caNJNNi2bZvJLV682H777Tdr3rx5CCAtmCru2rXLcUpNTXUFavC5YsUK2717t7vWx4EDB2zp0qV29OhRXWY4pdHgv2nTpnbxxRc7wUZxJeSsX7/eXSuy8lJfHDlyxJS//DwXGxtrt912m5UuXdqFqWz1oRfOMWsCtWvXtpIlS7p7Wf0iMUjsxDotLc3Gjh1rEydOzBCJdP/794nSrFy50iTiHD582BUi7spDfaQ8FCY/pXMR+IBALgjoFxe2rni+eC6iEgUCEIBAFgTwggAEIACBSCEQNCKCBzwqKsqKFy/uBqbyW7hwoU2aNMluvfVWK1KkiLwi3mnAKJFF4sq7775rBw8etJdeeskkBHz66ac2ZcoUZ8EhSwENLF944QXbvn2746ZZ7mHDhtmGDRvsl19+cbs0awD7wAMP2OrVq23WrFluIBsfH29vvfWW7dixwx588EFTmS6DPz40UB0xYoTt3bvXnnvuOdu0aZNNnjzZxf8jCofjENBu77179zYN/N977z1bu3atbdmyxV0r6fTp011fSjRQP4v1gAEDbP/+/fbyyy+bLEtkraOj/F599VWTePDUU0/ZJ5988ifxSHniIJAdgc1L+z25ZfnTA7MLxx8CEAhjAjQNAhCAAAQgkAcCUXmIG/CoX331lekniDSoOu+881x5mknXAFgDZefBh9WtW9cuv/xya926tRMQtEShXr16FhcXZ9ddd51JeJHlRseOHe2ss85y8cRRFggSGc4991zTz3KZ3z9ZeVx44YXWqFEjW758uWnges0117g8L7vsMr+Yx55KuNAO3RdddJEpfqVKlY6NwFWOBNRfZ555plWrVs0JCLGxsc66QztoT5061RYsWGDTpk2zdevWmZZCNGnSxPXJ9ddfb4o7Z84cZ20ybtw4J0JITNAO7127djXdEzkWTiAEIHDCBGQV9OGHH7oleO+//777LpY1lwReZSrhVcJqSkqKLnE5EJCQLdFbIncO0bINyip9JC2vyxZMLgP0bGGZXS5hEQ0CEIAABByBoBIRNAjVev8bbrghw+qgc+fObmCsmVrNqrtaR/iHXl49FkWLFrWYmBjzTNsltkgs8Pl8GTPRmp2WFYfEmRYtWtiPP/7orBb8MUZHR5vP53NeyltxVY48jvcSrBc/lam4uLwRUL8ohXiLu849p6Ui99xzj/Xv398NVCQaeP2s+GKu/r/55putb9++bq8MCTqy5vHy4AgBCASGgP5eJdr17NnTLU+SoKDvWgl+sijSvifnn3++6bs1MDUI7lz1XaVniERpsRIbCSs6l/iso1qgJV0STbU8Ts8y+cvCSnH0HadwL57y03efluMpTP5y5cqVc8vrvPQqR+UpLMhdUFSvtt8yO1kZirkmHtQH4u2/zE7cNckg4carvM4zL30Uf/WD+lN5KF/5sczOo8YRAhCAQGgTCCoRITuUzZo1s+rVqzvT7uziRJK/LDO0ROHxxx83/ZawrApk6v7UU0+5gWT79u1NVgUyaX/mmWfcbLZmsPUy27BhQ+vUqZNJlNHLQHbcWrZs6Uzi3377bbecJLt4ennz+Xymurz++utuNi67uPibW/ahJSNz587NEof6UoMPhbdr186ef/55JyCMHj3a6tSpY1u3bnXLTLTUROKN+vmDDz4w9fOIESNM+1dkmTGeEIBAwAhI8NMAVwVoadfIkSPdoLZUqVLyikj3xRdfmJ5J2r9HQoL/sistudNyLQ0uZcWhQamYafCqiQR9t+m4aNEi930ncfydd94xT6j597//nbHkUXA1iFV6ff8V3PI6lRx+Ts8aLY+UGD148GDTu4VEMfWVJhTEWX2qeFoSmdXSR4lA/v0t8UD3gt5JvL+T8CNHiyAAAQhEFoGoYGmuBrcy7favT9u2bU3O5/NZly5dTINj//BIPNeMjQQE/YqF1sDfeOONzmpDexroIa218lqSINFF8Z544gk3k62XWfEVZy1x0D4HGqSKr5YgdO/e3eFUuNbpn3rqqab0mgnXsgmfz+c2bZSJqJwia+mJXp41E+cNdpVWYbisCdSsWdP00tyhQwd3b4u/YmrPD53LUuTZZ591M5vqx6FDhzorA1nkFCtWzB555BHr1q2b3XHHHSYrBPWz7gP18+23327ly5d3S4J0nyhfHARyS6BE2cbvFi/beFhu4xPPbNWqVW7PGA2Y/v73vzskmn3VoHbPnj3uOlI/ZBVwyy23WKtWrWzevHnHLLvS80WDT+3No4GpxHBxkhWHBIdvvvnG7dsjhmXKlHFL9DSolbigJV763tP3n9L4O1mGyBrruMvr/BNxfgwBWbzJGlTL7PTM0b5I8tOzXiKNRHAt05Hwo/tfx2uuucYts/OWPrLM7hikXEAAAhAISwJBIyKEJd0QbpRe7mQi369fP/dLAZoFN/4VKgHN4Mja4+mnn7aPP/7YiRCFWiEKDysC9VvPWt2g9ZyVYdWoADdG+9O88cYbTtzT4FXFtWvXzu6//35n7SVzcPlFotOg3+f7fYmcBvz+y65kcSVx4IcffjDtfyQrOTHSUdd69gwZMsR9x2kw+9NPP9k555zjLO80gJWf4mflJDTkZGWXVRr8/kfAv9/EUSKPF6qwBg0a2KOPPuo2c1afykJBzybF8eJm7m/9bSit4uAgAAEIQCA8CCAihEc/5nsrtDmfrB1kGqqZb70UVKhQwWS1IMdMd74jP26G6oOePXvak08+aS+++KJVqVLluGmIAAEIFDwBfX/KsmjMmDGmQVbB1yC4Svxj2dUxy660me+MGTNM1m9ebSVWy4pDIoKs6iRmS6jR+vzTTz/dbfyrzSt17qXxP8oSy+djeZ0/k9ycawmOLAy0jC6r+BJ9tMxOGzDKaqRPnz4mizn9QlRWSx+z6u+s8sUPAhCAAARClwAiQuj2HTWHAAQgAIFCIiAhVUu6dPSqoAGxlo3pWsvvtAzP5/t9Nl5+oevyXnNxEA+l1PID/2VXMo9v2rSp2++gXLlyTpzWkjptNCuhVAK2lsZJjPGWgNWoUcMJDtobQcvzJDZoaZ2crBqUXpYMSs/yOlHPvfMYa5mdf7+pD9SH3jI7HXVPS+B5/PHHnaijpSn+Sx/VB5n7W+JO5r+V3NeOmBCAAAQgEIwEEBGCsVeoEwQgAIECJrBs2rl1lk5rUa+Ai6W4QBMgfwgEkICsRWQ5wtLHAEImawhAAAJBSAARIQg7hSpBAAIQKGgCiQmL7j6UsOjegi6X8rInQEjWBGSx4L+8Tku9so6Jb6AJyFpEliPe0kf1TaDLJH8IQAACECh8AogIhd8H1AACEIAABMKLAK2BAAQgAAEIQAACYUsAESFsu5aGQQACEIBA3gmQAgIQgAAEIAABCEAgJwKICDnRIQwCEIAABEKHADWFAAQgAAEIQAACEAg4AUSEgCOmAAhAAALBT6BE2cbvFi/beFhh1ZRyIQABCEAAAhCAAARCgwAiQmj0E7WEAAQgEFAC9VvPWt2g9ZyVJ1AISSAAAQhAAAIQgAAEIogAIkIEdTZNhQAEIHAsAa4gAAEIQAACEIAABCCQNwKICHnjRWwIQAACwUGAWkAAAhCAAAQgAAEIQKAQCCAiFAJ0ioQABCKbQDC2ftm0c+ssndaiXjDWjTpBAAIQgAAEIAABCAQPAUSE4OkLagIBCAQ/gbCtYWLCorsPJSy6N2wbSMMgAAEIQAACEIAABPKFQNCICJs3b7ZBgwbZwIEDbejQobZixQqbPXu2a6TOJ0+ebCkpKe6aj8ATSE5OtqSkpOMWtHv3bnvzzTePibtkyRL7/PPPj5s2EiOsWbPGXnnlFZswYUKWzc8t9ywT43kcAgRDAAIQgIk/WCsAABAASURBVAAEIAABCEAAAidLIGhEhISEBDv99NOtb9++dt9995kGU+vWrbMtW7a4Adf5559v0dHRJ9vekE+flpZmiYmJtmvXLlu5cqWlpqY6d/jwYdu2bZtt377dXa9fv94kzCi+4hw4cMBdb9y40eQnEGIugUas5Xfo0CGTn7iPHTvWJk6caPv27TOlVXzlo2vF1bVcuXLl7LbbbrOYmBg7evSoLV261JSPwnB/JlC7dm0rWbKkNW/e3PFSX6oPJMaIq8dd/kqtPlVfir2uxVj9Lsbqc/mpz5RH5n5UOoWHhaMREIAABCAAAQhAAAIQgEBQEAgaESErGps2bbKRI0e6QWqpUqWyihJxfho89uvXz6ZMmeIG7G+99ZYTFO6//3778ccf3cBUfqtXr7Zp06bZqFGjTAPUBx54wIkOmgH/5ptvbNmyZc5aYP/+/fbqq6868eCpp56yTz75xI4cOeLEGw1qda78JCRoFl3hPp/PvH/KW32k4+OPP+4EBOXvDYK9eBz/TGDmzJnWu3dvJ+q89957tnbt2gzuij19+nTXzxIN3n33Xdu7d68NGDDA1Gcvv/yy67+c+lGCg/IpbEf5EAhHAvr7+vDDD531nCzoFi5caN9//737Dtb35RdffOFE2HBsezC1Sc9EPatyqpPiyGJOIrh/PPnt3LnT3ysiz/Vsx0IuIrueRkMAAhA4YQJBJSL88MMP7oVML2Yypdfsqgane/bsOeEGhmPCunXr2uWXX27t27c3zUbrhbVp06Z2ww03WGxsrLNEuOiii6xTp07OMkEvUJr5btOmjV199dUmgUFLRWQ1MG7cODd41cC0Vq1a1rVrVzvzzDNdPqVLl7bKlSvbGWec4QSIOXPmWMuWLS2rf5oxP+eccywuLi6jHlnFw+9YAtddd53jXa1aNScgqP/EvUSJEjZ16lRbsGCBE4NkHaIXvSZNmjjG119/vesj9Ul2/VivXr1jC8v7FSkiiECJso3fLV628bAIavJJNVWWP/re7Nmzp7Ogq1OnjhN29X0rsbVx48ZWpkyZkyojlBOLg8RkfT/pqLboeSXxZfny5c7aUM93PefFUkKA4vlb2SmNrLAkpCqurvVuoDz0HJO13ZAhQ0wTDrLIUh5yEguUTvHl9L0qizl9typc6fyt8hQnkl1tPws5/37Tu4V4+VvIiat/f4ib+kY8NemgvpSf+sO/b5Wv/LCQEx0cBCAAgdAnEFQiwsUXX+xexjSQlXl8u3btTDPsmqXVwyz0cedPC/QC5T2oixYtakWKFHFLPXw+n0VFRTkRQQ96xdOD2+fzuT0L5CdXrFgxk7v55psd7+HDh1vFihVdWsvi37nnnusGtHq5q1+/fhYxfvfSC+LvZ3zmloD6TnH1oub1qa7l9MJ7zz33WP/+/Z24phdhj7Hiqy/V/1n3o3LAQSD3BOq3nrW6Qes5K3OfgpiZCehvWLPbrVq1spy+KzOnC8fr0aNH20svveQsM5577jlnESfrDFm86VkiS7kvv/zSNEmgeBqIZrayE09Zuim+8vvll19sxowZJuFGllsHDx506fV9+O9//9sJscpP7wxK63HVc3DEiBHOUk5ljhkzJkNM9+Jw/J2AOKs/9C4xePBgZwGnZaVirH2pMvdHfHy8yVpxx44d9uCDD7r9rLCQ+50lnxCAAATCmUBUsDdOs+Nt27Y1PfT1EAv2+hZE/bTvgUwPH3/8cWcpULx48Yxiy5cvb5rVfuKJJ+yFF14wCQCxsbGmmR+9yMkc/qyzzrILL7zQPvjgA3vmmWdML1eaQcjIJP1Es2ha+jB37lyrXr26exGsVKmSEx/Sg//0/7TTTnNlPPnkk5b5Be5PkSPYQzNms2bNMnHNCoPjPmGCC5eI9vzzzzsBQS92muncunWre2HTS5tm5I7Xj1mVgR8EIJA/BDT7qu9ibQqsv039fWsWnNlWc5ZSso6T9ZQs5cREkwO33HKLSWRZvHixXXXVVXbeeeeZrKYUntnKbsOGDabvS22srNnvVatWuY7r3Lmzs8TT806CuERw5aMlJXL6HpXA6iJn+lA/XXvttSbLPFnoZQqO+Eu9L6jfZJEothIH5CdRW+8JmftD/XLNNdc4C7nLLrvM8cNCzmHgAwIQgEBYEwgaEaFhw4Ym027745//tcz2u3TpYj7f/9bi/xEtIg+nnnqq9enTx+1lcOONN5oG9927d3csfD6fW06gNboSETQQVYBe5DSjrV++kCgjYUB7IUhsuP32200vYz169DCZ0St+ixYt7Nlnn3UbAOq6QoUKTnjQ7I5mjLSOVE7muipb6RT/6aefdr+yof5Sukhzx2tvzZo17f3337cOHTqY+kFOaW699VZ37c+9UaNG7pdKtNmoXpr1QvfII49Yt27d7I477jC9JB+vH5U3DgIQCAyBU045xf7v//7PevXqZRJvJaY++uijNm/ePFu0aFFgCg2RXCX6yxrOq66+vzS77fP97zkuIVThsh7QxsmKr2eM/PT9JtegQQMTU82Oy+pKYZ4Fl849p2ecBrRir6V1nn/mo2bTvXIzh3FtziLR5/M5FLJ2Ey93kf6h/svcH/797MVVv6mv9Ow6nqVjerb8hwAEIACBECQQNCJCCLIrlCr7fD63ztbn+/0hn5tK6MF/ohtTajM/rTnVLwpowJqb8kI0TtBXWy/Yr7/+ukmo+fjjj53oEPSVpoIhQ2DZtHPrLJ3Wol7IVDhIK6rZdgmzsp6L5GV4EgNGjBhhsk777bffTAKLf5e1a9fO9H2m5Q2a4da6/MxWdjVq1HDWdhLNJVLLesE/D4nYGrB+/vnnpsGs9vCRQCBR3D+e/7msImThJSs8md37h0XquSxoZGFwPAs57csjxv79oX2StAfI22+/bZMmTXIIsZBzGPiAAAQgENYEEBFCrHu1dEHmoDrmtuqyItA+E7mN7x9PP+GoX3aQeaPP53P7Lyg/WT/I6QXOP37hnEdGqWLds2dP91L+4osvWpUqVSKj4bSyQAgkJiy6+1DConsLpLAwKETWV/7WW/7XElw10DpR8TYM8Lilb9rTRaKnBADxkbWhrAzVPlla6VdmJCLoGSNLhMxWdj6fz2TVpnhavqc0st6SUx76TtRst55vMreXtYNM6iUo+FvMKa7XV0orizxZ5kkg13NM4ZHs/C3k/PtIvx6k/vIs5HTM3B/qM1k9qq9bt27t9mfS/Z+TpWMks6btEIAABMKFACJCuPRkqLaDekMAAhCAQNgRkGggq4zcNszny7uVnZe3NpzVHj/aQ0FCg+fPMfAExFxCjjbF1K9raO+ewJdKCRCAAAQgUNgEEBEKuwdCuHyqDgEIQAACEMiKwJVXXuk2TMwqLCs/Wdfl1crOyyc2Nta0r8y9997rrOW0hM/fYk6ChheXY/4S0ObX2oNJGzdrv56s9qvI3xLJDQIQgAAEgoEAIkIw9ELB14ESIQABCEAAAhCAAAQgAAEIQAACeSaAiJBnZIWdgPIhAAEI5D+BEmUbv1u8bONh+Z8zOUIAAhCAAAQgAAEIhBMBRISC7E3KggAEIBCkBOq3nrW6Qes5K4O0elQLAhCAAAQgAAEIQCBICCAi5LIjiAYBCEAAAhCAAAQgAAEIQAACEIh0ApEgIkR6H9N+CEAAAhCAAAQgAAEIQAACEIBAvhAIchEhX9pIJhCAAAQgcBwCy6adW2fptBb1jhONYAhAAAIQgAAEIACBCCcQOBEhwsHSfAhAAAKhRCAxYdHdhxIW3RtKdaauEIAABCAAAQhAAAIFTyBLEaHgq0GJEIAABCAAAQhAAAIQgAAEIAABCBQ0gbyWh4iQV2LEhwAEIAABCEAAAhCAAAQgAAEIFD6BQqlB0IgImzdvtkGDBtnAgQNt6NChtmLFCps9e7aDovPJkydbSkqKu+Yj/wjs3r3b3nzzTUtKSsrIdOfOnc4vw4OTfCOwZs0ae+WVV2zChAlZ5pmcnHxMX2QZCU8IBIZAanq2vnTH/z8ILJve6rSDBw/ajh07/vDhAAEIQAACEIAABPKLQOjmEzQiQkJCgp1++unWt29fu++++0yDqXXr1tmWLVvcgOv888+36Ojo0CWdTzVPS0uzxMRE0zE1NdWdK2uJAb/99lvGtXhKfBFHxT106JDJb/369Yqe4cqVK2e33XabxcTEOOZKo3gZETjJVwK1a9e2kiVLWvPmze3o0aOuv8Rc/ad+Gjt2rE2cONH5q+Bt27aZ+kx9rWulWblypak/Dx8+LC/Xr8rjeH3tIvMBgWwIRMVUGucrUvr7bIIjylviQfx3xd4+sGvmYgmslStXjqj201gIQAACEIAABI5DIMKDg0ZEyKofNm3aZCNHjnSD3FKlSmUVJeL8NHgcMWKEG0Rq4Ck+Eg+++uorK126tK1du9aWLVtmn3/+ue3fv99effVVN8h86qmn7JNPPnEDV39oXh5Hjhyx5557zsRcVh/MvPlTCsz5zJkzrXfv3k4Qeu+991zfSTSTmKASp0+fblOmTDGJBu+++67t3bvXBgwY4Pr15Zdfdn2cl75WnjgIZEegaYf1U5tdvuOb7MIjwd9fPFB7S1Vs2UhCq84zOwl6H374obOeGzhwoC1cuNC+//579x174MAB++KLL2zfvn2Zk3F9ggS+/vprmz9//jGpZUUny7ljPLnIMwEs5PKMjAQQgECIE6D6J08gqESEH374wb2Q6cVMsz+aXdUgd8+ePSff0jDOoUaNGm4AunjxYqtbt67NmTPHli5dauPGjXP+EhNq1aplXbt2tXr16mVJQnEqVqxoF110kV1zzTVWqVKlLOPhmb8ErrvuOjvzzDOtWrVqzuomNjbWiUElSpSwqVOn2oIFC2zatGkmqxy96DVp0sTi4uLs+uuvN8U9kb7O3xaQGwRCn8Cy6a1O8ywP1BqJB3Edj9xT/4IZ63SdlZPlj743e/bs6Szo6tSp4753JfRKsG3cuLGVKVMmq6QR4ScOYqTGynpO1lS6lvC5ceNG07WcRFI95xVPz32JM6tXr86wxpK/XIcOHUxMJbJq+aPy0LnCcCdHoLafhZz6Tf2ldwiJYWLsbyGXuc9UsvpP/aHJCPWx/GTRqHc4XSsP5Ss/WdYpHAcBCEDgBAmQLEgIBJWIcPHFF7uXMQ12ZV7frl07u//++02ztHqYBQmzoKmGHuZ6OGvA//TTT1uFChVs+PDhbmnCzTff7FjqWuJAVNTxu1ovcMozaBoYARUpUqSIa6X6US9b7uKPD1mW3HPPPda/f38nrkk08JYwKL76qmjRonYiff1HERwgkCWBeROqt5vzbfSMOd8WGee5eeMrX+0fecuyp0t4Yd5x3rhK1/vH0bkX5h3njSt3s/z93dxvY/7rhesYP67sHf7hOk+P84XCPBc/tkx3+fu79Dgfe+E6xo8t9YB/uM7T44xUWIYbEzVXyxZSU5Mu9fmiZ6alpZ5ycPfs4enxvpPbtWuXsxZS2uPK086DAAAQAElEQVQ5/Q1rdrxVq1ZWv37940UP6/D//ve/bm8jNVIWc7Ju0/NIIsH27dudRZX8xXf06NH2yy+/2IwZM0yijCzqlM7fefl9+eWXNmbMGJPQ4O2b5B+P85MjoL546aWXTO8MgwcPtr179zqBOy0tze1LlbnP4uPj7a233nL7hjz44IOuzyUUfZ5La8iTqy2pIQCB0CJAbcOJQFSwN0Yz6G3btnUvDXqIBXt9A12/YsWKOXPZZ555xm1EqUGlZqtff/11N3MtXq1bt7YPPvjAFGfEiBGm2YHj1at8+fLm8/ns8ccfN+WlzcSOl4bwvBPQcpFZs2bZ3Llzs0ysmbYJEya4cIlozz//vBMQ9GKnmc6tW7e6Fza9tEn0ufDCC/Pc11kWjCcE/AgUL3na2qjo2M+jfMWmei4mqvRmvyhWvf6TiV6Yd4yJLrXBP47OvTDvWCSqzLEbs6RH8kUXzShH8XxRJdakex/zPz3OzwrzXHqclcdESL/wRReb6YXr6IsquSLd+5j/vujisxSW4aJifvb5on8xS6umiL7oot/7ipQY5bnixYubz5f1fpOafdVGqdoUWH+b+vvWEgZmW0XyWBcdHW2nnnqqe5ZL2Nb3l74LtXxO1girVq1yCTp37mzt27c3WWM5j0wf4nzttddamzZt3N4ymYK5PEkCEqtvuOEGZyGn9w2JP/KTqK13icx9pr675pprnIXcZZdd5krHQs5h4AMC4UWA1kAgE4GgEREaNmxoMu22P/75X+uFokuXLtm+yP2RJCIOehHr2bOnaXD54osv2sMPP2xnn322PfTQQ/bII4+YXsCqV6/u9kJ44okn7PbbbzcJBD169HAvZZopk+mh1pHKydy2e/fubtNKL9+BAwe6tfoRAbSAG1mzZk17//33Taa5EsfkVIVbb73VdN6iRQt79tln3ctxo0aN3C+VaLNR9ate6NTH3bp1szvuuMNkhZBTXytfHAROhED9C2eujbvy4CtxHQ8+57nGl63+/edy/DL0wrxj48vWzvQLdqdemHc8q8P6aS7A7yO9rOe9cB2bddjyg1+wO02PM0hhnmt2+daJLsDvI+7KA2944To2u3zbWL9gdxp35b6hCvufO3J/807J7aOLVf2rmS8hNTlxgKUcblWiTKMf4q5IGJHdYNbS/51yyin2f//3f9arVy/TkqTTTjvNHn30UZs3b54tWrQoPQb/Jf57v6ykwaZmq7XcQ4PPBg0aOF6a+ZZFlWh51lk6z8opLwkQWYXhd/IEoqKiMt61ZO0m3l6uCsvcZ+pfWZcojhdXzyb1p55dsj6RaKS0ioODAAQKngAlQiAQBKICkSl5QgAC+U9AL2qyEtHSlY8//tgkOuR/KeQIgcgk0KzD1knNOyX9Lbpo5ZtS05IbaomD9knwBka5paKleBJvZXIfycvw9IsWw4YNM31faW28ZrG1Qexnn31m4qJ1+IrTp08fJ5wuXrw4V4ibNm3qRHRZ2slsPleJiJQjAVnQyMLgeBZy2pcnc5+1bNnSbdr89ttv26RJk1w5WMg5DHxAID8IkAcEgpYAIkLQdk1gKqZZHu2doH0U5DRjEJiSyDW/CaivZC3y5JNPmqxQqlSpkt9FkB8EIp5As8u3j2nRKaVtdEzF21NTky6QxVZWUGSh4Fl4Kdz/WhZCGhxH8q8KSeQcOnSo6ZeB3njjDZMV1t13323/+Mc/TAJA1apVTRaG+qUZLaOT5ZXSyImnNq0Uezmty//b3/5mslBUuPLVXjFDhgxhE2DBOkmnvvEs5GQRKs7KUr8epHPPQk7HzH2mJSovvPCCaf8eLaWUtaTuf/0yVFbWkMoXB4HIIEArIRDeBBARwrt/aR0EIAABCJwAgWZX7BzV4qrUs2WKfQLJSQKBiCCwYcMGt4lzv3793C9qaO8e4x8EQp0A9YcABI5LABHhuIiIAAEIQAACkUpA1luR2vbCbLc28pO1nFy5cuUy1ukXZp0o+88EtJmz9lF67rnnTPv18PfyZ0b4FCwBSoMABAqGACJCwXCmFAhAAAIQgAAEIAABCEAgawL4QgACIUQAESGEOouqQgACEIAABCAAAQhAILgIUBsIQCDSCCAiRFqP014IQAACEIAABCAAAQiIAA4CEIDACRBARDgBaCSBAAQgAAEIQAACEIBAYRKgbAhAAAKFRQARobDIUy4EIAABCEAAAhCAQCQSoM0QgAAEQpoAIkJIdx+VhwAEIAABCEAAAhAoOAKUBAEIQAACiAjcAxCAAAQgAAEIQAAC4U+AFkIAAhCAQL4QQETIF4xkAgEIQAACEIAABCAQKALkCwEIQAACwUMAESF4+oKaQAACEIAABCAAgXAjQHsgAAEIQCDMCASNiLB582b7/PPPLTk52SGePXu2yU8X8+bNs/79+1uPHj3sxx9/dP6DBg2ygQMHOqdzL67iyy1btszGjh1raWlpurTvv//e9u/fb9OnTzeFyfPo0aPO3zsqXP5yiiOn82B3hw4dymhnTnUV26SkpJyi2JIlS1w/ZBXp8OHDlpqamlUQfrkkoHvtww8/dPft4MGDbd26ddmmhHe2aAiAAAQgAIECIUAhEIAABCAAgT8TCBoRISEhwaZNm+YG+aqmBlfy00BeAkC/fv1s6NChtn79elu5cqX16tXLWrdu7ZzOa9SooWQZbu/evfb111/b8uXLnZ/yOXLkiEu7bds256dB9dKlS51w4YW7gPQPxZFLPw26/wcOHLDffvvN1MY9e/bYkCFDbMuWLZaSkmI7duywFStWuDZJQJHAII7iKVFl4sSJlpiY+Kc2aXArFoqvQKX1z0vsxF/sxU1OzFQXxcfljoC4Sazq2bOn3XnnnfbJJ5/YggULnAgE79wxJBYEIAABCOSCAFEgAAEIQAACASIQNCKC2nfBBRc4IWH79u26dG7u3LnWsmVLK1asmEVFRbnz+Ph4F5bThwbUHTp0sC+++CLLQXNOaYM5TBYX77zzjpUrV85Wr15tGsRLSFCdDx48aKtWrXIWF2+88Ybp+qmnnnIDVYkAEhokDiiuv9u9e7c9/vjjJgHhm2++cbyU1j8vlbNr1y6XTPGGDx9usmrQUfVwAXzkiUDJkiXtqquusjlz5ri+gnee8BEZAhCAQNgSoGEQgAAEIACBYCYQVCKCRIKrr77avvzyywyz+ejoaCtRokQGQw28FC/DI5sTzfhWqlTJzj33XNPsezbRQs5b4oHa9tNPP1n9+vWtePHiTmCRv4QWDewnTJhgGvBLOKhVq5Z17drVzjzzTIuNjbXSpUsfw1MAZHFxzjnnWFxcnN1www0uXkxMjBMJvLwUT/lXqFDBNm7c6Cw8JDhs2LDBXSscl3cCPp/PtGwB3nlnRwoIFCYBWW+NGjXKPNFbAq+W4alO+v6VkHvPPfeYRF/FkSWXtwRPR1lyKa7nlD6rJX2Kp2V4XjxZ5smaSf5ynr/Se+V7fsF81PeelsdJxH7zzTfd8yaY65uHuoVc1DVr1tgrr7xiet5nVXm9c+jdIqsw/CAAAQhAIDIJBJWIoC5o3LixFSlSxJnn6/qUU05xM+46l1u3bp3VrFlTp7ly7dq1c3sgeA/AypUrO1N/JfYejD6fT5ch4SSoPPLII84iQ3tByCrAq/iIESOsVKlSbu8ICSjyz43gonh6odPRc1nl5YVJ2DnvvPOsb9++bilF27ZtvSCOeSAgq5Bff/3V6tSpY/DOAziiQiAICOj5oT1kRo8e7ZaSecvGtFxMwsG1115rb7/9tum78rPPPrPu3bub/CT+6rtTR/9mKH1WS/ok8moZmRdXwoEEYvnLef5Kr+ejd13YRz1TJLRoSaGev9kt19Iz67bbbjM9V2TxJjFEyxYlMKgNykPt17NOecovcC4yc65du7ZpgqZ58+bOIlH3sJY3qj/0nPJfCql+UX9I/PFo6VyTC7ov9Xchf92PWS2tVN8qHAcBCEAAAqFNIOhEBJ/PZ507d3br+oVWL2B6+dBL14ABA2zKlCmmZQoKy42TINGlSxdbuHChi96mTRu3ZOKZZ56xJ5980po1a+Zm8/ft22fa6E4zRN6sj2aZdK2N8PQi4zIo5A89gF999VVnXSGhQK5o0aJuM0RZCYwbN85GjhzpljRkrqoEGs00aImIf9hpp53mLAvE47333nMii/aY8M9LFg/Vq1e3Tz/91L1s6KVBffLyyy+brBH88+M8ZwJ62dKsz3333Wfqu/bt2xu8c2ZGKASCkYBEbll4/fzzzxnV09+3xN5TTz3V+Uks0PNFgyrnkcNHVkv6coge1EFaSqjldLLKyGl5nJ4lembp+MADD7hJg1mzZrmNkcVMz31ZXuhZI0uNbBtNQL4QkCj20ksvueWjeifau3evm9SRmKBlouor9ani/fLLL6blpW+99Zbbj+nBBx90724SutRX6je9r6gfdS9oD6BgeZfKF1hkAgEIQCCCCUQFS9sbNmxo1113nelf2bJl3Qy3/CQCyCRUg3n9QkOfPn3cbLviaQZcTud6WO3cudPk9NCTWOCFyaRfM0MacGvWQ/k88cQT9tprr9lFF12k5Pboo4+aXlY0MNaLnNJqw0JdazmABnsuYiF/6MX04YcfdtYG+rUKDe69Ol5//fX22GOP2f33328SBCpWrOji6YVW1W7RooU9++yz1qRJE9MLm1jJibH8n376aZN1g0QXrdX3z0t5qB/uvfdeZwmijQHVJ7179zbxVf644xMQR3HTPThs2DATa/GH9/HZEQMCwUZAM+OdOnWyGTNmmLc3jQZa5cuXz6iqnh36ntYMboZnNieyHMu8pC+bqEHvrSVat9xyi7Vq1coJ9bJGkIitAagq7y2P0/efruU0E37hhRdao0aNnLAtqwQ9r7TUTs83CTaKhwscATHWskYtgVQfaRJHfloKKUsDCTyTJ092m1RrHx9ZJVxzzTVuOeRll13mKqZ9fmTJoImItWvXukkNvSfoXapevXouDh8QgAAEIBDaBIJGRAhtjNQeAhCAAAQikYCEaVnHjR8/3g2Wq1at6mZlNeASD83CSkDQIEzXx3OyGNPAWhvhKm6ZMmXcEj+dS6DQYFxig66DwGVbBdXR5/O58BFZLLVzAZk+tKTB5/s9jWcWL6FG0TQTLo46xwWOgH+/ibfuOa80hTVo0MBNusha4eabbzb1i2dd4MWVcKYwTXBo82VNaCitlw9HCEAAAhAIfQJhIyLoBU2WBnLlypUzn+/3F5HQ76L8b4FeULX0Qazk9MDP/1LIEQIQgEBkENCyuGrVqjlLOH23avZdVnOyOnrhhRdM1gqa1c0NDZ/v2CV9Z511lstX5uAalEmk8Cwd/JfcSVz44YcfTGVqE0dZ5+VcXsGF5rRcSzPd2dVE+8Vs3brVZC4vpzZmFxf/EyewadMmk4VB5qWOXo4StmRFog0Yta+U7m1ZLy5evNjtz6RlCtr/Y9KkSS6JrEk++OAD07JRCUieEqhr1gAAEABJREFUoOYC+YAABCAAgbAgEDYiQlj0Bo2AAAQgAIGQIKClSVpSpqPP53MbJ956662u7loSp+VyGvRrxlb7IihAS/S8ZXvavE7LyeS0vExxvLDMS/q0V4BEhBdffNFuvPFG86WXl3nJncz+JR6oTO23ImFdZRaWU1vUXpWf03ItxdGmkxK0dVR8+WmpnIQXbSTcrVs3u+OOO9weMgrH5S8BbVb9/vvvu/2m/PtNfaC+8JZC6qgleNqf4vHHH3fLTrTEUkKZlju2bt3abZCp/ZO0F4KWjd5+++0m0cv7W8nfmpMbBCAAAQgUFgFEhMIiT7kQgAAEIBBxBGhw7gnITP7111837dfz8ccfm4ST3KcmZkEQ0MbKEq769etnEsZkPWL8gwAEIACBsCeAiBD2XUwDIQABCEAgHwjkaxayYNDsu5yWQLBm/M94tdSuZ8+ebqNgWWFUqVLlz5HwKVQC2jBRS2iee+45k8WIlksWaoUoHAIQgAAECoQAIkKBYKYQCEAAAhAoPAKUDAEIQAACEIAABCCQXwQQEfKLJPlAAAIQgED+EyBHCEAAAhCAAAQgAIGgIoCIEFTdQWUgAAEIhA8BWgIBCEAAAhCAAAQgEH4EEBHCr09pEQQgAIGTJUB6CEAAAhCAAAQgAAEIZEkAESFLLHhCAAIQCFUC1BsCEIAABCAAAQhAAAKBI4CIEDi25AwBCEAgbwSIDQEIQAACEIAABCAAgSAngIgQ5B1E9SAAgdAgQC0hAAEIQAACEIAABCAQCQQQESKhl2kjBCCQEwHCIAABCEAAAhCAAAQgAIFcEkBEyCUookEAAsFIgDpBAAIQgAAEIAABCEAAAgVJIGhEhM2bN9vnn39uycnJrv2zZ882+eli3rx51r9/f+vRo4f9+OOPzn/QoEE2cOBA53TuxVV8uWXLltnYsWMtLS1Nl/b999/b/v37bfr06aYweR49etT5e0eFy19OceR0HuruzTfftJ07d2bbjCVLljj2WUU4fPiwpaamZhWE3wkQ0L324Ycfuvt28ODBtm7dumxzCXv22bacAAhAAAIQgAAEIAABCEAgWAkEjYiQkJBg06ZNc4N8wdLgSn4ayEsA6Nevnw0dOtTWr19vK1eutF69elnr1q2d03mNGjWULMPt3bvXvv76a1u+fLnzUz5Hjhxxabdt2+b8JFgsXbrUCRdeuAtI/1AcufTToPuvQb0Y7N6929VNA9PExERbsWKFeX4STySsbNy4MUNIcZH9PpRO7T906JDzVZodO3a4fMRGvMRcZelaTpwOHDjg4vORdwJiKLGqZ8+eduedd9onn3xiCxYscH0USuzz3nJSQAACEIAABCAAAQhAAALhQCBoRATBvOCCC5yQsH37dl06N3fuXGvZsqUVK1bMoqKi3Hl8fLwLy+kjJSXFOnToYF988YVpgJ1T3FAKU7tGjhxpu3btstGjR9svv/xiM2fOtN69e7uB6Hvvvedmt7/88ksbM2aMrV692mTVkbmNEhsef/xxk4DwzTffOEYHDx60VatWOYuNN954wyQWqBylVbzhw4dbUlKS6ah85Y87cQIlS5a0q666yubMmWMFyP7EK0xKCEAAAiFEAGuu3HWWJlw8y04ddX28lLA9HiHCIQABCIQ3gaASESQSXH311aYBsGbbhT46OtpKlCihU+c08FI8d5HDh2Z8K1WqZOeee65NnDgxh5ihFbRnzx6bNWuWTZ482VlVaNCvFlx33XV25plnWrVq1WzTpk22detWu/baa61NmzbWvHlzRTnGycrinHPOsbi4OLvhhhssNjbWYmJinEgwYcIEJ1IogcSbChUqmCwaZNUhwWHDhg3uWuG4kyPg8/lML2O5Y/+Nwf7keJMaAhAoOAISq/XckNWbStW1LOb0fJblmwR+PatkYSg/PWcUR3ElXO/bt89kLaf08le4926g+P6WcYqv/BRfAnhmSzrlicuawF//+leTdVy5cuXcUdeyBPX6SlzllFqWdHL+Voryx0EAAhCAQGQRCCoRQegbN25sRYoUsS1btujSTjnlFDeb7i7SP9atW2c1a9ZMP8vd/3bt2rk9EDSDrhSVK1d2yxd0rpcQ+ft8Pl2GhJOA0qBBA3v00UftpZdesptvvtnVW8x0ohcztUsWC2qb/LJzGrz6h40YMcJKlSrl9p6QAOMfJjHnvPPOs759+9qQIUOsbdu2/sGcH49AFuHqq19//dXq1KljsM8CEF4QgEDIEpAY/dFHH7n9eDQAnTJlipsgkBCuZ5dEAS1TnDFjhhPGH3zwQdOSrnfffdfWrFnjLO1effVVZyV333332c8//2yK++233zo/WcTpGaejLONkmad89YzUfjMSyj1LupCFWEgVlzijPaokFqgPJOaIswShf/3rX86CEbaF1DkUCwEIQCBICASdiODz+axz585uXb4YaeCqFwsNXgcMGGB6EdEyBYXlxmlw3aVLF1u4cKGLrpl57b3wzDPP2JNPPmnNmjWz4sWLmx6SevGQKZ82X1TkUaNGuQ3wtBGeZkLkV9iufPnyJiGkT58+9uyzz9rixYuzrFLTpk3t+eefN7VTLwSZI5122mluvwgx0BIICQ/aV2LcuHGm5RJ6eRCX6tWr26effmqyANFLn/rh5ZdfdjPimfMM1+v8bpdm01555RXTi3HRokWtffv2Bvv8pkx+EIBAYRLQXjo33XSTaZliufQZbj2DtXxLz/R69eq5/Y3q1q1rl19+uTVq1MguuugiZxmn70JNIsg6TlZyEs2bNGlil1xyiZ111lluyZ0mEzSg9beM8+LLIk8WdNoXSUdZ0uk9wPiXawJaYieLDr0PrF271k3sXHrppfb666+79zNNNsA21ziJCAEIQCAsCQSNiNCwYUOTSb6l/ytbtqyb7ZafHv733HOPG8zrFxo0eNYDLD2amw33ZsQ16NUvEMjp5UFigRdWq1Yte+edd0yz60qrfJ544gl77bXX3IuL8tLMvkQKDZL10qO0mnHXddeuXU2DPcUrbOfz+UyiiAby2tNAL1+qq5zqduutt2Zwkbmh2qp26CVOIoD4yImrRIinn37a9OsWylMveI899pjdf//9JnFBy0jE/t5773XWHz179nT9oP0XxFTlBbkLuuqJqYQq9cuwYcNcX6ovYB90XUWFIACBkyQgSwH/LLxrWSPIuk1WA164rnUuCy2J2grz+X63EtS5wuQUprgSI/R81vNNzz/F8fl+j68lD7LGU3xc3gnofUdWjuIrC4SKFSuafsVJwoGWOOQ9R1JAAAIQgEC4EQgaESHcwNKekyVAeghAAAIQCFUCWkqomWuJ1bKY866feuop034FtWvXPuGmaQmYRHENciWoa6+YzJnJMsGzpNPShszhXGdP4MILL7QPPvjAWTJqqZ02s9Y+ExLA58+fb9ovAbbZ8yMEAhCAQCQQCBsRoXTp0s7SQNYGmnX3+X6fkYiETsxNGzXbLbNO8ZHTTENu0p1QHBJBAAIQgEBEE5CVnAb4nsWcdy0R4YEHHjA9s3v06OE2TpbVoWeJ6FnT6Vr+st7yjydLOD3PMlvGefEFXXGU1rOkq1q1qrxxORDw5yyBQHshyGLz9ttvd5sz33333W7p50MPPWQKh20OMAmCAAQgEAEEwkZEiIC+KpAmUggEIAABCEAAAhCAAAQgAAEIQCA7AogI2ZEJPX9qDAEIQAACEIAABCAAAQhAAAIQCCgBRISA4s1t5sSDAAQgAAEIQAACEIAABCAAAQgEPwFEhJPtI9JDAAIQgAAEIAABCEAAAhCAAAQihEBEiwgR0sc0EwIQgAAEIAABCEAAAhCAAAQgkC8EQlVEyJfGkwkEIAABCEAAAhCAAAQgAAEIQAACuSdQCCJC7itHTAhAAAIQgAAEIAABCEAAAhCAAASCh0DeRITgqTc1gQAEIAABCEAAAhCAAAQgAAEIQCBQBLLJFxEhGzB4QwACEIAABCAAAQhAAAIQgAAEQpFAIOuMiBBIuuQNAQhAAAIQgAAEIAABCEAAAhDIPYGgj4mIEPRdRAUhAAEIQAACEIAABCAAAQhAIPgJREYNg0ZE2Lx5s33++eeWnJzsyM+ePdvkp4t58+ZZ//79rUePHvbjjz86/0GDBtnAgQOd07kXV/Hlli1bZmPHjrW0tDRd2vfff2/79++36dOnm8LkefToUefvHRUufznFkdN5sLnDhw9bampqltWSv8KzCty5c6e9+eabWQXl6Pfrr7/a+PHjc4xDYO4I6F778MMP3X07ePBgW7duXa4S7t692/VdUlJSruJ7kfz7/LfffrOlS5e6e+e7777L+DtITEx0eT/88MO2YsUKL6k7rl692gYMGODc+vXrbfny5aa/RxfIBwQgAAEIQAACEIAABMKFAO3INYGgERESEhJs2rRpbpCv2mtwJT8N5CUA9OvXz4YOHWoayKxcudJ69eplrVu3dk7nNWrUULIMt3fvXvv666/doEeeyufIkSOmtNu2bZOXEyw0qJJw4YW7gPQPxZFLPw2q/2qDOKgdqrecBn4aZKqic+bMsY8//tgJJhJQduzY4QaGiqfwrJwGthpIKh8xVxwJEfLXoPGss86yiy++WN524MABNxBVfHkovtLllL/i4X4nIE4Sq3r27Gl33nmnffLJJ7ZgwQIXmJmlBCHd7xs3brQyZcrYbbfdZtHR0a4P5CfhTH2kvxX1izJRGoUpnc7lJ6fwn3/+2U499VSTiLFo0SLz7u8ZM2bYGWec4YQCiQuKqzRyxYsXt0cffdRuv/12+/bbb+20006zH374wbz7TXFwEIAABCAAAQhAAAIQKEwClF2wBIJGRFCzL7jgAickbN++XZfOzZ0711q2bGnFihWzqKgodx4fH+/CcvpISUmxDh062BdffGHegDen+KESdujQIdu1a5errs5feuklN6j89NNP7aeffrI9e/aYBABFOHjwoK1atcoJCm+88YaJifwzu5kzZ1rv3r1N+SmeZp/F7amnnnJlyRJBcTQD/dprr7kBpAa8El5kPaJB8auvvmoSODLnzXX2BEqWLGlXXXWVSfjJzFJ9Jwsb3f8a7MuiYOTIkY79Aw88YOojDeoff/xxU1+oXyScKZ7iS/z56KOPMgqX6FS2bFkrUaKEEyP0N+UFbtq0yYkLpUqVMp/P5yx9vLDq1au7vz1ZQFSoUMGd16pVy4l5XhyOEIhEAhLwRo0aZd7zSqKeLOjEQt/R+i6955577J133nFxJP561nM66m9ecT2n9Po+ldAoP+UlP8WTBZ385CSq6ztX/nLyk1NcpdF5ODhx0PfO8doiZkuWLDleNDdpkJv8jptRGEbQhIvuSc+NHj3aWaft27fvpFur9wpNaJx0RmQAAQiEMwHaFoIEgkpEkEhw9dVX25dffulMrsVTM68a+OhcTgMvxdN5Tk4vIJUqVbJzzz3XJk6cmFPUkAorWrSoG8hpQKcZ53r16llcXMx0GBAAABAASURBVJxdd911ptnl2NhYE6PSpUtbTEyM6aVpwoQJTgzQS292jVX6Jk2aWLt27ZyZu9Lecsst1qpVKyfeKJ0sDhRPYo8Glxr8ypJj3LhxtnbtWidWKB4u9wR8Pp8TfTKz1MBeVgB//etfrUWLFlakSJGMTJs3b25t2rSxBg0a2BVXXGHqN/2NaDCjvpeIIKuDLVu2ZKTRy+App5ySce1/ojD1t/wk1mUWmzQg+uabb+zSSy9VFKtSpYopjbvgAwIRSkDPGA1eNeDS34zEvHXr1jnRWsLBtddea2+//badd9559tlnn1n37t1NfvXr17e+ffuajv7olD4razz9PUsE9OJKOJBgK385z1/pVb53HQxHWSxJ0NSzR+K2jroWO9Xd32JKYr+eJ7KE0qBTyxH17Ja/rKrEQPl57dK5/MTe8/M/Kl12+fnH49xMzxlZx5UrV8501HNelm8SlsVx69atTjhWv+m9Q+w9brrv9G6gMPmp/7R0TqK2JjWGDBliehapn/wtI9XHOeWte0XhyltlKG8cBCAQjASoU6QSCCoRQZ3QuHFjN2DSQ0fXGvho1lXncnpJqlmzpk5z5bxBsQbTSlC5cmU3I6FzPfTk7/P5dBlyTgKLXsxUcc1c60VL554bMWKE6SVAe0lIUPH8szrqpVT+YqKBqIQan+9YLj6fz/RgVzw5CRo333yzeyEePny4Ha8MpcH9j4BeomTlUadOHcuKpfpT7n8pfj9Tv/t8v/eNJy4onu6FYcOG2dlnn2133XWXszr4PcXvn+rb38+O/axWrZqzZtBLnvq3atWqGREkFmj5w9///veM/s0un4xEnEAgQgjo+SThVqKd12QNsiTqaemQ/CQW6O8oNwMhCbQSEiQIKm0oO4nXsoaSdZQGg/7WbVpCNWXKFLe88N1333WTBosXL3bCt/aKkYiqdwB9R+p7SVZYEjMl2Pzyyy8mJ8sOWWRktV+P0mWXXygzLai6y3pA7w8SAbSUVP01a9Yse/DBB01CgPpszZo1bsJBliDqB1kjrl271lneSIzQe5sEBeWheusdxd8yUtc55S3rx8wWksoHBwEI5CMBsoLASRAIOhHB5/NZ586d3Tp+tUuzOHpoaeZGG7zpxUPLFBSWG6dBVpcuXWzhwoUuumZw9ZL2zDPP2JNPPmnNmjUzzfjqJU8vLzLn80xHZaqqaw2iNLhyGRTyh15OZQWg5Qsa7Evt17IDDeLbt29vWrOu2ZfJkyeb9omQlYBewPSQz6nqY8aMcWviZdaoGe6s4l544YVuDb+Y/PTTT6brDz74wMRSLxwaxGaVDr9jCWiQ8corr9h9993nxAP1W2aWuic1uH/iiSdMZtHH6z+VoHtdeyfIauA///mPs0KRv5yWIOilTueZncrW3gxaGiGRrXz58qZ+1cDo+eeftw0bNti//vUvtyeJ6qH6K17mfLiGQKQR0Hdep06dTIMsb7CkQa/+hjwWEgj19yyhz/PL7ijxNrM1XnZxg91fVgI33XSTSRgplz7DLWsnz7pNz1jtBaNnsSYGNGjVd9ekSZPccip9z0ickUWdBG4NYPVMU54aiMqCQe8JssK7/PLLs0SRXX56hmaZAM8sCdStW9fEuFGjRnbRRRc5y0e9W0jkyWxBJ4FbIrPeDySe6b6XdZv6X0dN2khckiCkfs0pb0v/J4sIWdq1a9fOCRbpXvyHAAT+IMABAoVNIGhEhIYNGzqTfEv/p7XbMoGTnwZGWleqgat+oaFPnz5udj09mrVt29Y5neulQzMechpYSyxQuMI0gJJ5qWbKNTOvfDQ40zpyPRQVR5vHSaSQWKGXHqVVHXTdtWtXN9hTvGBw4nHvvfeaLDK0Pl4iwssvv2x6yEtEEKtLLrnErbd/7LHH7P777zcJJuIgk1rNComTnMwSNWujlz1x0YBV5up6eIu/2isWchIvXnjhBWd5IG661uyDWGrjPb30KT4uewJ6gVX/iLWsBiRw6R7PzFIvXzfccIP7FQfN/tSuXduZQ+seVh+qBPWJnM41Y6P+79atm+ne0LV+bcGLr1lRCWEyIVZ8pZPTucpWv0owUH002JFr2rSpyU97M+jvQKKHXgI1WJL1hNLiIBDpBPRMkbCtGXH93cqSR8K3BkliIwsE/T1pQKzr47nM1ngaDOs7QukkUOhvUGKDroPdqa5eHVVnn+93Cyqx0HNM34P6PpTwPXXqVPvnP//pln94aXRUOgnbekZrDyBZv+mZpe8zhWfltJdMdvllFR+/7AmIvxcqkUDn4i+xQAKZ+kPPB01k6B3jkUcecXtX6bkhcUjx5UZkYRmZU95K4/0NqSxNmsgPB4EwIEATIBAWBIJGRAgLmiHaCM0QIACEaOflstp6+dMSB728Hy+J4koU0uAoc1zdJxIxdM9kDuMaApFKQBZtshySMKv9arSXjARvDZAl0MlaIbd/Mz7fsdZ4+nUc5SuxWIM1iRSepYO/tZwG7PrlFJXpmfoXZn9o9vj111+3Z5991rS0wL8uCpNAqbpqiYKYycLg/fffz4grMUWz1jKbl+WTeHp5ifdbb73l8pZY4J+3znPKTwKD4uBOnoCs2GS15lkjav8CTSxoLwsJ2HISGrTkQX2SW8tIr2a5sZD04nKEQMEQoBQIQMAjEDYiggZHemDJyXTO5/t9xsNrKMf/EdBsuDjJ6cHesmXLP83+/C82Z+FCQC9z6vuTaY/SK5+TyYO0EAgHAvpb0H4zOvp8PmcpdOutt7qmyZpNlm4a9Gv2XKbdCpB1l6y8dJ7ZIkxxvLDM1niexdmLL75oN954o/sVFVkS+VvLyexb4oHKlNWQnokqp7CcLKNkIadlUjpX29R+1UfXXl21LEGWVhIU9LO3El0UTxvKSjTQURZS/nmdeeaZJhFBeYuBfqJWVnUSW+RkpZddftqYVnXAHUtA97F3P3vnFStWNM9PfaI+VCrd57r/ZMUm0cCzRlQ/yAJOaeRkmaP7Udac119/vflbRh4vb5WT2UJSfjgInDABEkIAAvlKIGxEhHylQmYQgAAEIAABCEAAAoVCQFZvcoVSOIUGHQEqBAEIBB8BRITg6xNqBAEIQAACYU5As72yBpOTRZj/+vAwb3q+N097RoihWMphLZXviAs8Q22qLVfgBVNgfhMgPwhAIEwJICKEacfSLAhAAAIQOHkC6bOhh7UT/cnnRA4QgAAEckdAP49ZqlTpXbmLHahY5AsBCEAgewKICNmzIQQCEIAABCKcQGxs8U36KbsIx0DzIQCBAiQg4bJkybK/nHCRJIQABCAQYAKICAEGTPYQgAAEIBC6BPbtO/Lu//t//29H6LaAmkMAAqFEYO/evfbFF19t2rUr9bVQqjd1hQAEIosAIkJk9TethQAEIACBPBCoGrdiyOzZ8XNvuaXrHv1U3YYNG/KQmqgQCC4CKSkpwVWh8KrNSbVmzZo19tFHH9nVV/9175w582ZUbjpr+kllSGIIQAACASSAiBBAuGQNAQhAAAKhT6Bsw6V/+3HKjFefeurpVRdffPFh/YQgrqb7+b+5c+caLGqGBIPnn3/evvvuu5Coa8HfU4Xfhx06dEh88aWXl6xZs+X5qnGrbwv9b05aAAEIhDMBRIRw7l3aBgEIQAAC+UKgWrOVrxar/VuTco1WVqzeYlNJ3O8MYstdchosfmcR7BxK1PpX2djYZk2CvZ55rl+Y/D2WbbiicrHT559TNW750Hz50iITCEAAAgEkgIgQQLhkDQEIQAACEAhnAuXrfrAznNsXTm0rW+XK5PKNv1sVTG2iLhCAAAQgEJoEEBFCs9+oNQQgAAEIQAACECgsApQLAQhAAAIRTAARIYI7n6ZDAAIQgAAEIBBpBGgvBCAAAQhA4OQIBI2IsHnzZtPO18nJya5Fs2fPNvnpYt68eda/f3+3idOPP/7o/AcNGmQDBw50TudeXMWXW7ZsmY0dO9bS0tJ0ad9//73t37/fpk+fbgqT59GjR52/d1S4/OUUR07nwe4OHTqU0c7MdT18+LClpqZm9ua6kAhMmTLFNm7c6ErXLtkTJkywgwcPuuvcfOzcudPefPPN3ETNiJOYmGjjx49397/+xh555BH74osvTH9ru3btspdeeskef/xx2759uy1fvtz095aRmBMIQAACEAgeAtQEAhCAAAQgEAQEgkZESEhIsGnTprlBvrisW7fO5KeBvASAfv362dChQ239+vW2cuVK69Wrl7Vu3do5ndeoUUPJMtzevXvt66+/doMieSqfI0eOuLTbtm2TlxtELV261B29cBeQ/qE4cumnQff/wIED9ttvv5nauGfPHhsyZIht2bLFNCjdsWOHrVixwrVJ7RUz8ZJQosGkGqPBo4QHne/evdvl5YXJDxc4ArGxsfbrr7+6ArZu3eruT/lJWNC9LcFHTuKP7j8N7HWtMMXRuYQxiWby8679+13h6l/9/SjOjBkzrEyZMhYdHW1t2rSxF1980fbt22erV6+2cePG2V/+8hcn0I0ePdpOOeUU++GHH0z3haskHxCAAAQgkC8EyAQCEIAABCAQLgSCRkQQ0AsuuMAJCRo46VpOPx/VsmVLK1asmEVFRZnO4+PjFZSj04C6Q4cObsY1nAbIGjy+8847Vq5cOTcIlKAgIUEwNKO9atUqN+P8xhtvmMI006wwDQpHjhypUycy/Pe//3XiwVdffWWlS5e2tWvXujA+AkugQYMGjrXuyTlz5ljz5s1NfSTBQFYA+o1o9dX9999vsrqRECRLG/0dKI5EA1npSACYNWuWs7bJ3O+6fuqpp+yTTz4xiQnz58+3unXrWokSJaxKlSqugRIaihcv7sqWAFe+fHknSkm8qFWrlhPrXEQ+IAABCEAAAhCAAAQgAAEI+BEIKhFBIsHVV19tX375ZYYJvmZPNfjx6lyyZEknJnjX2R01216pUiU799xzbeLEidlFCzl/iQdq208//WT169c3DQQlsMhfx6SkJJOJvAamapz8KlSoYEWKFNHlMU6Dx7Vr19rixYvdIPOYQC4CQkAWAVWrVnUWCLIYkaige1oCwc8//+wsSlRw06ZN7YYbbnD9qz7+61//ai1atHD9KOHhwgsvtEaNGrl8YmJizL/fJTxICOjatavpKEuHUqVKKVu37EX3R8WKFU1/H4qrvzv9nclJpJDQIEsFl4APCEAAAiFNgMpDAAIQgAAEIJDfBIJKRFDjGjdu7AZKMs/XtcyrNeuqc7l169ZZzZo1dZor165dO7cHggZZSlC5cmVn6q9zDcbl7/P5dBkSToKK1rTLIkMz1Jpp9io+YsQI02CxR48eboDo+Wc+ahZag0UNIp9++mmTyDB8+HA3wMwcl+v8J3D22WebLEHKli3r+mvYsGEmv7vuustZC6hEDeh9Pp8TzNRXcvbHPy9Ml7qHs+p3CQMKl/PSqt8lPskK4qqrrnIChQQMWS7IAkFig66Vp9LhIAABCBQqAQqHAASJzZDBAAAQAElEQVQgAAEIQCAoCQSdiODz+axz587O5F7EzjvvPNN67759+9qAAQNMG9NpmYLCcuM0A9+lSxdbuHChi6414dp74ZlnnrEnn3zSmjVr5gZTmnkdPHiw26hRmy8q8qhRo9z1hx9+aNpTQH6F7bTG/dVXX3XWFRIB5IoWLeo2pZQYoDXuWragTSI1g129enX79NNP3dKGTZs2uTZrOYQGlAsWLLDXX3/dpk6d6masfb7QEVMKux9Opvx69eq5TQzPOecckxWBrBO++eYb+89//uMsCvzz1jKDatWq2RNPPGFaoqJ+9Q/XuSxK/Ptdfp6T6CRxQJYOWhIhsUiWJ88//7zbf6Rdusime0B/DxIydM9o7wWJbV4eHCEAAQjklQDxIQABCEAAAhAIXwJBIyI0bNjQrrvuOtM/zdBqs0D5SQS455573GBev9DQp08fN3ureG3btjU5nWtwpZ3r5fbu3es2kPPCZNKtgbMG3JqpVz4alL322mt20UUXKbk9+uijTqSQWKG9GZRWddC1zMI1UHcRC/nj1FNPtYcffththCeLAw36vDpef/319thjj5nW00sg0QBS7O699147/fTT7dlnnzVZHmjQKFN5DRofeughk2WDhJtCblrEFK9+UR9IwPL5fNatWzdTH/Xu3dv1re7T7t27Ox4+n88ta9AvkTz44INWu3Zt88L096E0sirw73ctVdC9oXKUiYQ47Z+g5RCfffaZaZNS3TO6z7Uk4uWXXza59u3buw0VtcdGnTp1lBQHAQhEHgFaDAEIQAACEIAABHIkEDQiQo61JBACEDhhAhKLrrjiiox9RnLKSFYLEim0l0ZO8QiDAASCkQB1ggAEIAABCEAAAoEnEDYign5hQDO4cuXKlTOfD9P8wN8+lBAKBHw+n/uJR/99ErKrt6wXgsXqJrs64g+BsCRAoyAAAQhAAAIQgECIEAgbESFEeFNNCEAAAhAIMwI0BwIQgAAEIAABCEQSAUSESOpt2goBCEAAAv4EOIcABCAAAQhAAAIQyCMBRIQ8AiM6BCAAAQgEAwHqAAEIQAACEIAABCBQGAQQEQqDOmVCAAIQiGQCtB0CEIAABCAAAQhAIGQJICKEbNdRcQhAAAIFT4ASIQABCEAAAhCAAAQimwAiQmT3P62HAAQihwAthQAEIAABCEAAAhCAwEkTQEQ4aYRkAAEIQCDQBMgfAhCAAAQgAAEIQAACwUEAESE4+oFaQAAC4UqAdkEAAhCAAAQgAAEIQCCMCCAihFFn0hQIQCB/CZAbBCAAAQhAAAIQgAAEIHAsAUSEY3lwBQEIhAcBWgEBCEAAAhCAAAQgAAEIBIAAIkIAoJIlBCBwMgRICwEIQAACEIAABCAAAQgEKwFEhGDtGeoFgVAkQJ0hAAEIQAACEIAABCAAgbAmEDQiwubNm+3zzz+35ORkB3z27NkmP13MmzfP+vfvbz169LAff/zR+Q8aNMgGDhzonM69uIovt2zZMhs7dqylpaXp0r7//nvbv3+/TZ8+3RQmz6NHjzp/76hw+cspjpzOw80dOnQog0t2bdu5c6e9+eab2QUf45+b/I5JEMEXX3/9tbtnvXtX13Lz588/aSon2w8nXQEygAAEIAABCEAAAhCAAATCnkDQiAgJCQk2bdo0N8gX9XXr1pn8NJCXANCvXz8bOnSorV+/3lauXGm9evWy1q1bO6fzGjVqKFmG27t3r2lwtnz5cuenfI4cOeLSbtu2zflJsFi6dKkTLrxwF5D+oThy6adB9z81NdVx2Lhxo6v74cOHTXXdvn27u1ZbDhw44OqtuIonbjrfs2ePDRkyxLZs2WK6FuMVK1a4dEogJrqWv64zO4kyO3bsMMVR3Mz5ZY7P9bEE/vrXv1rPnj2tXLly7qjrDh06WOPGjU0iwL59+0z3pISt3bt3m/pO/aRc1Cced12rj3/77Tfbu3evZe6HxMREl4/iKG5OeassxVfeKkPxcRCAAAQgAAEIQAACEIAABLIiEDQigip3wQUXOCFBg2Fdy82dO9datmxpxYoVs6ioKHceHx+voBxdSkqKaXD2xRdfmAZIOUYOoUAN3GV5IS4SDmQxcP/99zsLjYMHD9rw4cMtKSnJHVevXm0KVzyJKR999JEpjgacarLEBll/yALj1VdfNQ1gn3vuOdu0aZNNnjzZJBYonr9T+lWrVjmrjjfeeMOl8fLzj8d5bgmY/fe//3WizOjRo039oPv1vvvus59//tlmzJhh3377rbOe8e+rtWvX2jvvvOPECPWzxAKvHyT0LF682GJiYmzw4MHOcienvGfOnGm9e/d2Iob6VPnlvvbEhAAEIAABCEAAAhCAAAQiiUBQiQgSCa6++mr78ssv3Sy5OiI6OtpKlCihU+dKlizpxAR3kcOHBtuVKlWyc8891yZOnJhDzNAKkoVF8eLFTTPYLVq0sCJFiljTpk3thhtuMFkkSCz45ptvbMOGDW4WW7wkImhAKuuD2NhYJ8hoJlxijGa9x40bZxqUbt261SpWrGgXXXSRXXPNNSZ+meloYCqRYsKECbZr1y7XFxJ4lJ/6L3P8sL7O58apb9SPDRo0sCZNmtgll1xiZ511lkm0mTNnjrMs8PpKfxe6x3/66SerX7++6Z7w74cyZcrYpEmTnIAg64Kc8lYzrrvuOldmu3btnGAhPxwEIAABCEAAAhCAAAQgAIHMBIJKRFDlZNatgbEGvLo+5ZRTzH9mdN26dVazZk0F5cp5gyINfJWgcuXKx5juy9/n8ykoJJwG6jJvl/MqrAGlz+czHc877zzr27evW7IgC45hw4bZ2WefbXfdddcxYoyl/ytatKjdfPPNLr4sGCpUqOCsGPzzTo92zP8RI0ZYqVKl3P4UWYkMx0QO4otgrJr61uf7/V7UuVdHiQWZ+6pWrVr2yCOPOMscWaZouYIXX1YqU6dOtX/+85+m+0H+ys/nyzpvhWupj44qS8KTznEQgAAEIAABCEAAAhCAAAQyEwg6EcHn81nnzp2debcqq0GQzOo1MB4wYIBNmTLFLVNQWG6cBIkuXbrYwoULXfQ2bdq4JRPPPPOMPfnkk9asWTM3iytTfpl+a8M7bb6oyKNGjXKb4H344YemdePyK2xXvnx5q1atmj3xxBMm03MtRfDqVKdOHdM6erF6+eWXTZYFmpGWZcJ//vMfJxDoWgNSmcar7R988IGJxYh0cUCz2T6fzx5//HF7/fXX3dIHL2/vqL0nNBs+cuRIt6ShdOnS5uXnXxcvfgCOEZnlhRdeaP59pf0LtPRBVjYSc+S8fpBFgqwX3n//fdOyhtwAGzNmjOnvS/uIyBIiN2mIAwEIQAACEIAABCAAAQhEHoGgEREaNmxoMqm29H9ly5Z1M+nykwhwzz33uMG8fqGhT58+biY8PZq1bdvWOZ1rAKv1/3Iy+ZdYoHCFadZW68c10NIsuvLRIPy1115zpvuK8+ijj7pBlAbg2ptBabUBoa67du3qBsqKV9jO5/O5pQsSOx588EGrXbu2de/e3VVLrHr27OlYaY37qaeeat26dbN7773XrXl/+OGHXTu8NtWrV8+twReL22+/3TQDrfTPP/98Rh5any+mchIoOnbsaI899phpHwaJMOXKlXOWDGIkQcFVJNsPAkRAy3P0SyM66lr3ve517yh/L1z+6svq1asf01dnnHGGqT8VT04CkNevWgKh++POO++0F154wZRHTnmrDjfddJP7BRQJU1WqVJEXDgIQgAAEIAABCEAAAhCAwJ8IBI2I8Kea4RFcBKhN2BKIjY01ubBtIA2DAAQgAAEIQAACEIAABPKNQNiICJoFl6WBnGbHfb7f13/nG6kQzuhkqq5ZcTGV054JWlt/MvmRNvgIaMmQXPDVjBpBAAIQgAAEIAABCEAAAsFGoGBFhOhKm5YvX1Yi2CAEcX2oGgQgUMAE9EsYJUuV2lHAxVIcBCAAAQhAAAIQgAAEQoJAgYoI5apfsyl9JnuPXtJDgs5JVZLEEIBAKBLQ99Phw0nTQ7Hu1BkCEIAABCAAAQhAAAKBJlCgIkLR8t2PHE2t+DefL3bE8uXLA922E8+flBCAQEQS+Pbbb63hWS16VGm6+uaIBECjIQABCEAAAhCAAAQgcBwCBSoiqC6VG8+ce+31d77XoUOHw3/p2HH/U089lfzyyy8nvZxPLlzy2bRpU1r6gCYlXNoTqHbcd999yeeff35qoPI/0XwPHjxoQ4cOpf9C5O+6d+/eya1bt074bPSY5x56ocVIfVfhIAABCEAAAhCAAAQgAIE/EyhwEUFVkJDg851y8W8L19z3r/c/evqNN95+6Y033sb5cdiyZcf348d//z5scr43Pv541EezZs0+FGycUlJSN3zzzfg3g61e1Cfr++njT7/ps359wj2Ld789UN9ROAhAAAIQgAAEIAABCEAgawL5JCJknXlOvhXPnvZbtaaLR1drtvLVas1XDsQdy6B6i3VXV2+xtidcjuWSmUdiYomRaWlpiZn9C/u6eouNDaq3WP1oYdeD8nO+fzL4NFv2ZpVmC8bk9J1FGAQgAAEIQAACEIAABCBgFmVQgAAEIAABCEAAAhCAAAQgAAEIQCD8CeRDCwvNEiEf6k4WEIAABCAAAQhAAAIQgAAEIACBiCAQLI1ERAiWnqAeEIAABCAAAQhAAAIQgAAEIBCOBMKqTYgIYdWdNAYCEIAABCAAAQhAAAIQgAAE8o8AOWUmgIiQmQjXQU0g6cg2n79LSdnTwCytgr+fzoO6EVQOAhCAAAQgAAEIQAACEAg8AUoICAFEhIBgJdNAEUhMmBv924RqBzyXlJTwZnpZx/gtmHjK5+l+/IcABCAAAQhAAAIQgAAEQpQA1Q5eAogIwds31CwbAqUqtmzkuZiYMg+Y+fZ61zqWrHDOQ8Y/CEAAAhCAAAQgAAEIQKAwCFBmmBNARAjzDg635pWtcmVy/QtmrPNcdHSFBeltTPKuvWO6H/8hAAEIQAACEIAABCAAgTwRIDIEjk8AEeH4jIgRxARiSlbfGhUV+14QV5GqQQACEIAABCAAAQhAIPAEKAECBUQAEaGAQFNMYAicecH09XEdE58JTO7kCgEIQAACEIAABCAAgcAToAQIhBIBRIRQ6i3qCgEIQAACEIAABCAAAQgEEwHqAoGII4CIEHFdToMhAAEIQAACEIAABCAAATMYQAACJ0IAEeFEqJEGAhCAAAQgAAEIQAACECg8ApQMAQgUGgFEhEJDT8H5QWDxpHpxc8ZEz82PvMgDAhCAAAQgAAEIQCDwBCgBAhAIbQKICKHdfxFf+7S0lBiztAoRDwIAEIAABCAAAQhAIPAEKAECEICAISJwE0AAAhCAAAQgAAEIQCDsCdBACEAAAvlDABEhfziSCwQgAAEIQAACEIAABAJDgFwhAAEIBBEBRIQg6gyqkncCRUpU3R4VFfufvKckBQQgAAEIQAACEAg8AUqAAAQghwOS+gAAEABJREFUEG4EEBHCrUcjrD31L5y5Nq5jYt8IazbNhQAEIAABCEAg8AQoAQIQgAAEsiCAiJAFFLwgAAEIQAACEIAABEKZAHWHAAQgAIFAEUBECBRZ8oUABCAAAQhAAAIQyDsBUkAAAhCAQFATQEQI6u6hchCAAAQgAAEIQCB0CFBTCEAAAhAIfwKICOHfx2HdwsWTzmg659vo6WHdSBoHAQhAAAIQCDwBSoAABCAAAQjkigAiQq4wESlYCcSUqrEzKjr2s2CtH/WCAAQgAAEIBJ4AJUAAAhCAAAQKjgAiQsGxpqQAEDij5U+b4q48+HoAsiZLCEAAAhCAQOAJUAIEIAABCEAgxAggIoRYh0VydbfFN7hrx+JWcZHMgLZDAAIQgEDwEKAmEIAABCAAgUgkgIgQib0eym1OSond+dsFzXateqSMmnFg98/R2xdfXmf3wvZn6Fxu55LL6u9Y3L7hns2jYhQHBwEIQAACEMhEgEsIQAACEIAABE6QACLCCYIjWcETSPOllEpO3X5Hii865WjCqIEJ6+6ukLT7tWqWsrNmUsq2sw+sv+2Bg+tuvzf56LZ6aakHSlrip1UKvpaUCAEIQAACgSVA7hCAAAQgAAEIFCYBRITCpE/ZeSPgi06Mjqn6VtWzpy7wme/Q4X1La6ZF199nKYdrpiYfvCItLfm0tOhSCyxl3w1paeYrVWvY5rwVQGwIQAACEAgoATKHAAQgAAEIQCDkCSAihHwXRk4DfKmW6ouKSv29xWlR0dGHShzd858BaTE1ZhUp0eB5X1r0gWpN4n8oXbN3t7Sk3ZftWtrhyt/j8gkBCEAAAidLgPQQgAAEIAABCEBABBARRAEXkgTS0ookpfmidqcdWXVbyqFl96X50mK2xJ957/5Nrz1ollzfF1VmQ0g2jEpDAAIQyF8C5AYBCEAAAhCAAATyjQAiQr6hJKNAE6gat/RflRvNiFc51Zqv6VW58cy51eNWPVOt+er+1dKvq8etfrR63PJh1ZqvfKFa87W3admD4uIgAAEIhC4Bag4BCEAAAhCAAASCiwAiQnD1B7WBAAQgAIFwIUA7IAABCEAAAhCAQBgSQEQIw06NpCatmHlRzfixJXtGUptpKwQgEHgClAABCEAAAhCAAAQgkDUBRISsueAbIgSO7l9fMzX5ECJCiPQX1YRAARCgCAhAAAIQgAAEIACBABJARAggXLIOPIHo4hV2R0XF/DfwJVECBCAQeAKUAAEIQAACEIAABCAQ7AQQEYK9h6hfjgQatJ6zMq7jkR45RiIQAhAIPAFKgAAEIAABCEAAAhCICAKICBHRzTQSAhCAQPYECIEABCAAAQhAAAIQgEBuCSAi5JYU8SAAAQgEHwFqBAEIQAACEIAABCAAgQIlgIhQoLgpDAIQgIBHgCMEIAABCEAAAhCAAARCjwAiQuj1GTX2I7Bkcv3Gc7+N+c7Pi1MIBJ4AJUAAAhCAAAQgAAEIQCBCCSAiRGjHh0uzU1OPlkxLS2kcLu2hHYEnQAkQgAAEIAABCEAAAhCAwIkTQEQ4cXakhAAECpYApUEAAhCAAAQgAAEIQAAChUwAEaGQO4DiIRAZBGglBCAAAQhAAAIQgAAEIBAOBBARwqEXI7gN0bEl9kZFxXwfwQgC33RKgAAEIAABCEAAAhCAAAQg8AcBRIQ/QHAITQIN2ixaHtfxyB2hWfvA15oSIAABCEAAAhCAAAQgAAEI5CcBRIT8pEleEMg/AuQEAQhAAAIQgAAEIAABCEAg6AggIgRdl1Ch0CdACyAAAQhAAAIQgAAEIAABCIQnAUSE8OxXWnWiBEgHAQhAAAIQgAAEIAABCEAAAtkSQETIFg0BoUBg8aR6cXPGRM9RXXEQgAAEIAABCEAAAhCAAAQgEFgCiAiB5UvuuSNwwrGSk3eeZZZW/YQzICEEIAABCEAAAhCAAAQgAAEI5JoAIkKuURExawKF65ucfLBjuohQNmH72CKFWxNKhwAEIAABCEAAAhCAAAQgEP4EEBHCv4+zb2GIh6xf8I8yaWkpF6gZq2dd94SOOAhAAAIQgAAEIAABCEAAAhAIHAFEhMCxDWjOZG62a+PnXc3n22bm25uaeuj/Ni3pW9L4BwEIQAACEIAABCAAAQhAAAIBI4CIEDC02WZMQD4QOLR/UVRq8oF7o6KLj0jPLsnnKzJ+++pX+6ef8x8CEIAABCAAAQhAAAIQgAAEAkQAESFPYIkcLASW/nyhrBD2FS1SeZbqVKzYqc+mph65b82cayrqGgcBCEAAAhCAAAQgAAEIQAAC+U8gckSE/GdHjoVIIDVp36PRMRWe96rQ+LJVc32+Il/t3ToOawQPCkcIQAACEIAABCAAAQhAAAL5TCAkRIR8bjPZhTiB+HHlbklvwtFml+/4Ov2Y8b948XqyRrhrxcyLa2R4cgIBCEAAAhCAAAQgAAEIQAAC+UYg0CJCthXdtaB1k63zG3VOWHLWo3sXn/UkDga5vQcs5cBL5ctXWqb4Zcsm3xkV5Sup8+rVo2+IjS2x6Oj+WV/oGsc9ldt7YOfCRvdun3f2Vdl+YREAAQhAAAIQgAAEIAABCDgCOYgILjwgHzsWtWxutunHluc2Gtm16w39u3f/xyM4GOT2HvjLX64s26/fo50U/4Ybrr2lXbt2JXQu9/DDPRu3bXvh2TrHcU/l9h648fqrXqpdu+K/Elc2XhiQLz0yhQAEIAABCEAAAhCAQFATyH3lClxE2LG4fcNvvxrxwPjx44uNHj3a+vfvb7169cLBINf3wJgxYzLiDh482CZPnpxx/dxzz1n6vZVxzb3F31Zu7oEXX3zRfvrpx1IvvfRi7WH9fuuR+69QYkIAAhCAAAQgAAEIQKCQCRRw8QUqIhzd82axEjFbvz569OD1Z555ZgE3leIgAAEI5EygU6dONn/+zJd3Laj3ec4xCYUABCAAAQhAAAIQgMDJEwjFHApURNi75auaR48eqdqiRYtQZEWdIQCBCCCg76eiRYvwJRUBfU0TIQABCEAAAhCAwEkQiNikBSoiWMrOmmeeWT8xYmnTcAhAIOgJSEQ4cGB/5aCvKBWEAAQgAAEIQAACEDhBAiQ7GQIFKyKcTE1JCwEIQAACEIAABCAAAQhAAAKRTYDWFzoBRIRC7wIqAAEIQAACEIAABCAAAQhAIPwJ0MLwIICIEB79SCsgAAEIQAACEIAABCAAAQgEigD5QiCDACJCBgpOCoPAsmXLbODAgaaf2Js7d66lpaVZYmKiffHFF+7422+/WXx8vKvagQMH7JtvvrE1a9bYBx984MIVkJKSYp9++qkpr6NHj9qHH37o8lS+8pMbO3asy1vxv//+e1uxYoUNGjQoI57ON2/erGAcBCAAAQhAAAIQgAAEwogATYFA/hJARMhfnuSWRwLbtm2z1q1bW8+ePW3KlCm2du1aW7hwoc2ZM8fmz59vp512mk2YMMESEhJs+vTpVqZMGTt8+LATAZYvX+5K27p1q/3www+mvJKTk23//v0uv759+1r9+vVt79699vXXX5sXX6JC+fLlrVevXq5sla/zGjVquPz4gAAEIAABCEAAAhCAQFAQoBIQCEICiAhB2CmRWKWiRYtasWLFTJYEixYtsuuvv94JCaVKlbLzzz/f/vvf/5r8W7Vq5fBUrFjRWSjIckFiQ5MmTZy/PiQk7Nq1y3bv3m06l6VChw4dMqwbFAcHAQhAAAIQgAAEIACBQBIgbwiEKwFEhHDt2RBq1/Dhw+2BBx5wVgMSDbTUYPv27bZx40aTlcF5553nrBAkJkhoUNNkNXDw4EFbv369bdmyxerVqydv57TsYcGCBSanpRESEipVqmTnnnuuTZw40cXhAwIQgAAEIAABCEAAAtkQwBsCEMiBACJCDnAIKhgCPXr0sCFDhlj79u2d9YGOzZs3t0svvdR++eUXK1GihJ166qmmJQhejaKjo61FixY2atQoq1OnjsXGxnpBVq5cOWvXrp1ddNFFbvmDFyA/LWVISkryvDhCAAIQgAAEIAABCIQVARoDAQgEmgAiQqAJk3+uCRw5csRZFsjyQJYDLVu2tNWrV5ssC7LKRPsdyBJBR/9wWTC88sorbtNEiQZeWJEiRaxLly5uzwXPjyMEIAABCEAAAhCAQJAQoBoQgEBIEEBECIluCt9Ktm3b1uTUQi1VuO+++zKsB7S04f/+7/9Mx969e1vDhg0VzR2vu+46q1Chgg0ePNi0tEF5yMlqQb/K0L9/f/M2VpS/nBLXqlXL3nnnHZNIoWv5y+kcBwEIQAACEIAABCBwYgRIBQEIRA4BRITI6WtaCgEIQAACEIDA/2fvPsCsKPK9j/97hoEhDUOUrETJUVhWgizcC3vXVXwviA+suDziFQQEVl8MZIGLSFIRkKurL4arsIKuLCsIrLJkkaQgOecMQx6Y8J5fwZkdcGYAJ50z5zsPdU53dXV39ad6fKx/V/UggAACCCCAAALpEiCIkC4+dkYAAQQQQACBrBLgPAgggAACCCCQ/QIEEbK/DagBAggggAACOV2A60MAAQQQQACBHCJAECGHNCSXgQACCCCAQOYIcFQEEEAAAQQQQOBfAgQR/mXBEgIIIIAAAjlLgKtBAAEEEEAAAQQyWCDLgwixsbFhe/bssT2kNA3WrFmT5nb89gS0z/LlywO6fnv4/UuzfTL4v7McDoFfJMBOCCCAAAIIIIBAIApkaRAh4WpM023bthbQn9QjXfvThqk5tGvXzpo3b+7+/GFqZchP2zA7fR599FHa7/qf78zOdvil59Z/rGOOzc2lbxICv0CAXRBAAAEEEEAAgRwrkKVBhLCIQstq165zdt++fUZK26Bhw4b25ptv4hSk90pUVJTNmzeP9gvS9tN/8QuV+I84fZNCTYDrRQABBBBAAAEEEEhLIEuDCGlVhG0IIIAAAgikS4CdEUAAAQQQQAABBDJdgCBCphNzAgQQQACBWwmwHQEEEEAAAQQQQCA4BAgiBEc7UUsEEEAgUAWoFwIIIIAAAggggEAICRBECKHG5lIRQACBGwVYQwABBBBAAAEEEEDgzgQIItyZF6URQACBwBCgFggggAACCCCAAAIIZINAwAQRDh06ZOPHj7dRo0bZN998YwkJCbZ161aX5LJ69WpbtWqVFknZJHD58mXXLjefXu3y9ddf35A9a9Ys27x58w15rJjt3r3bxo0bZ/Pnz0+RIy4uzq5evZriNjJzjgBXggACCCCAAAIIIIBAsAoETBAhJibG7rnnHnvppZfswIEDpqDB0aNHTWnTpk32448/WoMGDYLVOcPqnZiYaBcvXrSTJ0/ajh07kjr1ytuyZYudP3/e1BHVt06qYMzZs2fdPvpWmStXrtipU6ecs7arnPZR0Ma/36VLl9w+Kq+82NhYmzRpkjunymoff6pXr5795je/cas6ruoVHx/v1vm4UaBChQqWP39+dy+rHdRu27dvd+2htp07d742VzMAABAASURBVK4tWLDA2WtP3f/6c6j+dtI+8lX7KKijMvrd0THULjqGtilP+2k7KUMFOBgCCCCAAAIIIIAAAiEtEDBBBH8rhIWFWd68eV1HWHkbN260hQsX2hNPPGG5cuVSVkgndRAHDhxoixcvNnXwp06d6gIJCrRERETYxIkTbc+ePaZ8df715Hv69OmmkQETJkxwndPevXvbsmXLbMWKFTZnzhyXN2XKFPcEXN+7du2ymTNn2pgxY0ztoWOqM6vARUr4K1euNKXvvvvOBRrOnTtnN49MSGm/UM+TWf/+/U0d//fee8+12+HDh926bJYvX+7aWUGDd999186cOWPDhw83+Y4dO9a1qQI/alvlqX0VPBg2bJipzRVw0HFIfgG+EUAAAQQQQAABBBBAIL0CARVE+Otf/2o9e/Z0najGjRu7a1NH+dixY3bhwgW3zodZpUqVrG3bttaqVSvT02h1IKOiolywRdNCNBy+SpUqbtTAmjVrrEmTJhYZGWkdO3a0atWqWZ06dax169ZWq1Yt27lzp+3du9e2bdtms2fPtv3797sRCv7yVatWtTx58rgOrL6LFCmSajBHT747dOhg9evXd/Uzfm4p0L59e5NxyZIlTQEEuRcsWNDy5ctnS5YssQ0bNtjSpUtdGykgpLaT76OPPuraVO2r35F58+a5IITuhXLlylmXLl2scuXKtzx/0BSgoggggAACCCCAAAIIIBAQAgEVRHjkkUdMT8LV2fWPOlCnVB0tPanVcO2AUMvmSugJs98id+7cptEa6nA+/fTT5g++NGrUyHVCNXrg3nvvdSMKPM9zNdfoArfg+9BxwsPD3X4DBgywt956y1q0aHFDeQ2lv53pCXqirrr5Dsu/2xTw3+eyU1sk303BhO7du9uQIUPcu0IUYFDQSGVUXu2i9u/cubOp7fS7U7RoUdd2KhMoiXoggAACCCCAAAIIIIBAzhEIqCBCaqyac1+qVCk3tDu1MqGUr5EZejnfoEGDrHjx4la6dGk3ouD99983TWuQhbzUoS9WrJgbSaC81FLFihXdnHx1RDVMXqMRbi6rDqyOOWPGDPeeipu3a13tpGkUI0eOdAEM5ZFuFDh48KB9//33tnbt2hs3XF+rWbOme+mitrds2dJeffVVF0DQ9BK105EjR9xUFTlrxEnTpk3tww8/tBEjRti0adNM7664fqiM+OIYCCCAAAIIIIAAAggggMANAgETRKhevbppxIEl+9ETcSXP86xTp05u+H6yzSG7WL58edMLKDUH/rHHHrMKFSq4jma3bt1s9OjRJkvhaOqBOplalq3yNUxeU0b0rXXNydfT8H79+rljaF3D4f3lta/yVFZPxXv16uWG2p84ccKUNE+/efPmbvSChuWrc6vghkY0aB/tT/qXQJkyZUzBnjZt2jgz3d/aqnd+aLlhw4amIIxeIlqjRg33jgkFdzQiR9NJXnjhBevRo4c9+eSTplEICuzoPhg8eLB17drVChcu7KYE5cuXT4clIYAAAggggAACCCCAAAIZKhAwQYQMvaocfDDP80zvP/C8a1MTUrpUdezViddfAVAnM6Uy5AWwQCpV08iSN954w1555RX79NNPXRAilaJkI4AAAggggAACCCCAAAKZIkAQIVNYM++g+ssVjz/+uPsLFqmdJTo62vr06eNepOh5qQcbUtv/Vvmaq69pEko6l+dl/DluVYdA3Z6Z9dLIA40YGTp0qL322mtWokSJzDwdx0YAAQQQQAABBBBAAAEEfiZAEOFnJGSEqACXjQACCCCAAAIIIIAAAgggcAsBggi3AGJzMAhQRwQQQAABBBBAAAEEEEAAgawQIIiQFcqcI3UBtiCAAAIIIIAAAggggAACCASNAEGEoGmqwKsoNUIAAQQQQAABBBBAAAEEEAgtAYIIodXe/qvlGwEEEEAAAQQQQAABBBBAAIE7FiCIcMdk2b0D50cAAQQQQAABBBBAAAEEEEAgewQIImSlO+dCAAEEEEAAAQQQQAABBBBAIIgFCCLcZuNRDAEEEEAAAQQQQAABBBBAAIFQFwiFIEKotzHXjwACCCCAAAIIIIAAAggggECGCAR4ECFDrpGDIIAAAggggAACCCCAAAIIIIBABghkXhAhAyrHIRBAAAEEEEAAAQQQQAABBBBAIHAEUgwiBE71qAkCCCCAAAIIIIAAAggggAACCGSWwJ0eN2CCCIcOHbLx48fbqFGjbNKkSbZ9+3ZbvXq1ux4t/+Mf/7D4+Hi3HsofFy9etClTppi+79Rh1qxZtnnz5qTdVq1aZV9//XXS+p0sXLp0yd5++207e/Zs0m4nTpxweUkZLPxMYPfu3TZu3DibP3/+z7YpIy4uzq5evapFEgIIIIAAAggggAACCCCQlkC2bAuYIEJMTIzdc889NmDAAOvdu7epM7V37147fPiw63D96le/svDw8GxBCsSTnjx50g4cOGAJCQmuevJSsOXUqVNuXR/nz5+3LVu22JUrV7SalLSPOv9169a13/zmN+4YKqtAzr59+9y6CutYOkdsbKxrD+X5U2RkpP3xj3+0ggULum06t9rQv53vlAUqVKhg+fPntwYNGrh2UTBIdrJOTEy0uXPn2oIFC5KCREePHrXkbaK23LFjhymIc/nyZXcSuesYugd0DG1TnvZzBfhAAAEEEEAAAQQQQACBABMI3uoETBAhJcKDBw/aBx984DqrBQoUSKlISOapw6hRGps2bbJ3333XLly4YGPGjDEFAmbMmGGLFy+2rVu3ulEB6liOHj3ajh075qz0lHvy5Mm2f/9+++6772zlypWmDmyfPn1s165d9v3337uO7Lp162zq1Kl2/Phx69u3rxsZ4g5w/UMd1WnTptmZM2fsv//7v01tpdEiKn+9CF+3EJB9//79TR3/9957z/bs2eOCZlrXrsuXL3dtqaCB2lnWw4cPt3PnztnYsWNNI0vUzvpW3oQJE0zBg2HDhtn06dNdkELHISGAAAIIIIAAAggggEAGCoT4ocIC6fq//fZbN53ho48+ckO61VlWB/f06dOBVM1sr0ulSpWsbdu21qxZMxdA0BSFypUrW/369a19+/a2ceNG+/HHH+3BBx+0WrVquXIakaARCAoyNGrUyGrWrGnJf/RkvGnTplajRg3btm2bqeP6yCOPuGP++7//e/KiNywrcFG0aFF74IEHTOWLFSt2w3ZW0hZQe1WtWtVKlizpAgiRkZFudEe+fPlsyZIltmHDBlu6dKlpVI6mQtSpU8e1yaOPPmoqu2bNGjfaZN68eS4IoWBCuXLlrEuXLqZ7Iu2zsxUBBBBAAAEEEEAAgdAS4GrTLxBQQQQNrdd0BnWAIiIirGXLlvbss8+antKqs5r+y80ZR9CQdo0w0NXkzp3bZOUf2q5RCQoWeJ6X9CRaT6dz5crlnng3bNjQFi1a5EYtaH9/0lQRz/Pcqo6tp+E6jzJu9S4KjW7QOVWWdGcCahftIW+5a9mfNFWke/fuNmTIEBdcU9DA384qL3O1f+fOnd00IL0rQwGdsLCA+rX2Xw7fCCCAAAIIIIAAAgikR4B9A0Qg4HsbeqraokUL+9vf/uY6wQHilq3V0NQETVEYNGiQFS9e3I0q0FD3YcOGuZcutmrVyjSqQEPaR4wY4Z5m6wm2AgXVq1e33//+9y4wo06opfLTpEkTNyT+f/7nf2zhwoWplDKLjo42z/NMdXnjjTfcyIhUC7PBTfvQlJG1a9emqKERInrpora39AXRXn31VRdAmDlzplWsWNGOHDnipploqomCN2rnDz/80NTO06ZNM72/IsUDk4kAAggggAACCCCAQLYJcOKcJBAWKBejzq2Gdvvrk3xdneJOnTq5zqp/e6h+a5i7Agj6KxaaA//YY4+ZnmbrnQYKImiuvKYklCpVylRu8ODB7km23ikhX7lqioPec6BOqgI0moLwzDPPOFJt1zz98uXLu/31JFzTJjzPc+9O0F9gUFLhnj17uqH3/fr1M39nV/tqGyllgTJlytj7779vbdq0MdkrqeQTTzzh1jVSZOTIke7Fi2pH/aUSjc7p0KGD5cmTx1544QXr0aOHPfnkk6ZRCGpn3Qdq565du1rhwoVN7aL7RMclIYAAAggggAACCCCQLgF2RuAmgYAJItxUL1azWUAvXlTndeDAge4vBegpuPGTrQKaXqLRHq+88op9+umnLuiQrRXi5AgggAACCCCAAAIBLUDlEMgMAYIImaGaA46paSQa7aC/vKAn33rqXaRIEdOoBSWedGd9I6sNNOpj6NCh9tprr1mJEiWyvhKcEQEEEEAAAQQQQCArBDgHAgErQBAhYJuGiiGAAAIIIIAAAggggEDwCVBjBHK2AEGEnN2+XB0CCCCAAAIIIIAAAgjcrgDlEEDglgIEEW5JRAEEEEAAAQQQQAABBBAIdAHqhwACWSNAECFrnDkLAggggAACCCCAAAIIpCxALgIIBJEAQYQgaiyqigACCCCAAAIIIIBAYAlQGwQQCDUBggih1uJcLwIIIIAAAggggAACEiAhgAACv0CAIMIvQGMXBBBAAAEEEEAAAQSyU4BzI4AAAtklQBAhu+Q5LwIIIIAAAggggEAoCnDNCCCAQFALEEQI6uaj8ggggAACCCCAAAJZJ8CZEEAAAQQIInAPIIAAAggggAACCOR8Aa4QAQQQQCBDBAgiZAgjB0EAAQQQQAABBBDILAGOiwACCCAQOAIBE0Q4dOiQzZo1y+Li4pzO6tWrTXlaWb9+vQ0ZMsR69uxpixYtcvnjx4+3UaNGuaRlf1mVV9q6davNnTvXEhMTtWrffPONnTt3zpYvX27apswrV664fP+3titfSWWUtByqSW1x9erVUL38TLlu3WsfffSRu28nTpxoe/fuva3znDp1yt5++2270/Y4ceKE208n+fHHH23Lli2WkJBgf//735N+Dy5evOjKPPfcc7Z9+3YVTUq7du2y4cOHu7Rv3z7btm2b6fcxqQALCCCAAAIIpC3AVgQQQACBHCYQMEGEmJgYW7p0qevky1idK+WpI68AwMCBA23SpEmmjsyOHTvs+eeft2bNmrmk5dKlS2u3pHTmzBn78ssvXadHmTpObGysad+jR48qywUs1KlSZ9m/3W3wfaiMkm8x4P6pI6rOnDqWqpzW1RHUNZw/f96U5Kfr0nZ9q3OYvLz20bZLly45B63rGP5yCr4oCLNgwQJTvsqS0i+gtlCwql+/ftatWzebPn26bdiwwR1Y97v8VUYZ6uzrfj9w4IBFRUXZH//4RwsPD3ftqzwFztRuamu1uX8fbdN+2l95Stq+bNkyK1++vCmI8dNPP5n//l6xYoVVqVLFBQoUXFBZ7aOUN29ee/HFF61r1642Z84cu/vuu+3bb781/72kMiQEEEAAgZwqwHUhgAACCCDwc4GACSKoavfff78LJBw7dkyrLq1du9aaNGliefLksbCwMLe8bt06ty16841aAAAQAElEQVStj/j4eGvTpo19/vnnOa4TrGCBrv3TTz81PV1euXKl9e/f3xQkGTx4sH322We2c+dO+/Of/+yufcyYMa7jOWPGDFu8eLGpvJKO8dVXX7mnz1rXMRQ8eO+992zPnj12+PDhpJEcKkvKWIH8+fPbQw89ZGvWrHGjAjQSRwGGCRMm2IULF0wjbHT/q7OvEQUffPCB67z36dPHNEJAnfpBgwaZgg+vv/66KXCmciqvINPHH3+cVGEFzwoVKmT58uVzwQj9Tvk3Hjx40AUXChQoYJ7nuZE+/m2lSpVyv3saAVGkSBG3XK5cORfM85fhGwEEEEAgAAWoEgIIIIAAApkkEFBBBAUJHn74Yfviiy/ckGtds568quOjZSV1vFROy2klPc0tVqyYNWrUyPQ0Pa2ywbYtOjraBQI0ikIdR9W/ffv2VqdOHfdE+cEHH3TLCsaoM1m5cmWrX7++qczGjRtVPMWk7VWrVrWSJUu6AEJkZKQVLFjQdTxT3IHMdAt4nmeXL192gQS157x581wARx17jQJo166dNWzY0HLlypV0rgYNGljz5s2tWrVq9tvf/ta1tX5H1N76/VAQQaMOFATy73T27FkrW7asf/WGb22LiIhweQrWKQDnVq5/nDx50mbPnm3/9m//5nJKlChh2set8IEAAgggkOECHBABBBBAAIFAFgioIIKgatas6TpM/g6QOj566qptShq6XaZMGS3eVmrZsqV7yqsnqdqhePHibvi+lhVoUL7neVoNiqTr1xD4zp072+9+97ukOvs7mZ7nuREb5vvRcHbPu9ZJ9a26p9vK07I/Je8w+o+h0Qiy8ZfhO3ME5Lxq1SqrWLGi5c6d29SmAwYMsClTppgCYGorpZvPrsCa5127Z/1tpnIKRkyePNlq165tTz311M+CP6m1aUlf0EijGXQvaHrEXXfdlXRKBQs0/eEPf/iDq5M2pHYcbSMhgAACIS7A5SOAAAIIIJDjBQIuiOB5nnXo0MENsZd+48aN7fjx46bOlV7wpuH4mqagbbeT1Mnq1KmT+Z/A6wmu3r0wYsQIGzp0qNWrV8/0xFedJb3oTi9r1MsXdWxNC9C6OlHqXCkvu5NGBqjD9+GHH7qpCbcalVGhQgU3zH3YsGGuc9qqVStTp/GTTz5xc+D1xDq1a1JAZ/78+aYh9amVIf/OBfTOgnHjxlnv3r1d8EBt0rRpU1Ob6r6cNm2auyfVTpqe8uabb7qXgt7qTLrX9e4EjRpQ+ypA5t9HUxCSB+P8+frWuRWY0tQIBdkKFy7s6qJ749VXX7X9+/e7qTF6J4mmW6j+Kqd9SQgggEDOEeBKEEAAAQQQQOB2BAImiFC9enU33N58P5q7/dZbb5ny1DHq3r27e5u9/kLDSy+9ZJq77StmLVq0cEnL6txoPriShvgrWKDt2qYO1DvvvOOepGpfHUedM80jf+CBB1TEvTxOQQoFK/RuBu2rOmi9S5currPnCmbzh+aljxw50p588klTB08vl1RdlVS1Z555xl2nnmQrcKBOpebQa3ns2LFWo0YN05SFqVOnur94oQ6qnLW/ko7xxBNPOFcNo9e5NHxe+aT0C2jagQJTugc1akABLt3jeveA3oWg+1IvMVRgq2PHju6+79u3rykY5G9bfasmai8lLet9FmrbHj16WK9evdw7MvTXFnQfqLxeqKhAmKY6qLz2U9Kyzj169Gh3P6k+GtWgVLduXZendzPo90BBDwUmTp8+7UZPaF8SAgggEBACVAIBBBBAAAEEskwgYIIIWXbFnAiBEBTQFAhNcdBIlltdvsoqkKGA281lIyMjTUEJvTvh5m2sI4AAAr9EgH0QQAABBBBAILgEckwQQZ0jPXVVio6Odm+ZD66moLYIZK6A3rugkRDpOYv213HScwz2RQCBHCPAhSCAAAIIIIBACArkmCBCCLYdl4wAAggggMAvFGA3BBBAAAEEEEDglwkQRPhlbuyFAAIIIIBA9ghwVgQQQAABBBBAIBsFCCJkIz6nRgABBBAILQGuFgEEEEAAAQQQCHYBggjB3oLUHwEEEEAgKwQ4BwIIIIAAAggggIBPgCCCD4F/CCCAAAI5WYBrQwABBBBAAAEEEMgoAYIIGSXJcRBAAAEEMl6AIyKAAAIIIIAAAggElABBhIBqDiqDAAII5BwBrgQBBBBAAAEEEEAg5wkQRMh5bcoVIYAAAukVYH8EEEAAAQQQQAABBFIUIIiQIguZCCCAQLAKUG8EEEAAAQQQQAABBDJPgCBC5tlyZAQQQODOBCiNAAIIIIAAAggggECACxBECPAGonoIIBAcAtQSAQQQQAABBBBAAIFQEAiYIMKhQ4ds1qxZFhcX59xXr15tytPK+vXrbciQIdazZ09btGiRyx8/fryNGjXKJS37y6q80tatW23u3LmWmJioVfvmm2/s3Llztnz5ctM2ZV65csXl+7+1XflKKqOkZdI1gcuXL1tCQsK1lVQ+1YabN29OceulS5eS2iPFAiGQqXvto48+cvftxIkTbe/evale9e14p7ozG+5EgLIIIIAAAggggAACCCBwmwIBE0SIiYmxpUuXuk6+6q7OlfLUkVcAYODAgTZp0iTbt2+f7dixw55//nlr1qyZS1ouXbq0dktKZ86csS+//NK2bdvm8nSc2NhYt+/Ro0ddngIWW7ZscYEL/3a3wfehMkq+xYD6p6DIxYsX7eTJk+5a/J165elazp8/765H36q4tp89e9a0Xd8qo47sqVOn7MCBA0lBAVnIwL+fOvzaR+WVJzv5y15ldezkScfTtvj4eJet8+r4ai8tnz592t566y07fPiwO6fadvv27a6ubocQ+ZCdglX9+vWzbt262fTp023Dhg0uuHL8+HHzm9zsrf2St0+IcN3GZVIEAQQQQAABBBBAAAEEslIgYIIIuuj777/fBRKOHTumVZfWrl1rTZo0sTx58lhYWJhbXrdunduW1oc6s23atLHPP//cdaDTKhtM29S5V0Bl8eLFpg7+1KlTXad806ZNFhERYXq6vWfPHlO+Ov+7d+92HVWNEJgwYYKz6N27ty1btsxWrFhhc+bMcXlTpkyxq1evmr537dplM2fOtDFjxjhzHVMBFQUuUrL67rvvXIBHneOvv/7aFTlx4oRpHwVxPv74Y7tw4YIpkKCN6gyrPiqvOqnDrPxQS/nz57eHHnrI1qxZ43x27tzpRsu8+eabprbze6vN1S7J2ydHWHERCCCAAAIIIIAAAgggEHQCARVEUJDg4Ycfti+++MJ1jKUZHh5u+fLl06JL6nipnFtJ40NPbosVK2aNGjWyBQsWpFEy+DZVqlTJ2rZta61atTINeVdnPCoqyhYuXOimeqizWaVKFTdSQR1UBWEiIyOtY8eOVq1aNatTp461bt3aatWqZeq47t27143YmD17tu3fv9+NUPCXr1q1qgvgnDlzxn0XKVLEcuXKZcl/NNqgQ4cOVr9+fVcvbVM7KYigYIVGH+h4CgRFR0ebgkAKgMybN88U8FD9tU8oJs/zXBsqAKR2mz9/vhtlIgt5yVsjOhSMSd4+2p6diXMjgAACCCCAAAIIIIBAaAoEVBBBTVCzZk3XSVXHU+tly5Y1PRnXspI6vGXKlNHibaWWLVu6dyCog6YdihcvnjSEXoEG5Xuep01BkzQdQXVXhXPnzm0bN260JUuW2NNPP22NGzdWtgueKE9Ps++99143osDzrl1n8iCMjqNAjfYbMGCAm3LQokWLG8prOoJGdrgDp/ChKRaqk3+TTCdPnmy1a9e2p5566oYgkMqozp07dzadT0/YFexRfqglua1atcoqVqxo06ZNswIFCrj3ftzskVL7pMOKXRFAAAEEEEAAAQQQQACBXywQcEEEz/NMT7U1N1xXpc6t5oqrwzl8+HDTMH5NU9C220l6at6pUyfX0Vb55s2buykTI0aMsKFDh1q9evUsb968pvcFaNi+Xtaoly+q7GeffeZegKcX4SXvJGtbdiZN9xg3bpwNGjTIFBTR+yA0ouD99983TWtQ3UqVKmWqszqkeqKtvNSSOrF6p4GMx44d60Yj3FxWIwl0zBkzZrhpCsm3y1DTJ0aOHOmCGTLXyAg9Of/kk0/cNAmtK3igaQwq/+GHH5raQJ1njaZIfrycvqyRBWo/TSuRiUaUqA01MuODDz5wUxp0T/q9NarjWvsMsNTaJ6ebcX0IIIAAAggggAACCCAQGAIBE0SoXr26tW/f3vRTqFAh90RceeqQdu/e3XXm9RcaXnrpJffEVuX0xFxJyxoSr3n4Shp6r2CBf1u5cuXsnXfeMXWo9bRXxxk8eLC9/vrr9sADD2h3e/HFF01BCnWk9W4G7asXAWq9S5cups6eKxgAH+XLlzc56H0Cjz32mFWoUMH56EV9o0ePNrmpmhoK37RpUy06W+Vraoj+yoW+td6/f3838kMv+lMARevyUltou3ZWnpbVDr169XIjC+SsJGtNnVAQQUENmdWoUcN69OhhKqt9n3vuOefnt6xcubKp7mqDrl27mgIUOk+OTtcvTu5y1j2o0RoKcOke17sRXn75ZXv22WdNwS2V83tr5M3N7XP9cHwhgAACCCCAAAIIIIAAAlkqEDBBhCy96iA+med5pqf6nndtakJKl6KOvTrzeoKtp9kplSHv9gUoiQACCCCAAAIIIIAAAgggcE0gxwQRChYs6EYaaLRBdHS0eV7qnexrlx6cnxrm/vjjj7spGKldga6/T58+7kWKnpfxDkFknRoR+QgggAACCCCAAAIIIIAAAr9AIMcEEX7BtbNLQAtQOQQQQAABBBBAAAEEEEAgsAQeamW5c0JKjypBhPTosW/KAuQigAACCCCAAAIIIIAAAjlQoHUzK9K1o1UI5lSsiIWnp2kIIqRHLwfuyyUhgAACCCCAAAIIIIAAAgggkJoAQYTUZIIvnxojgAACCCCAAAIIIIAAAgggkKkCBBEylfd2D045BBBAAAEEEEAAAQQQQAABBAJfgCBCetuI/RFAAAEEEEAAAQQQQAABBBAIEYGQDiKESBtzmQgggAACCCCAAAIIIIAAAghkiECwBhEy5OI5CAIIIIAAAggggAACCCCAAALZLXBg386Sa1Yu+49TJ09EZXddbnX+bAgi3KpKbEcAAQQQQAABBBBAAAEEEEAgdASOHT5WMzb2SvlD+/bdG+hXfWdBhEC/GuqHAAIIIIAAAggggAACCCCAQJAJVK5ea1lUVKG1teo3+D5gqp5KRQgipAJDNgIIIIAAAggggAACCCCAAAJ3KOBpSsLZs+ci9+/aUXbzj+vrHtm/r5iOcfzQoaJa37VjSwXfuudLSf+iogpevrtSlY0H9+8vnpR5feHq1avevj27Sh86sL/E9Sz3dWjvnhKbf/qh5k++c2i7y7z+kZlfBBEyU5djI4AAAggggAACCCCAAAIIhIyAL0hQZ8vGDZ22/riu3f79+x88ffp0H6JW7AAAEABJREFUk507d/znxnVrG+3YsfU/tX7k4OE2q5Yt/s+4uKtJ/fFNP6yrv2Hd6icuX76UPzmWjrdm5fI/HNi79yFfcKKMf9sPa1c33bNn9/85feJUsxjfObR9/fcrW/q3Z+Z3UqUz8yS3c+xDhw7ZrFmzLC4uzhVfvXq1KU8r69evtyFDhljPnj1t0aJFLn/8+PE2atQol7TsL6vySlu3brW5c+daYmKiVu2bb76xc+fO2fLly03blHnlyhWX7//WduUrqYySlknXBC5fvmwJCQnXVtLxqTb2RdPs4sWLNmXKFPd9u4fbvHmzu09ut3yglVu8eLEdOHDAVSs+Pt7mz59vFy5ccOu383HixAl7++23b6doUhk5f/311+7+1+/YCy+8YJ9//rn7XTt58qSNGTPGBg0aZMeOHbNt27aZft+SdmYBAQQQQAABBBBAAAEEblPgX8WuxscX1PSE3Lnz7Pd8P2fPxjQIDw8/VTC60JrwMO9SXFx8sZ3bt1X51x4/X9q6cUMNX9Dh174+WP6I8Igj+QsWOqZSWzb8UOvCuXO1wsLCLhQrVnxpiRIlvw0P985dvHjpXgUdVCYzU8AEEWJiYmzp0qWuk68L3rt3rylPHXkFAAYOHGiTJk2yffv22Y4dO+z555+3Zs2auaTl0qVLa7ekdObMGfvyyy9dp0iZOk5sbKzb9+jRo8pynagtW7a4b/92t8H3oTJKvsWA+qegyEVf51udPzn4bihXP+XpWs6fP++uR9/aoO1nz551HXV9q4yCJqdOnXKdWW1XuThf8EYG/v0uXbrk9lF55clO/jqnymoff9LxdH7//iqv9vOX07d/m+qv4M6CBQtM59AxdC3bt2939da66qR2VmBI5ZWnc6gu/n2UF4wpMjLSVq1a5ap+5MgRd38qT4EFXbOuXUkBG91/6thrXdtURssykY3y/OvHjx83v6G2y0m/PyqzYsUKi4qKMt9/tKx58+b22muvme6FXbt22bx58+x3v/udC9DNnDnTypYta99++63p/nCV5AMBBBBAAAEEEEAAgVAQyOBrLFq02HK93+C+X98/NzzMO6/D12vU6G+16zZYXbZc+YVav3zpkpvmoOWUku8h9z3KL12u3N8bNWv2ZYWKFQ9qPebMmVpeYmJC9eo1/lq1Zq2fKlevvu3emnW/9DxLiDkbU0NlMjMFTBBBF3n//fe7QII6TlpXWrt2rTVp0sTy5MljYWFhbnndunXalGbSU942bdq4J67q4KZZOIg2qnOogIqeaKtTPXXqVDc6YNOmTRYREWETJ060PXv2mPLVmd+9e7dNnz7dPb2fMGGCCwz07t3bli1bZupczpkzx+VpRIBGB+hbnUt1KPWEWuY6pjq06uynRLVy5Urr37+/KdAwePBg++yzz2znzp325z//+WfHVv7hw4eTRoio46tRJ8qbNm2aqd1Ud9VBQSUdSx1aPSnXtc+ePdsdM6V6BENetWrVXPvonlyzZo01aNDA5CpfjQL4+OOPXQf+2WefdaNuZKqRNvo9UBkFDeQln++//96NttFIBrn6/iNjb775phvZMGzYMNfuMvvhhx+sUqVKli9fPitR4to0qsTERMubN687twJwhQsXNgXeFLwoV66cC9YFgyd1RAABBBBAAAEEEEAgEAXCc4fFXq9XohcWdtnXabPcufNeUV6uyDyX9B1/NS63vlNLCQlxebXfPRUrXxvK7CuoKRDxcXGFwnKFny5UrLgLTviyLbpw4QthYbnOxMfFR/nWPV/KtH8BFURQh/Xhhx+2L774wmeV4C5aT0/V+XErvo/8+fO7YIJvMc1/evpdrFgxa9Sokempd5qFg2yjOoRt27a1Vq1amTp96jzqSfPChQvdVA8FA6pUqeJGXaijqiCMnnZ37NjR1ImtU6eOtW7d2mrVquU6+3v37nVPxNVB379/vxuh4C9ftWpVF8BRB1OBnCJFiliuXLl+Jta+fXvTcXXeBx980C0rGKSOsZL/2HqCrmMXLFjQdWL911KjRg1XdwUT1FF+4IEH7Pe//70bYq/63XfffVa/fn3TNWj/n1UgSDLUTnfddZfzVgBF7aF7WgECBXZ0/bqUunXrumtVR1+pXbt21rBhQ2evwEPTpk1NZrJV8EhtrqkRCkgo8KBAQJcuXUzf8ipQoIAO64I3Kle0aFHT74fK6vdOv2dKslegQSMV3A58IIAAAggggAACCCCQeQIc+Q4FcuWKSAgL865YguW9edfExIQ84Z531Zd/bU6/byEz/gVUEEEXWLNmTddR8nemNLxaT121TUkdyjJlkt4noaw0U8uWLd07ENTJUsHixYsnDZtXoEH5npepgRqdNkOThvar7jpo7ty5bePGjbZkyRJ7+umnrXHjxsp2wRPlqVN57733usCL5127TnUaXSHfh46jzqP2GzBggL311lvWokWLG8qrY6kRAr7iqf7LdT2w4Hme29d8P9rP8zxXp+TH9m1K+pe8Lv7y+lbSdepJuud5LliStFOQL9SuXdu++uorK1SokKlzP3nyZFPeU0895UYL6PLUJp7nOUtZKNn1H/82rar9pk2b5o6jd4YoMKD8m12Vl5iYaP/85z/dSI6HHnrIBXEUwNBIBgWjFGzQuo6p8iQEEEAAAQQQQAABBFIXYEt2CUTkyXs4PjEh30/r1zf01+Gn9T/U8/UZ8ufKnefa3H3/hkz4Drgggud51qFDBze/W9erzq3me6sTOnz4cNMwfk1T0LbbSercdurUyXW0VV5zwjVMfsSIETZ06FCrV6+e60zpyauG7etljcuXL1dRNyxf6x999JGpQ+syA+BDT/jHjRvnXoanoIiGo2s4+/vvv2+a1qAqlipVytVZnUqNIFBeaqlixYpuCL2Mx44daxqNcHNZdTB1zBkzZpiemt+8PbX1ChUq/OzYChTpabiG2d+8X3R0tJUsWdI0LWL06NEuGKLREHrirvZ67733koJAN+8bLOuVK1d2Iyw0ukKjCDQ6QSM1PvnkE1NQK/l1aJqB30NTFTTqJPl2Lav99W6DDz74wL08UXn+pFE8kZGRrs00JULTVXSPvPrqq+79IwqyvfHGG6bfBwUyNOpB717QfeU/Bt8IIIAAAggggAACOUyAywlqAV8fa7mv2xwbE3P6vpVLFj3x3dJFnWNiTv3K17m/cnelissy++J858nsU9ze8atXr24aEm++Hz2h1RNx5SkI0L17d/dXGPQXGl566SX31NVXzD0x11NzLatzpTfXK2novYIF/m0a0v3OO++44dt68qvjqJP6+uuvm4bNa/8XX3zRFKRQR1rvZtC+qoPWNSxcT/xVLhBS+fLlTQ56x8Fjjz1mvpvI+XTr1s3U8Zab6qmpBxr2rmXZKl+dSj2x1rfW9S4DGffr188dQ+vy8pfXvspTWbVDr1693NNyOSvdbP3MM884ZwUvhg0b5l7od/OxNSx/5MiR9utf/9q90E918ZfXk3BNWVDwRteiTq62q/wrr7xiej+AgkKqV7AmXY867gpgeZ5nPXr0MLnK+bnnnnN+ctT1eZ7npjXIo2/fvq6t/dvUJtpHowpefvll03sUFGjRVAV/G+sYCsTp/Qly/8tf/mJ6p4bua93nmhKhwJGSpsfo/ROnT582BZa0LwkBBBBAAAEEEEAgsASoTWAL3FWm7O4CBQqui4jIe9Ff01KlSn+XN6rAFv96dHSJc4ULF12RL1/e4/683Hnznc0fVeAH/7q+b95PeUpF7ip5tu59DT8tVKjw6jx5Ig/nCos4HRVVaG2N+vd9WrxEyRiVycwUMEGEzLzInHRsz/Ncx9zzrk1NSOna1LFXAEQdco0eSKkMeaEjoBEGv/3tb5PeM5LWlUdGRpqCFLcavZLWMdiGAAIIIIAAAgggkKIAmSEgUKRosbN1Gt636u4KFQ/7L7dcxcoH6jf81T/963kiI+Kq16nzY7XadTf68ypXvXdn3fqNVlaqUnWPP+/m/fz5+s6XLyq2Zr16a+o3brKg4f1N59aq3+D7qKiCl7Uts1OOCSLoRX16mq2kIfGel3onO7NRM/P4Gm7++OOPuykYqZ1H19+nTx/3BNvzMt4hVKxT8w22fM+7FngKC7v1r7tGSQTSqJtgs6a+CCCAAAIIIJBTBbguBBDwC9y6V+EvmRHf4cUObtu2LV9GHIpjIIAAApkhoL9oUqBAwaShZZlxDo6JAAIIIIAAAlkowKkQQCBDBbI0iBBd6pGDnued0/+kZ+hVcDAEEEAggwT0Asr4+MTVGXQ4DoMAAggggAAC6RBgVwQQCDyBLA0i5C78TGxsXL7/6tHjmbPbtm0LPA1qhAACIS0wZ84c0wtBvfwtng5pCC4eAQQQQACB9AtwBAQQyKECWRpEkOFddX6Ye/TohT+1bdv2Srt27dyfWdQb90nj3V8e8DscOnTIvvrqqxvy/Nv4vtEqED0uXrxo+nOUgVg36vTz++dPf/qTNW/e4lLfvn3PeBFlWxe6+91T+u8VCQEEEEAAgdAU4KoRQACB1AWyPIigqpSo99P0hPCSrdas2/L8//7v9HmTJr+9knSjwdGjRw8vWPiPTbjc6BIsHvHx8bGzPv/ip2Cpb6jXc/aceZ/s3ne8X1ihp6qWrPPdSv13ioQAAggggEBQClBpBBBAIJMFsiWIoGsqXmPFupL1tk6NrrG1fdFaO1qTbjQoUW9f5eJ1djfC5UaXYPEo2eBAEV/7NQ6W+oZ6PQtX3/xfJetu/rhQ2Zcv6L9PJAQQQAABBLJDgHMigEBwCFy6bHHBnNKrnG1BhPRWnP0RQAABBBBAAAEEEAgQAaqBAAIhItBvuB15vJ/tDOb0/2bapfQ0F0GE9OixLwIIIIAAAggggECQC1B9BBBAAIE7ESCIcCdalEUAAQQQQAABBBAIHAFqggACCCCQ5QIEEbKcnBMigAACCCCAAAIIIIAAAgggEJwCBBGCs92oNQIIIIAAAgggkF0CnBcBBBBAIIQFCCKEcONz6QgggAACCCAQagJcLwIIIIAAAukTIIiQPj/2RgABBBBAAAEEskaAsyCAAAIIIBAAAgQRAqARqAICCCCAAAII5GwBrg4BBBBAAIGcIkAQIae0JNeBAAIIIIAAApkhwDERQAABBBBAIJkAQYRkGCwigAACCCCAQE4S4FoQQAABBBBAIKMFCCJktCjHQwABBBBAAIH0C3AEBBBAAAEEEAhIgbDiRa1EQNaMSiGAAAIIIIBAUApQaQQQQAABBBDIuQJhXnh8q5x7eVwZAggggAACCNyBAEURQAABBBBAAIE0BcLCEr1eaZZgIwIIIIAAAggEgQBVRAABBBBAAAEEMleg+p+uPh6WaIkN7ioePzFzT8XREUAAAQQQQCBVATYggAACCCCAAAIBLlC1b1yLsNzeJP+LFbuVKB73VYmi8a0DvN5UDwEEEEAAgYASoDIIIIAAAggggEBOFqj8pJWq8X+vvBwRmTjXLGDC6tcAAAAISURBVDHi/wMAAP//LlJ6uQAAAAZJREFUAwBWIoyFaSkJdgAAAABJRU5ErkJggg==;" vertex="1" parent="1">
          <mxGeometry x="-490" y="30" width="1010" height="931.41" as="geometry" />
        </mxCell>
      </root>
    </mxGraphModel>
  </diagram>
</mxfile>
